{"glyphs":{"0":{"ha":694,"x_min":40,"x_max":646,"o":"m 331 -28 q 204 3 258 -25 q 114 85 150 31 q 58 228 76 139 q 40 442 40 318 q 40 472 40 457 q 42 503 40 488 q 43 534 42 518 q 46 567 44 550 q 72 706 53 639 q 125 832 92 772 q 219 924 158 893 q 369 954 281 954 q 498 924 444 954 q 582 833 551 894 q 630 695 614 774 q 646 521 646 617 q 645 476 646 499 q 643 429 644 453 q 640 381 642 406 q 636 333 639 357 q 606 203 626 265 q 553 83 585 140 q 465 0 521 28 q 331 -28 410 -28 l 331 -28 l 331 -28 m 344 908 q 342 906 343 906 q 342 906 342 906 q 340 906 340 906 q 340 906 340 906 q 338 906 339 906 q 338 906 338 906 q 335 906 336 906 q 335 906 335 906 q 236 872 274 906 q 185 772 199 839 q 164 633 171 706 q 157 481 157 560 q 167 297 157 379 q 194 149 176 214 q 252 51 214 83 q 349 18 290 18 q 442 48 406 18 q 496 138 479 78 q 519 264 511 199 q 529 401 528 329 q 529 406 529 404 q 529 410 529 407 q 529 413 529 411 q 529 417 529 415 q 529 421 529 419 q 529 425 529 422 q 529 428 529 426 q 529 432 529 431 q 520 615 529 531 q 494 768 511 700 q 440 872 478 838 q 344 906 403 906 l 344 908 l 344 908 z "},"1":{"ha":694,"x_min":83,"x_max":581,"o":"m 93 771 l 83 831 q 88 829 86 829 q 92 831 90 829 q 94 831 93 831 q 97 832 96 831 q 99 833 97 832 q 101 833 100 833 q 140 848 121 840 q 181 863 160 856 q 219 878 200 871 q 258 894 239 886 q 333 928 297 911 q 399 961 368 944 l 418 957 l 418 133 q 419 108 418 119 q 421 88 419 97 q 427 70 424 78 q 436 58 431 63 q 451 49 443 53 q 468 43 458 46 q 487 40 476 42 q 508 39 497 39 l 581 38 l 581 -4 q 567 -4 574 -4 q 554 -4 561 -4 q 543 -3 549 -3 q 532 -3 538 -3 q 510 -3 521 -3 q 490 -3 500 -3 q 452 -1 469 -1 q 419 0 435 0 q 390 0 404 0 q 360 0 375 0 q 330 0 346 0 q 299 0 314 0 q 265 -1 283 0 q 228 -3 247 -1 q 206 -3 218 -3 q 183 -3 194 -3 q 172 -3 178 -3 q 160 -4 165 -3 q 147 -4 153 -4 q 133 -4 140 -4 l 133 38 l 211 42 q 232 41 222 40 q 251 43 242 42 q 268 49 260 46 q 283 58 276 53 q 292 70 289 63 q 297 88 296 78 q 301 108 300 97 q 301 131 301 118 l 301 807 q 301 806 301 806 q 301 808 301 807 q 301 811 301 810 q 301 814 301 813 q 301 819 301 817 q 300 826 301 822 q 299 832 300 829 q 299 838 299 835 q 295 847 297 844 q 290 850 293 850 q 290 850 290 850 q 290 850 290 850 q 289 850 289 850 q 289 850 289 850 q 289 850 289 850 q 289 850 289 850 q 287 849 288 849 q 286 849 286 849 q 286 849 286 849 q 286 849 286 849 l 107 771 l 93 771 l 93 771 l 93 771 z "},"2":{"ha":694,"x_min":22,"x_max":650,"o":"m 22 32 l 258 283 q 368 407 325 351 q 432 504 411 463 q 463 583 453 546 q 474 651 474 619 q 461 728 474 693 q 424 792 449 764 q 365 833 399 819 q 288 847 332 847 q 224 841 253 847 q 175 824 196 835 q 138 790 153 813 q 113 732 122 767 l 94 671 l 54 671 q 56 681 56 675 q 58 692 57 686 q 59 703 58 697 q 61 715 60 710 q 64 738 63 726 q 67 763 65 750 q 67 767 67 765 q 67 771 67 769 q 67 774 67 772 q 68 776 67 775 q 68 779 68 778 q 68 782 68 781 q 70 800 69 790 q 72 819 71 810 q 75 838 74 829 q 78 857 76 847 q 128 902 101 883 q 185 932 154 921 q 247 949 215 943 q 314 954 279 954 q 444 935 390 954 q 532 875 499 915 q 582 791 565 836 q 599 694 599 746 q 597 658 599 676 q 590 624 594 640 q 580 590 586 607 q 567 558 574 574 q 541 515 556 536 q 508 471 526 493 q 469 424 490 449 q 422 372 447 400 l 169 107 q 228 104 199 104 q 289 106 258 104 q 349 107 319 106 q 410 110 379 108 q 424 110 417 110 q 440 110 432 110 q 455 110 447 110 q 469 111 463 111 q 500 112 485 111 q 531 114 515 113 q 545 114 538 114 q 560 115 553 114 q 574 115 567 115 q 589 115 582 115 q 619 116 604 115 q 650 118 635 117 q 648 101 649 110 q 647 85 647 93 q 647 69 647 76 q 647 54 647 61 q 647 46 647 50 q 647 38 647 42 q 647 30 647 33 q 649 24 647 26 q 649 20 649 22 q 649 17 649 18 q 649 13 649 14 q 649 8 649 11 q 649 5 649 7 q 650 1 649 3 q 650 -1 650 0 q 650 -4 650 -3 q 636 -4 643 -4 q 624 -4 629 -4 q 610 -3 617 -3 q 596 -3 603 -3 q 569 -3 582 -3 q 543 -3 556 -3 q 516 -1 529 -1 q 490 -1 503 -1 q 464 -1 476 -1 q 439 -1 451 -1 q 412 0 425 0 q 386 0 399 0 q 359 0 372 0 q 333 0 346 0 q 281 0 307 0 q 228 0 254 0 q 176 -1 201 0 q 125 -3 150 -1 q 113 -3 119 -3 q 100 -3 106 -3 q 87 -3 93 -3 q 74 -3 81 -3 q 61 -3 68 -3 q 49 -4 54 -3 q 35 -4 42 -4 q 22 -4 29 -4 l 22 32 l 22 32 l 22 32 z "},"3":{"ha":694,"x_min":21,"x_max":642,"o":"m 60 692 l 100 864 q 147 904 122 886 q 201 932 172 922 q 260 949 229 943 q 325 954 292 954 q 430 940 383 954 q 511 897 476 925 q 563 830 546 868 q 581 743 581 792 q 569 679 581 710 q 535 619 558 649 q 486 565 513 590 q 428 517 460 540 q 519 493 479 510 q 586 451 558 476 q 628 388 614 425 q 642 303 642 351 q 610 181 642 239 q 518 72 579 124 q 389 -3 457 21 q 247 -28 321 -28 q 226 -27 238 -28 q 201 -24 214 -26 q 174 -19 188 -22 q 147 -14 161 -17 q 137 -11 142 -12 q 126 -10 132 -10 q 116 -7 121 -8 q 106 -4 111 -6 q 95 -1 100 -3 q 86 0 90 0 q 78 3 82 1 q 69 6 74 4 q 64 51 68 28 q 53 101 60 75 q 39 155 47 128 q 21 210 31 182 l 58 226 q 95 138 74 175 q 146 76 117 101 q 216 39 175 51 q 308 26 257 26 q 394 44 357 26 q 458 96 432 61 q 499 172 486 132 q 513 258 513 213 q 501 341 513 304 q 467 406 490 378 q 410 447 444 433 q 328 461 375 461 q 299 459 313 461 q 272 453 285 457 q 249 444 260 449 q 228 436 239 440 q 224 434 226 435 q 219 433 222 433 q 217 431 218 432 q 214 431 215 431 l 204 442 l 221 515 q 224 513 222 514 q 226 513 225 513 q 228 511 226 511 q 231 511 229 511 q 236 511 233 511 q 242 511 239 511 q 242 511 242 511 q 244 511 243 511 q 245 510 244 510 q 246 510 246 510 q 249 510 247 510 q 251 510 250 510 q 254 510 253 510 q 258 510 256 510 q 262 508 260 508 q 265 508 264 508 q 274 508 269 508 q 282 508 278 508 q 355 522 322 508 q 413 564 388 536 q 450 622 436 592 q 467 685 464 651 q 467 687 467 686 q 467 689 467 688 q 467 690 467 689 q 467 692 467 690 q 467 697 467 694 q 467 700 467 699 q 454 764 467 735 q 417 815 442 793 q 363 850 392 839 q 299 861 333 861 q 294 861 297 861 q 290 861 292 861 q 285 860 288 860 q 281 860 283 860 q 276 860 279 860 q 272 858 274 860 q 267 858 269 858 q 263 857 265 857 q 221 844 240 853 q 182 825 201 836 q 151 800 164 813 q 131 774 138 788 q 131 773 131 774 q 131 772 131 772 q 129 770 129 771 q 129 769 129 769 q 128 767 128 768 q 128 767 128 767 l 103 692 l 60 692 l 60 692 l 60 692 z "},"4":{"ha":694,"x_min":3,"x_max":656,"o":"m 389 251 l 18 251 l 3 283 l 396 926 l 499 964 l 515 957 q 510 901 513 939 q 507 806 508 864 q 506 678 506 747 q 506 531 506 610 l 506 340 q 508 338 507 339 q 511 338 510 338 q 513 338 511 338 q 515 338 514 338 q 521 338 518 338 q 526 338 524 338 q 531 338 529 338 q 535 338 533 338 q 540 338 538 338 q 546 338 543 338 q 560 338 553 338 q 574 338 567 338 q 588 338 581 338 q 601 339 594 338 q 615 339 608 339 q 628 339 621 339 q 642 340 635 339 q 656 342 649 340 l 656 246 q 622 247 639 246 q 585 247 604 247 q 565 247 575 247 q 546 249 556 247 q 525 249 535 249 q 506 249 515 249 l 506 147 q 510 88 506 110 q 525 57 515 65 q 551 44 536 49 q 589 39 567 40 l 656 38 l 656 -4 q 647 -4 651 -4 q 638 -4 642 -4 q 627 -3 632 -3 q 618 -3 622 -3 q 599 -3 608 -3 q 582 -3 590 -3 q 578 -3 581 -3 q 574 -3 575 -3 q 569 -1 571 -1 q 564 -1 567 -1 q 560 -1 563 -1 q 556 -1 557 -1 q 551 -1 553 -1 q 546 -1 549 -1 q 532 -1 539 -1 q 518 -1 525 -1 q 504 0 511 0 q 490 0 497 0 q 463 0 476 0 q 436 0 450 0 q 417 0 426 0 q 400 0 408 0 q 381 0 390 0 q 363 0 372 0 q 326 -1 344 0 q 290 -3 308 -1 q 272 -3 281 -3 q 254 -3 263 -3 q 246 -3 250 -3 q 238 -4 242 -3 q 228 -4 232 -4 q 219 -4 224 -4 l 219 38 l 306 42 q 344 44 328 40 q 369 57 360 49 q 384 88 379 65 q 389 144 389 110 l 389 251 l 389 251 l 389 251 m 389 340 l 389 825 l 386 825 l 90 340 l 389 340 l 389 340 l 389 340 z "},"5":{"ha":694,"x_min":18,"x_max":638,"o":"m 176 840 l 164 550 q 208 574 185 561 q 257 596 232 586 q 307 612 282 607 q 358 617 332 617 q 469 599 419 617 q 558 544 519 581 q 618 460 599 510 q 638 347 638 410 q 607 201 638 268 q 515 82 576 135 q 387 2 454 29 q 246 -28 319 -25 q 242 -28 244 -28 q 239 -28 240 -28 q 236 -28 238 -28 q 233 -28 235 -28 q 218 -27 226 -28 q 201 -25 210 -26 q 183 -23 192 -24 q 164 -21 174 -22 q 142 -16 153 -19 q 121 -10 132 -12 q 102 -3 111 -6 q 86 3 93 0 q 83 14 85 8 q 79 26 81 19 q 75 38 76 32 q 71 49 74 43 q 63 72 67 60 q 54 96 58 83 q 50 107 53 101 q 46 118 47 113 q 41 130 43 124 q 36 142 39 136 q 32 153 35 147 q 28 165 29 158 q 23 176 25 171 q 18 188 21 182 l 51 210 l 115 96 q 131 74 122 83 q 154 58 140 65 q 183 47 168 53 q 211 39 197 42 q 228 36 219 38 q 247 33 238 35 q 264 32 256 32 q 279 32 272 32 q 383 49 339 32 q 458 99 428 65 q 504 176 489 132 q 519 275 519 221 q 505 375 519 331 q 463 453 490 419 q 394 503 433 486 q 303 521 354 521 q 260 517 281 521 q 225 507 240 514 q 194 490 208 500 q 164 467 179 479 q 160 463 163 465 q 156 460 158 461 q 152 456 154 457 q 147 451 150 454 q 144 448 146 450 q 140 444 142 446 q 136 440 138 442 q 132 436 135 439 l 104 447 q 107 486 106 458 q 110 556 108 514 q 112 643 111 597 q 113 736 113 689 q 113 745 113 740 q 113 756 113 750 q 113 767 113 761 q 113 778 113 772 q 113 824 113 801 q 113 868 113 846 q 112 910 113 890 q 110 947 111 929 l 117 957 q 127 953 122 954 q 138 953 132 953 q 147 951 142 951 q 157 951 151 951 q 166 951 161 951 q 176 951 171 951 q 187 950 182 950 q 197 950 192 950 q 237 948 217 949 q 278 947 257 947 q 317 947 297 947 q 358 947 338 947 q 399 947 379 947 q 439 947 419 947 q 478 948 458 947 q 519 950 499 949 q 530 950 525 950 q 540 951 535 950 q 549 951 544 951 q 560 951 554 951 q 570 951 565 951 q 581 953 575 951 q 590 953 585 953 q 600 954 594 954 l 607 950 q 605 940 606 944 q 604 933 604 936 q 604 926 604 929 q 604 919 604 922 q 604 912 604 915 q 604 906 604 908 q 604 898 604 901 q 604 892 604 894 q 604 878 604 885 q 604 864 604 871 q 604 858 604 861 q 606 851 604 854 q 606 844 606 847 q 607 838 607 840 l 600 833 q 504 831 551 831 q 411 832 457 831 q 319 833 365 832 q 228 836 274 835 q 222 836 225 836 q 215 836 218 836 q 208 836 211 836 q 201 836 204 836 q 195 836 199 836 q 189 838 192 836 q 183 838 186 838 q 176 838 179 838 l 176 840 l 176 840 z "},"6":{"ha":694,"x_min":44,"x_max":650,"o":"m 336 -28 q 199 0 256 -28 q 110 85 143 28 q 60 206 76 142 q 44 339 44 269 q 78 553 44 454 q 181 735 113 653 q 335 872 249 817 q 526 954 421 926 l 578 933 l 578 922 q 417 853 488 894 q 299 757 347 813 q 221 626 250 701 q 182 457 192 551 q 201 471 192 464 q 218 485 210 478 q 226 491 222 488 q 235 499 231 494 q 243 505 239 501 q 251 511 247 508 q 285 532 268 522 q 319 550 301 542 q 359 561 338 557 q 406 565 381 565 q 509 547 464 565 q 586 490 554 528 q 634 406 618 453 q 650 300 650 358 q 627 169 650 228 q 558 64 604 110 q 457 -6 513 17 q 336 -28 401 -28 l 336 -28 l 336 -28 m 349 485 q 338 481 343 482 q 328 481 333 481 q 317 478 322 479 q 307 476 313 478 q 269 464 288 472 q 232 443 250 456 q 201 416 214 431 q 182 383 189 401 q 177 369 179 376 q 174 354 175 361 q 172 340 172 347 q 171 325 171 332 q 171 322 171 324 q 171 318 171 319 q 171 314 171 315 q 171 310 171 313 q 171 306 171 308 q 171 303 171 304 q 171 299 171 300 q 171 294 171 297 q 171 292 171 293 q 171 290 171 292 q 171 288 171 289 q 171 286 171 288 q 171 278 171 282 q 171 269 171 274 q 172 260 171 264 q 172 251 172 256 q 173 233 172 242 q 175 215 174 224 q 193 144 181 178 q 225 78 206 110 q 277 31 244 47 q 353 15 310 15 q 427 31 396 15 q 479 78 458 47 q 513 144 500 110 q 529 215 525 178 q 529 224 529 219 q 529 235 529 229 q 529 240 529 238 q 531 244 529 242 q 531 249 531 246 q 531 254 531 251 q 520 337 531 297 q 489 411 510 376 q 433 465 468 447 q 349 482 397 482 l 349 485 l 349 485 z "},"7":{"ha":694,"x_min":61,"x_max":690,"o":"m 78 14 l 417 558 q 435 588 426 572 q 454 619 444 603 q 474 651 464 635 q 493 686 483 668 q 510 721 501 703 q 529 757 519 739 q 549 795 539 776 q 568 835 558 814 l 197 838 q 157 831 172 835 q 135 818 142 826 q 122 791 128 810 q 113 743 117 772 q 113 741 113 742 q 113 740 113 740 q 113 738 113 739 q 113 738 113 738 l 103 663 l 61 663 q 61 672 61 667 q 61 683 61 678 q 61 689 61 686 q 63 696 61 692 q 63 701 63 699 q 63 707 63 704 q 63 719 63 714 q 64 732 63 725 q 64 744 64 738 q 64 756 64 750 q 64 768 64 763 q 65 781 64 774 q 65 792 65 786 q 65 804 65 799 q 65 815 65 810 q 65 828 65 821 q 64 840 64 833 q 64 851 64 846 q 64 863 64 857 q 64 875 64 868 q 63 887 63 881 q 63 899 63 893 q 63 904 63 901 q 63 911 63 907 q 61 917 61 914 q 61 922 61 919 q 61 935 61 929 q 61 947 61 942 l 75 957 q 151 952 113 954 q 228 949 189 950 q 305 947 267 947 q 382 947 343 947 q 459 947 421 947 q 536 949 497 947 q 613 951 575 950 q 690 954 651 953 l 690 915 l 436 458 q 419 427 428 442 q 404 397 411 413 q 388 369 396 383 q 374 339 381 354 q 330 251 351 294 q 289 163 308 207 q 251 77 269 119 q 218 -4 233 35 q 215 -4 217 -4 q 213 -4 214 -4 q 210 -3 211 -3 q 207 -3 208 -3 q 204 -3 206 -3 q 203 -3 203 -3 q 200 -3 201 -3 q 197 -3 199 -3 q 195 -3 196 -3 q 194 -3 194 -3 q 192 -1 193 -1 q 192 -1 192 -1 q 189 -1 190 -1 q 186 -1 188 -1 q 183 -1 185 -1 q 178 -1 181 -1 q 174 0 176 0 q 169 0 172 0 q 166 0 168 0 q 163 0 164 0 q 158 0 160 0 q 154 0 157 0 q 146 0 150 0 q 138 0 142 0 q 134 0 136 0 q 131 -1 132 0 q 126 -1 128 -1 q 122 -1 125 -1 q 119 -1 121 -1 q 117 -1 118 -1 q 115 -1 115 -1 q 114 -3 114 -1 q 112 -3 113 -3 q 111 -3 111 -3 q 106 -3 108 -3 q 100 -3 103 -3 q 97 -3 99 -3 q 96 -4 96 -3 q 93 -4 94 -4 q 90 -4 92 -4 l 78 14 l 78 14 l 78 14 z "},"8":{"ha":694,"x_min":42,"x_max":644,"o":"m 360 957 q 449 942 407 954 q 529 906 492 929 q 586 842 567 881 q 606 751 606 804 q 594 688 606 717 q 561 633 583 658 q 515 587 539 608 q 464 546 490 565 q 460 543 463 544 q 457 542 458 542 q 453 539 454 540 q 449 536 451 538 q 441 531 444 533 q 435 526 438 529 q 514 485 476 508 q 582 438 551 463 q 629 373 614 411 q 644 283 644 335 q 619 161 644 217 q 544 61 594 106 q 438 -6 494 15 q 317 -28 382 -28 q 211 -12 260 -28 q 122 36 163 4 q 62 116 82 69 q 42 222 42 163 q 56 306 42 267 q 97 379 69 346 q 160 437 125 413 q 233 476 194 461 q 168 522 197 499 q 117 571 139 546 q 84 627 94 596 q 74 697 74 658 q 94 806 74 758 q 158 888 115 854 q 251 938 201 921 q 360 954 301 954 l 360 957 l 360 957 m 394 410 l 283 460 q 218 411 246 436 q 174 358 190 386 q 149 296 157 329 q 140 224 140 263 q 154 138 140 176 q 194 72 168 100 q 259 31 222 44 q 343 17 296 17 q 417 33 383 17 q 478 79 451 49 q 519 145 506 111 q 535 217 533 179 q 535 219 535 218 q 535 221 535 219 q 535 223 535 222 q 535 225 535 224 q 528 276 535 253 q 506 318 521 300 q 475 353 492 338 q 440 381 458 368 q 435 385 438 383 q 429 389 432 386 q 422 392 425 390 q 417 396 419 394 q 406 402 411 399 q 394 407 400 406 l 394 410 l 394 410 m 310 588 l 386 550 q 435 583 413 564 q 475 625 457 603 q 502 676 493 649 q 511 736 511 704 q 500 804 511 774 q 467 858 489 835 q 415 894 444 882 q 346 907 385 907 q 277 897 307 907 q 224 865 247 886 q 190 815 201 844 q 178 747 178 786 q 187 698 178 721 q 214 656 196 675 q 251 622 232 638 q 293 593 271 606 q 298 591 296 592 q 301 589 300 590 q 306 587 304 588 q 310 585 308 586 l 310 588 l 310 588 z "},"9":{"ha":694,"x_min":28,"x_max":635,"o":"m 133 -28 l 86 -4 l 86 7 q 247 65 174 25 q 378 167 319 106 q 467 303 436 228 q 500 469 497 379 l 403 392 q 389 380 397 385 q 372 372 381 375 q 364 369 368 371 q 356 365 360 367 q 346 363 350 364 q 338 360 342 361 q 324 357 331 358 q 310 354 317 356 q 297 353 303 353 q 285 353 290 353 q 175 373 222 353 q 94 435 128 393 q 44 524 61 475 q 28 632 28 574 q 50 756 28 699 q 115 860 72 813 q 216 931 160 907 q 340 954 272 954 q 464 928 410 954 q 557 851 518 903 q 615 733 596 800 q 635 582 635 665 q 605 383 635 476 q 517 206 575 289 q 361 64 457 122 q 133 -28 265 6 l 133 -28 l 133 -28 m 336 440 q 410 453 378 438 q 467 500 443 469 q 502 568 490 532 q 514 644 514 604 q 514 653 514 649 q 514 661 514 657 q 513 670 513 665 q 513 679 513 675 q 510 698 511 689 q 508 717 510 707 q 490 785 503 753 q 457 849 476 818 q 408 893 438 878 q 338 908 378 908 q 338 908 338 908 q 338 908 338 908 q 336 908 336 908 q 336 908 336 908 q 336 908 336 908 q 336 908 336 908 q 335 908 335 908 q 335 908 335 908 q 244 889 281 907 q 188 835 207 871 q 158 760 168 800 q 147 678 147 721 q 147 676 147 676 q 147 675 147 675 q 147 675 147 675 q 147 675 147 675 q 147 674 147 674 q 147 674 147 674 q 147 668 147 671 q 147 663 147 665 q 147 657 147 660 q 149 651 147 654 q 164 574 151 611 q 199 504 176 538 q 256 454 222 471 q 336 438 290 438 l 336 440 l 336 440 z "}," ":{"ha":347,"x_min":0,"x_max":0,"o":""},"!":{"ha":386,"x_min":113,"x_max":274,"o":"m 192 -7 q 161 -2 175 -7 q 136 15 147 3 q 118 42 124 28 q 113 71 113 56 q 118 100 113 86 q 136 126 124 114 q 163 145 149 139 q 192 151 176 151 q 222 145 207 151 q 249 126 236 139 q 267 100 261 114 q 274 71 274 86 q 267 42 274 56 q 249 15 261 28 q 222 -2 236 3 q 192 -7 208 -7 l 192 -7 l 192 -7 m 222 964 l 269 964 l 269 929 q 269 901 269 914 q 267 876 268 889 q 265 851 265 864 q 264 828 264 839 q 262 819 263 824 q 261 811 261 815 q 261 808 261 810 q 261 803 261 806 q 260 799 260 801 q 260 794 260 797 q 258 778 258 786 q 256 761 257 769 q 253 744 254 753 q 253 728 253 736 l 219 344 l 219 310 l 181 278 l 167 285 q 167 290 167 286 q 167 297 167 293 q 167 303 167 300 q 167 310 167 307 q 166 324 167 317 q 164 338 165 331 l 128 764 q 126 779 126 771 q 125 797 125 788 q 123 816 124 807 q 122 835 122 825 q 120 852 121 843 q 119 871 119 861 q 119 880 119 875 q 119 890 119 885 q 118 899 118 894 q 118 908 118 904 l 222 964 l 222 964 l 222 964 z "},"\"":{"ha":515,"x_min":72,"x_max":443,"o":"m 146 651 l 118 651 l 72 924 q 72 922 72 922 q 72 922 72 922 q 72 923 72 922 q 72 925 72 924 q 72 925 72 925 q 72 925 72 925 q 72 926 72 925 q 72 928 72 926 q 72 928 72 928 q 72 929 72 928 q 72 929 72 929 q 72 929 72 929 q 72 930 72 929 q 72 932 72 931 q 78 949 74 940 q 92 965 83 957 q 110 978 100 974 q 132 982 121 982 q 153 977 143 982 q 174 964 164 972 q 188 947 183 956 q 192 926 192 938 q 192 926 192 926 q 192 926 192 926 q 192 925 192 925 q 192 925 192 925 q 192 925 192 925 q 192 925 192 925 q 192 924 192 924 q 192 924 192 924 q 192 922 192 922 q 192 921 192 921 q 192 921 192 921 q 192 921 192 921 l 146 651 l 146 651 l 146 651 m 397 651 l 369 651 l 324 924 q 324 922 324 922 q 324 922 324 922 q 324 923 324 922 q 324 925 324 924 q 324 925 324 925 q 324 925 324 925 q 324 926 324 925 q 324 928 324 926 q 324 928 324 928 q 324 929 324 928 q 324 929 324 929 q 324 929 324 929 q 324 930 324 929 q 324 932 324 931 q 330 949 325 940 q 343 965 335 957 q 362 978 351 974 q 383 982 372 982 q 405 977 394 982 q 425 964 415 972 q 439 947 435 956 q 443 926 443 938 q 443 926 443 926 q 443 926 443 926 q 443 925 443 925 q 443 925 443 925 q 443 925 443 925 q 443 925 443 925 q 443 924 443 924 q 443 924 443 924 q 443 922 443 922 q 443 921 443 921 q 443 921 443 921 q 443 921 443 921 l 397 651 l 397 651 l 397 651 z "},"#":{"ha":694,"x_min":6,"x_max":688,"o":"m 653 389 l 653 311 l 501 311 l 458 0 l 378 0 l 421 311 l 235 311 l 189 0 l 108 0 l 154 311 l 6 311 l 6 389 l 167 389 l 196 582 l 43 582 l 43 660 l 207 660 l 250 950 l 331 950 l 288 660 l 472 660 l 514 950 l 594 950 l 553 660 l 688 660 l 688 582 l 542 582 l 514 389 l 653 389 l 653 389 l 653 389 m 461 582 l 276 582 l 247 389 l 433 389 l 461 582 l 461 582 l 461 582 z "},"$":{"ha":694,"x_min":42,"x_max":654,"o":"m 310 25 l 310 413 q 205 429 253 417 q 118 461 157 442 q 60 524 79 481 q 42 633 42 567 q 60 744 42 694 q 115 832 78 794 q 201 892 153 869 q 310 922 250 914 q 310 928 310 925 q 310 935 310 932 q 308 941 308 938 q 308 947 308 944 q 308 953 308 950 q 308 960 308 956 q 307 965 307 963 q 307 971 307 968 q 305 981 306 976 q 304 992 304 986 q 304 1002 304 997 q 304 1013 304 1007 l 367 1015 q 367 1010 367 1013 q 367 1007 367 1008 q 365 1004 365 1006 q 365 1001 365 1003 q 365 999 365 1000 q 365 997 365 997 q 365 994 365 996 q 365 992 365 993 q 363 976 364 983 q 363 961 363 968 q 363 953 363 957 q 363 944 363 949 q 361 935 361 940 q 361 926 361 931 q 376 924 368 925 q 393 924 385 924 q 401 923 397 924 q 410 922 406 922 q 417 920 413 921 q 425 919 421 919 q 447 916 436 918 q 468 913 457 914 q 489 907 478 910 q 510 901 500 904 q 551 887 531 896 q 592 867 572 878 q 583 828 586 849 q 578 785 581 807 q 575 739 576 763 q 574 692 574 715 l 529 694 l 529 753 q 529 757 529 754 q 529 763 529 760 q 528 769 528 765 q 528 775 528 772 q 527 788 528 782 q 525 800 526 794 q 513 822 522 813 q 489 840 504 832 q 458 855 475 849 q 425 867 442 861 q 408 870 417 869 q 392 872 400 871 q 376 874 383 874 q 361 876 368 875 l 361 518 q 469 498 418 511 q 565 465 521 485 q 632 401 610 446 q 654 286 654 356 q 631 161 654 215 q 564 69 608 107 q 468 8 518 31 q 361 -22 418 -14 q 361 -31 361 -26 q 361 -42 361 -36 q 361 -47 361 -44 q 363 -51 361 -49 q 363 -56 363 -53 q 363 -61 363 -58 q 363 -69 363 -65 q 363 -78 363 -74 q 363 -83 363 -81 q 364 -86 363 -85 q 364 -91 364 -89 q 364 -94 364 -93 q 364 -103 364 -99 q 365 -112 364 -107 q 365 -121 365 -117 q 365 -129 365 -125 q 365 -137 365 -133 q 367 -146 365 -142 q 367 -153 367 -149 q 367 -161 367 -157 l 304 -161 q 306 -133 306 -149 q 307 -100 307 -118 q 308 -63 307 -82 q 310 -25 308 -44 q 263 -22 289 -25 q 206 -14 238 -19 q 142 -1 175 -8 q 76 17 110 6 q 72 19 75 18 q 68 21 69 19 q 63 22 65 21 q 58 24 61 22 q 50 27 54 25 q 42 31 46 29 q 44 44 43 38 q 46 58 44 51 q 47 73 46 65 q 49 88 47 81 q 52 117 51 103 q 54 147 53 132 q 54 158 54 153 q 56 169 54 164 q 56 181 56 175 q 56 192 56 186 q 56 215 56 203 q 58 236 57 226 l 103 239 l 103 150 q 103 145 103 147 q 103 142 103 143 q 103 139 103 140 q 103 136 103 138 q 103 128 103 132 q 103 122 103 125 q 104 116 103 118 q 107 111 106 114 q 127 86 114 97 q 160 64 140 75 q 200 46 179 54 q 243 32 221 38 q 251 30 247 31 q 261 28 256 29 q 269 26 265 26 q 278 25 274 25 q 286 24 282 25 q 294 24 290 24 q 301 22 297 22 q 310 22 306 22 l 310 25 l 310 25 m 361 406 l 361 25 q 430 43 397 26 q 489 90 463 60 q 531 156 517 119 q 544 235 544 192 q 531 310 544 279 q 493 358 518 342 q 434 386 467 375 q 361 403 401 397 l 361 406 l 361 406 m 310 526 l 310 875 q 238 855 268 869 q 186 813 207 840 q 156 753 165 786 q 146 682 146 721 q 156 613 146 642 q 189 565 167 583 q 241 537 211 547 q 310 524 271 526 l 310 526 l 310 526 z "},"%":{"ha":1167,"x_min":54,"x_max":1114,"o":"m 347 -28 l 292 -28 l 800 985 l 856 985 l 347 -28 l 347 -28 l 347 -28 m 901 446 q 984 428 946 443 q 1053 383 1022 413 q 1099 315 1083 353 q 1114 232 1114 278 q 1099 140 1114 182 q 1051 65 1083 99 q 980 16 1021 32 q 888 0 939 0 q 804 14 842 0 q 736 57 767 28 q 690 124 706 86 q 675 208 675 163 q 691 299 675 257 q 738 375 707 340 q 810 426 769 408 q 901 443 850 443 l 901 446 l 901 446 m 897 414 q 851 401 871 411 q 817 371 831 390 q 794 330 803 351 q 782 285 786 308 q 778 268 781 276 q 776 251 776 260 q 775 235 775 243 q 775 219 775 226 q 775 205 775 213 q 775 189 775 197 q 776 172 775 181 q 779 156 778 164 q 790 110 782 132 q 811 68 799 88 q 844 39 824 49 q 890 29 864 29 q 936 39 917 29 q 969 68 956 49 q 992 110 983 88 q 1007 156 1001 132 q 1010 172 1010 164 q 1013 189 1011 181 q 1013 197 1013 193 q 1014 206 1013 201 q 1014 213 1014 208 q 1014 221 1014 217 q 1014 227 1014 224 q 1014 235 1014 231 q 1013 243 1013 239 q 1013 251 1013 247 q 1010 268 1011 260 q 1010 285 1010 276 q 997 330 1006 308 q 976 371 989 351 q 944 401 964 390 q 897 411 925 411 l 897 414 l 897 414 m 281 957 q 363 939 325 954 q 432 894 401 924 q 478 826 463 864 q 493 743 493 789 q 478 651 493 693 q 431 576 463 610 q 359 525 400 542 q 267 508 318 508 q 183 523 221 508 q 115 568 146 538 q 69 635 85 597 q 54 719 54 674 q 70 810 54 768 q 117 886 86 851 q 189 937 149 919 q 281 954 229 954 l 281 957 l 281 957 m 276 925 q 230 912 250 922 q 196 882 210 901 q 174 841 182 863 q 161 796 165 819 q 158 779 160 788 q 156 763 156 771 q 154 746 154 754 q 154 731 154 738 q 154 716 154 724 q 154 700 154 708 q 156 683 154 692 q 158 667 157 675 q 169 621 161 643 q 190 579 178 599 q 223 550 203 560 q 269 540 243 540 q 315 550 296 540 q 349 579 335 560 q 372 621 363 599 q 386 667 381 643 q 390 683 389 675 q 392 700 390 692 q 392 708 392 704 q 393 717 392 713 q 393 724 393 719 q 393 732 393 728 q 393 738 393 735 q 393 746 393 742 q 392 754 392 750 q 392 763 392 758 q 390 779 390 771 q 389 796 389 788 q 376 841 385 819 q 356 882 368 863 q 324 912 343 901 q 276 922 304 922 l 276 925 l 276 925 z "},"&":{"ha":1081,"x_min":60,"x_max":1046,"o":"m 761 538 l 1031 547 q 1026 527 1028 536 q 1021 510 1024 518 q 1018 493 1019 501 q 1015 478 1017 485 q 1015 474 1015 476 q 1015 469 1015 472 q 1014 466 1014 468 q 1014 461 1014 464 q 1014 453 1014 457 q 1014 444 1014 449 q 994 447 1004 446 q 975 450 985 449 q 956 452 965 451 q 936 454 946 453 q 906 456 921 456 q 876 458 892 457 q 848 459 863 458 q 819 461 833 460 q 824 444 822 453 q 825 428 825 436 q 825 419 825 424 q 826 413 825 415 q 826 405 826 408 q 826 397 826 401 q 817 331 826 363 q 792 269 808 299 q 756 212 775 239 q 714 161 736 185 q 744 144 729 153 q 772 128 758 136 q 787 120 779 124 q 803 113 794 117 q 817 106 810 110 q 832 100 825 103 q 862 89 847 94 q 890 81 876 83 q 920 75 906 76 q 949 74 935 74 q 967 75 958 74 q 982 78 975 76 q 997 83 989 81 q 1011 88 1004 85 q 1017 90 1014 89 q 1024 93 1021 92 q 1026 95 1025 94 q 1031 97 1028 96 q 1034 98 1032 97 q 1038 100 1036 99 l 1046 68 l 925 -19 q 917 -24 921 -22 q 907 -26 913 -25 q 901 -26 904 -26 q 897 -28 899 -26 q 892 -28 894 -28 q 886 -28 889 -28 q 883 -28 885 -28 q 881 -28 882 -28 q 878 -28 879 -28 q 876 -28 878 -28 q 874 -28 875 -28 q 872 -28 874 -28 q 870 -28 871 -28 q 869 -28 869 -28 q 846 -25 860 -28 q 817 -18 832 -22 q 800 -12 808 -15 q 785 -7 792 -10 q 768 -2 776 -4 q 751 3 760 0 q 726 15 739 8 q 703 26 714 21 q 680 40 690 33 q 660 51 669 46 q 650 57 654 54 q 642 64 646 60 q 633 70 638 67 q 626 76 629 74 q 565 34 597 53 q 497 0 533 15 q 425 -21 463 -14 q 350 -28 388 -28 q 231 -9 283 -28 q 138 47 178 10 q 79 133 99 85 q 60 238 60 181 q 76 334 60 290 q 124 414 92 378 q 194 481 156 450 q 275 535 232 511 q 268 551 271 543 q 263 568 265 560 q 257 585 260 576 q 251 601 254 593 q 244 631 247 617 q 238 660 240 646 q 235 688 236 675 q 233 715 233 701 q 235 755 233 736 q 240 790 236 774 q 251 819 244 807 q 267 839 257 831 l 361 925 q 377 934 368 929 q 396 944 386 939 q 422 951 407 949 q 457 954 438 954 q 511 946 488 954 q 553 921 535 938 q 580 881 571 904 q 589 826 589 858 q 576 756 589 789 q 540 690 564 722 q 490 633 517 660 q 435 582 464 606 q 429 578 432 581 q 424 574 426 576 q 417 570 419 572 q 411 565 414 568 q 400 557 406 561 q 389 549 394 553 q 451 453 418 500 q 519 363 485 407 q 594 276 556 319 q 672 193 632 233 q 675 196 674 194 q 678 200 676 197 q 679 203 678 201 q 682 206 681 204 q 687 212 685 208 q 692 219 689 215 q 712 251 703 235 q 726 282 721 267 q 736 313 733 297 q 739 343 739 329 q 739 343 739 343 q 739 344 739 343 q 739 344 739 344 q 739 344 739 344 q 739 345 739 344 q 739 347 739 346 q 736 385 739 367 q 729 421 733 404 q 719 447 724 438 q 707 460 714 457 q 688 465 700 463 q 657 468 675 467 q 638 470 647 469 q 619 472 629 471 q 600 473 610 472 q 581 475 590 474 l 626 540 q 654 536 640 538 q 682 535 668 535 q 710 535 696 535 q 738 535 724 535 q 743 535 740 535 q 749 535 746 535 q 755 535 751 535 q 761 535 758 535 l 761 538 l 761 538 m 296 489 q 248 445 269 467 q 211 400 226 424 q 188 349 196 378 q 181 285 181 319 q 197 197 181 238 q 249 119 214 156 q 324 65 283 83 q 413 47 365 47 q 421 47 417 47 q 431 47 425 47 q 435 47 433 47 q 440 49 438 47 q 444 49 442 49 q 449 50 447 50 q 484 59 467 53 q 519 74 501 65 q 553 92 538 82 q 583 111 569 101 q 505 200 544 156 q 428 290 465 244 q 357 385 390 336 q 296 486 324 435 l 296 489 l 296 489 m 421 883 q 371 871 390 881 q 344 842 351 861 q 334 803 338 824 q 331 758 331 782 q 331 741 331 750 q 333 721 332 732 q 338 701 336 711 q 343 679 340 690 q 346 665 344 672 q 349 651 347 658 q 353 640 351 646 q 357 626 356 633 q 359 618 358 622 q 361 610 360 614 q 364 602 363 606 q 367 596 365 599 q 375 601 371 599 q 385 608 379 604 q 394 617 389 613 q 404 625 399 621 q 415 636 410 631 q 426 647 421 642 q 436 659 431 653 q 447 672 442 665 q 467 698 458 685 q 481 725 475 711 q 487 740 483 732 q 492 754 490 747 q 495 769 494 761 q 496 783 496 776 q 496 786 496 785 q 496 789 496 788 q 494 792 494 790 q 494 794 494 793 q 494 797 494 796 q 494 800 494 799 q 493 803 493 801 q 493 806 493 804 q 485 832 492 819 q 469 857 479 844 q 448 874 460 868 q 421 881 436 881 l 421 883 l 421 883 z "},"'":{"ha":289,"x_min":85,"x_max":204,"o":"m 158 651 l 131 651 l 85 924 q 85 922 85 922 q 85 922 85 922 q 85 923 85 922 q 85 925 85 924 q 85 925 85 925 q 85 925 85 925 q 85 926 85 925 q 85 928 85 926 q 85 928 85 928 q 85 929 85 928 q 85 929 85 929 q 85 929 85 929 q 85 930 85 929 q 85 932 85 931 q 91 949 86 940 q 104 965 96 957 q 123 978 113 974 q 144 982 133 982 q 166 977 156 982 q 186 964 176 972 q 200 947 196 956 q 204 926 204 938 q 204 926 204 926 q 204 926 204 926 q 204 925 204 925 q 204 925 204 925 q 204 925 204 925 q 204 925 204 925 q 204 924 204 924 q 204 924 204 924 q 204 922 204 922 q 204 921 204 921 q 204 921 204 921 q 204 921 204 921 l 158 651 l 158 651 l 158 651 z "},"(":{"ha":463,"x_min":83,"x_max":418,"o":"m 418 -269 l 392 -299 q 256 -157 314 -232 q 160 1 197 -82 q 102 179 121 88 q 83 368 83 271 q 103 549 83 463 q 161 717 122 636 q 258 870 200 799 q 392 1006 315 942 l 418 972 q 316 835 358 906 q 250 690 274 765 q 215 535 226 615 q 203 368 203 454 q 215 195 203 281 q 250 28 226 110 q 316 -128 274 -53 q 418 -269 358 -203 l 418 -269 l 418 -269 z "},")":{"ha":463,"x_min":44,"x_max":379,"o":"m 71 -299 l 44 -269 q 147 -128 106 -203 q 213 28 189 -53 q 248 195 236 110 q 260 368 260 281 q 248 535 260 454 q 213 690 236 615 q 147 835 189 765 q 44 969 106 906 l 71 1008 q 205 871 147 943 q 301 717 263 799 q 360 549 340 636 q 379 368 379 463 q 360 179 379 271 q 303 1 340 88 q 206 -157 264 -82 q 71 -299 149 -232 l 71 -299 l 71 -299 z "},"*":{"ha":540,"x_min":44,"x_max":499,"o":"m 233 714 l 51 803 l 47 817 l 108 889 l 122 889 l 254 753 l 290 951 l 303 957 l 389 931 l 393 910 l 297 736 l 490 769 l 499 764 l 499 678 l 486 667 l 294 694 l 389 525 l 389 511 l 294 475 l 281 481 l 256 678 l 108 556 l 94 556 l 44 626 l 51 639 l 233 714 l 233 714 l 233 714 z "},"+":{"ha":842,"x_min":71,"x_max":771,"o":"m 382 401 l 382 711 l 460 711 l 460 401 l 771 401 l 771 324 l 460 324 l 460 10 l 382 10 l 382 324 l 71 324 l 71 401 l 382 401 l 382 401 l 382 401 z "},",":{"ha":347,"x_min":22,"x_max":303,"o":"m 283 171 l 303 151 q 264 58 286 103 q 214 -26 242 13 q 158 -109 188 -68 q 99 -189 129 -150 l 42 -215 l 22 -200 q 66 -123 46 -162 q 104 -43 86 -83 q 133 40 122 -3 q 147 126 143 82 q 169 132 158 129 q 189 138 179 135 q 199 140 194 139 q 210 143 204 142 q 219 147 214 144 q 229 150 224 149 q 235 152 232 151 q 243 154 239 153 q 249 156 246 156 q 256 158 253 157 q 262 161 258 160 q 269 164 265 163 q 276 165 272 164 q 283 168 279 167 l 283 171 l 283 171 z "},"-":{"ha":463,"x_min":24,"x_max":433,"o":"m 392 299 l 31 299 l 24 306 l 61 399 l 426 399 l 433 392 l 392 299 l 392 299 l 392 299 z "},".":{"ha":347,"x_min":93,"x_max":254,"o":"m 172 -7 q 142 -2 156 -7 q 117 15 128 3 q 99 42 104 28 q 93 71 93 56 q 99 100 93 86 q 117 126 104 114 q 143 145 129 139 q 172 151 157 151 q 202 145 188 151 q 229 126 217 139 q 248 100 242 114 q 254 71 254 86 q 248 42 254 56 q 229 15 242 28 q 203 -2 217 3 q 172 -7 189 -7 l 172 -7 l 172 -7 z "},"/":{"ha":842,"x_min":121,"x_max":721,"o":"m 721 1008 l 204 -165 l 121 -165 l 638 1008 l 721 1008 l 721 1008 l 721 1008 z "},":":{"ha":347,"x_min":92,"x_max":253,"o":"m 171 -7 q 140 -2 154 -7 q 115 15 126 3 q 97 42 103 28 q 92 71 92 56 q 97 100 92 86 q 115 126 103 114 q 142 145 128 139 q 171 151 156 151 q 201 145 186 151 q 228 126 215 139 q 247 100 240 114 q 253 71 253 86 q 247 42 253 56 q 228 15 240 28 q 201 -2 215 3 q 171 -7 188 -7 l 171 -7 l 171 -7 m 171 472 q 140 476 154 469 q 115 494 126 482 q 97 521 103 507 q 92 550 92 535 q 97 579 92 565 q 115 606 103 593 q 142 624 128 618 q 171 631 156 631 q 201 624 186 631 q 228 606 215 618 q 247 579 240 593 q 253 550 253 565 q 247 521 253 535 q 228 494 240 507 q 201 476 215 482 q 171 469 188 469 l 171 472 l 171 472 z "},";":{"ha":347,"x_min":22,"x_max":303,"o":"m 283 174 l 303 154 q 264 60 286 106 q 214 -24 242 15 q 158 -106 188 -65 q 99 -186 129 -147 l 42 -212 l 22 -197 q 66 -120 46 -160 q 104 -40 86 -81 q 133 42 122 0 q 147 129 143 85 q 169 135 158 132 q 189 140 179 138 q 199 143 194 142 q 210 146 204 144 q 219 149 214 147 q 229 153 224 151 q 235 155 232 154 q 243 157 239 156 q 249 159 246 158 q 256 161 253 160 q 262 164 258 163 q 269 167 265 165 q 276 168 272 167 q 283 171 279 169 l 283 174 l 283 174 m 208 472 q 178 476 192 469 q 153 494 164 482 q 135 521 140 507 q 129 550 129 535 q 135 579 129 565 q 153 606 140 593 q 179 624 165 618 q 208 631 193 631 q 238 624 224 631 q 265 606 253 618 q 284 579 278 593 q 290 550 290 565 q 284 521 290 535 q 265 494 278 507 q 239 476 253 482 q 208 469 225 469 l 208 472 l 208 472 z "},"<":{"ha":842,"x_min":79,"x_max":775,"o":"m 775 83 l 775 0 l 79 325 l 79 400 l 775 725 l 775 642 l 175 360 l 775 83 l 775 83 l 775 83 z "},"=":{"ha":842,"x_min":71,"x_max":771,"o":"m 771 267 l 771 189 l 71 189 l 71 267 l 771 267 l 771 267 l 771 267 m 771 536 l 771 458 l 71 458 l 71 536 l 771 536 l 771 536 l 771 536 z "},">":{"ha":842,"x_min":67,"x_max":763,"o":"m 67 83 l 667 360 l 67 642 l 67 725 l 763 400 l 763 325 l 67 0 l 67 83 l 67 83 l 67 83 z "},"?":{"ha":617,"x_min":60,"x_max":549,"o":"m 275 -7 q 244 -2 258 -7 q 219 15 231 3 q 201 42 207 28 q 196 71 196 56 q 201 100 196 86 q 219 126 207 114 q 246 145 232 139 q 275 151 260 151 q 305 145 290 151 q 332 126 319 139 q 351 100 344 114 q 357 71 357 86 q 351 42 357 56 q 332 15 344 28 q 306 -2 319 3 q 275 -7 292 -7 l 275 -7 l 275 -7 m 60 758 l 113 915 q 127 920 119 917 q 143 928 135 924 q 160 934 151 931 q 178 940 169 938 q 214 952 196 947 q 250 958 232 957 q 255 958 253 958 q 260 960 257 958 q 264 960 261 960 q 268 960 267 960 q 273 960 271 960 q 278 961 275 960 q 282 961 279 961 q 286 961 285 961 q 383 947 338 961 q 468 906 429 933 q 528 838 508 879 q 549 744 549 797 q 538 678 549 710 q 504 619 526 647 q 458 567 482 593 q 407 517 433 540 q 375 488 390 503 q 344 461 360 474 q 318 434 331 447 q 294 408 306 421 q 282 390 288 399 q 272 372 276 381 q 267 353 268 363 q 265 336 265 344 q 267 317 265 326 q 272 301 268 308 q 281 288 276 294 q 290 275 285 282 q 291 273 290 274 q 293 271 292 272 q 294 269 293 269 q 296 268 294 268 l 267 251 q 242 267 253 257 q 222 292 231 278 q 210 320 214 306 q 206 350 206 335 q 211 387 206 369 q 228 422 217 404 q 252 458 239 440 q 281 493 265 475 q 287 499 283 496 q 294 507 290 503 q 301 515 297 511 q 308 524 304 519 q 308 524 308 524 q 310 525 308 524 q 310 525 310 525 q 310 525 310 525 q 310 526 310 525 q 313 528 311 526 q 351 573 332 550 q 386 618 369 596 q 411 666 403 642 q 419 717 419 690 q 408 776 419 749 q 372 825 396 803 q 320 858 350 847 q 254 869 290 869 q 212 866 232 869 q 175 856 192 863 q 147 838 158 850 q 128 811 135 826 l 100 747 l 60 758 l 60 758 l 60 758 z "},"@":{"ha":1038,"x_min":33,"x_max":1006,"o":"m 914 238 l 999 238 q 921 128 967 176 q 814 43 875 79 q 690 -10 754 8 q 556 -28 625 -28 q 357 5 449 -28 q 188 106 265 38 q 72 260 111 172 q 33 454 33 347 q 70 651 33 561 q 179 814 107 740 q 344 924 253 888 q 544 961 435 961 q 712 934 632 961 q 863 854 792 907 q 969 728 933 800 q 1006 565 1006 656 q 986 440 1006 499 q 926 331 967 382 q 844 246 888 279 q 754 196 801 213 q 735 191 744 193 q 718 186 726 189 q 699 184 708 185 q 682 183 690 183 q 636 192 656 183 q 604 219 617 201 q 585 258 592 239 q 576 300 578 278 q 573 294 575 297 q 569 290 571 292 q 565 285 567 288 q 561 281 564 283 q 553 272 557 276 q 547 265 550 268 q 517 235 533 249 q 486 211 501 222 q 450 196 469 201 q 407 190 431 190 q 333 205 367 190 q 274 249 300 219 q 234 313 247 278 q 221 392 221 349 q 221 398 221 394 q 221 404 221 401 q 221 410 221 407 q 222 418 221 414 q 253 520 228 471 q 321 614 278 569 q 415 681 365 658 q 521 704 465 704 q 568 697 547 704 q 604 675 589 690 q 629 642 619 661 q 643 599 639 622 l 646 601 l 669 693 l 792 693 l 685 306 q 683 297 683 300 q 682 290 682 293 q 681 284 681 288 q 681 278 681 281 q 680 276 681 276 q 679 275 679 275 q 679 273 679 274 q 679 271 679 272 q 679 268 679 269 q 679 265 679 267 q 681 250 679 257 q 686 236 682 243 q 698 227 690 231 q 717 224 706 224 q 734 226 725 224 q 753 232 743 228 q 774 242 764 236 q 794 257 785 249 q 843 307 819 276 q 889 378 867 338 q 921 465 910 418 q 932 563 932 511 q 906 685 932 628 q 828 792 881 742 q 708 867 776 842 q 554 892 640 892 q 381 862 460 892 q 238 772 301 832 q 142 635 174 713 q 110 464 110 558 q 142 292 110 369 q 240 157 175 215 q 386 68 306 97 q 563 39 467 39 q 668 52 618 39 q 764 92 718 65 q 846 155 808 119 q 914 235 883 190 l 914 238 l 914 238 m 429 231 q 481 242 457 228 q 526 286 506 257 q 562 347 546 315 q 590 414 578 379 q 602 456 597 435 q 611 497 607 476 q 616 533 614 517 q 618 564 618 550 q 618 567 618 565 q 618 571 618 569 q 617 576 617 574 q 617 579 617 578 q 616 588 617 583 q 614 596 615 592 q 606 621 611 608 q 592 644 600 633 q 572 661 583 656 q 544 667 560 667 q 490 652 515 667 q 442 610 464 638 q 402 551 419 582 q 372 486 385 519 q 360 448 365 467 q 351 411 354 429 q 346 378 347 393 q 344 350 344 363 q 344 342 344 346 q 344 333 344 338 q 344 330 344 332 q 346 326 344 328 q 347 322 346 324 q 347 318 347 321 q 356 286 350 301 q 371 256 361 271 q 395 235 381 242 q 429 228 410 228 l 429 231 l 429 231 z "},"A":{"ha":1081,"x_min":21,"x_max":1050,"o":"m 567 972 l 903 183 q 906 176 904 179 q 908 169 907 172 q 911 162 910 165 q 914 156 913 158 q 919 144 917 150 q 925 131 922 138 q 931 119 928 125 q 936 107 933 113 q 942 96 939 101 q 947 86 944 90 q 959 69 953 76 q 971 54 965 61 q 985 44 978 49 q 1003 39 993 40 l 1050 38 l 1050 -4 q 1042 -4 1046 -4 q 1035 -4 1038 -4 q 1027 -3 1031 -3 q 1019 -3 1024 -3 q 1003 -3 1011 -3 q 989 -3 996 -3 q 958 -1 974 -1 q 928 0 943 0 q 897 0 913 0 q 865 0 881 0 q 840 0 853 0 q 813 0 828 0 q 783 -1 799 0 q 751 -3 767 -1 q 743 -3 747 -3 q 735 -3 739 -3 q 725 -3 729 -3 q 717 -3 721 -3 q 708 -3 713 -3 q 699 -4 704 -3 q 690 -4 694 -4 q 681 -4 685 -4 l 681 38 l 746 42 q 767 42 757 40 q 785 47 776 43 q 798 56 793 50 q 803 67 803 61 q 801 81 803 74 q 796 99 799 89 q 788 120 792 110 q 779 142 783 131 q 779 142 779 142 q 779 143 779 142 q 778 144 778 143 q 778 144 778 144 q 778 145 778 144 q 778 147 778 146 q 776 149 776 147 q 775 151 775 150 q 775 152 775 151 q 775 154 775 153 q 774 155 774 154 q 774 156 774 156 l 710 318 l 310 318 l 271 225 q 268 218 269 221 q 267 213 267 215 q 264 206 265 210 q 261 199 263 203 q 258 190 260 194 q 256 183 257 186 q 251 175 253 179 q 249 167 250 171 q 247 163 247 165 q 246 158 246 161 q 245 156 246 157 q 244 156 244 156 q 243 153 243 154 q 243 151 243 153 q 235 129 239 140 q 228 107 231 118 q 224 90 225 97 q 222 78 222 82 q 226 59 222 67 q 239 49 231 51 q 260 42 247 44 q 289 39 272 40 l 340 38 l 340 -4 q 332 -4 336 -4 q 324 -4 328 -4 q 316 -3 319 -3 q 308 -3 313 -3 q 292 -3 300 -3 q 278 -3 285 -3 q 251 -1 264 -1 q 225 0 238 0 q 202 0 213 0 q 181 0 192 0 q 153 0 167 0 q 126 0 140 0 q 99 -1 113 0 q 74 -3 86 -1 q 67 -3 71 -3 q 61 -3 64 -3 q 53 -3 57 -3 q 47 -3 50 -3 q 41 -3 44 -3 q 35 -4 38 -3 q 27 -4 31 -4 q 21 -4 24 -4 l 21 38 l 72 42 q 96 46 85 40 q 117 61 107 51 q 134 82 126 71 q 147 107 142 93 l 394 672 q 403 692 399 682 q 414 714 408 703 q 423 736 418 725 q 433 758 428 747 q 447 786 440 772 q 458 814 453 800 q 464 828 461 821 q 471 842 467 835 q 476 856 474 849 q 482 869 479 863 q 492 894 488 882 q 503 919 497 907 q 512 944 507 932 q 522 969 517 957 l 567 972 l 567 972 l 567 972 m 333 374 l 685 374 l 510 788 l 333 374 l 333 374 l 333 374 z "},"B":{"ha":849,"x_min":36,"x_max":800,"o":"m 157 132 l 157 790 q 156 824 157 808 q 154 854 156 840 q 150 876 153 867 q 144 892 147 886 q 137 901 142 897 q 125 907 132 906 q 108 910 118 910 q 86 913 99 911 l 36 919 l 36 961 q 41 958 39 958 q 44 958 43 958 q 49 958 47 958 q 53 958 51 958 q 60 958 57 958 q 68 958 64 958 q 74 957 71 957 q 82 957 78 957 q 97 957 89 957 q 113 957 104 957 q 147 955 131 956 q 181 954 164 954 q 211 954 197 954 q 236 954 225 954 q 241 954 239 954 q 244 954 243 954 q 250 954 247 954 q 256 954 253 954 q 290 954 272 954 q 326 954 308 954 q 365 955 346 954 q 404 957 383 956 q 427 957 415 957 q 451 957 439 957 q 465 957 458 957 q 476 958 471 957 q 490 958 483 958 q 504 958 497 958 q 505 958 504 958 q 507 958 506 958 q 508 958 507 958 q 510 958 508 958 q 510 958 510 958 q 513 958 511 958 q 513 958 513 958 q 515 958 514 958 q 604 947 563 958 q 681 915 646 936 q 735 857 717 894 q 753 767 753 819 q 735 683 753 721 q 683 617 718 646 q 611 569 649 588 q 532 542 574 550 q 530 542 531 542 q 529 542 529 542 q 527 540 528 540 q 526 540 526 540 q 524 540 525 540 q 521 540 522 540 l 521 540 q 622 524 574 538 q 714 485 671 510 q 778 417 757 460 q 800 313 800 374 q 799 290 800 301 q 796 265 799 278 q 792 241 794 253 q 785 218 789 229 q 742 137 771 175 q 668 63 713 99 q 560 12 625 28 q 411 -4 496 -4 q 406 -4 408 -4 q 401 -4 404 -4 q 398 -4 400 -4 q 393 -4 396 -4 q 387 -4 390 -4 q 381 -4 383 -4 q 373 -3 376 -3 q 367 -3 369 -3 q 355 -3 361 -3 q 342 -3 349 -3 q 317 -1 329 -1 q 292 0 304 0 q 267 0 279 0 q 242 0 254 0 q 229 0 236 0 q 217 0 222 0 q 203 0 210 0 q 190 0 197 0 q 165 -1 178 0 q 140 -3 153 -1 q 128 -3 135 -3 q 115 -3 122 -3 q 109 -3 113 -3 q 103 -4 106 -3 q 97 -4 100 -4 q 90 -4 93 -4 l 90 28 l 126 42 q 140 50 135 43 q 149 67 146 57 q 153 89 151 78 q 157 113 156 100 q 157 117 157 115 q 157 121 157 119 q 157 126 157 124 q 157 129 157 128 l 157 132 l 157 132 m 289 503 l 289 65 q 298 60 293 63 q 308 58 303 58 q 317 56 313 57 q 328 56 322 56 q 347 53 338 54 q 367 51 357 51 q 387 51 378 51 q 406 51 396 51 q 508 67 463 51 q 589 114 554 83 q 640 190 622 146 q 657 289 657 233 q 640 387 657 346 q 586 453 622 428 q 500 490 551 478 q 382 503 449 503 q 368 503 375 503 q 354 503 361 503 q 342 501 347 501 q 331 501 336 501 q 319 501 325 501 q 308 501 314 501 q 299 500 304 500 q 289 500 293 500 l 289 503 l 289 503 m 289 894 l 289 557 q 309 553 299 554 q 332 551 319 551 q 358 551 344 551 q 388 551 372 551 q 472 562 432 551 q 546 593 511 572 q 598 651 581 614 q 615 739 615 688 q 600 822 615 789 q 554 871 585 854 q 487 894 524 886 q 406 903 450 903 q 397 903 401 903 q 386 903 392 903 q 377 901 382 901 q 367 901 372 901 q 347 901 357 901 q 328 899 338 900 q 317 897 322 897 q 308 896 313 896 q 298 894 303 894 q 289 892 293 893 l 289 894 l 289 894 z "},"C":{"ha":985,"x_min":31,"x_max":931,"o":"m 931 117 l 892 47 q 857 27 875 36 q 818 11 839 18 q 798 6 808 8 q 778 0 788 3 q 757 -4 767 -1 q 736 -10 747 -7 q 696 -17 715 -14 q 657 -22 676 -21 q 622 -26 639 -25 q 589 -28 604 -28 q 363 5 464 -28 q 185 104 263 38 q 69 264 108 171 q 31 475 31 357 q 42 588 31 535 q 75 689 53 642 q 128 776 97 736 q 200 849 160 815 q 284 906 239 881 q 381 947 329 931 q 488 973 433 964 q 601 982 543 982 q 675 979 639 982 q 746 969 711 976 q 813 956 782 964 q 869 942 843 949 q 884 938 876 940 q 897 933 892 936 q 910 930 904 932 q 922 925 917 928 q 914 883 918 904 q 906 838 910 861 q 902 815 904 826 q 900 792 900 803 q 898 767 899 779 q 897 744 897 756 q 897 741 897 743 q 896 738 896 739 q 896 733 896 735 q 896 729 896 732 q 896 726 896 728 q 896 722 896 724 q 896 718 896 719 q 896 714 896 717 l 853 717 l 853 817 q 844 841 853 829 q 817 863 835 853 q 778 881 799 872 q 733 900 757 890 q 710 906 722 903 q 686 913 699 910 q 674 915 681 914 q 661 917 667 915 q 648 919 654 918 q 635 921 642 919 q 626 921 631 921 q 619 922 622 921 q 612 922 615 922 q 606 922 608 922 q 598 922 601 922 q 592 924 594 922 q 584 924 588 924 q 578 924 581 924 q 406 892 481 924 q 281 799 331 861 q 204 661 229 736 q 179 497 179 586 q 210 312 179 394 q 304 168 242 229 q 450 75 367 106 q 636 44 533 44 q 656 44 646 44 q 675 46 665 44 q 694 48 685 46 q 714 51 704 50 q 772 63 743 56 q 826 81 800 71 q 877 103 854 92 q 918 128 900 114 l 931 117 l 931 117 l 931 117 z "},"D":{"ha":1075,"x_min":31,"x_max":1043,"o":"m 157 132 l 157 790 q 156 824 157 808 q 154 854 156 840 q 150 876 153 867 q 144 892 147 886 q 137 901 142 897 q 125 907 132 906 q 108 910 118 910 q 86 913 99 911 l 31 919 l 31 961 q 53 958 42 958 q 76 957 65 957 q 99 957 88 957 q 122 957 111 957 q 131 957 126 957 q 140 957 135 957 q 149 956 144 956 q 158 956 154 956 q 176 956 167 956 q 194 956 185 956 q 222 954 208 954 q 249 954 235 954 q 276 954 263 954 q 304 954 290 954 q 349 954 328 954 q 393 954 371 954 q 436 955 415 954 q 476 957 457 956 q 495 957 486 957 q 513 957 504 957 q 521 957 517 957 q 529 958 525 957 q 538 958 533 958 q 546 958 542 958 q 548 958 547 958 q 550 958 549 958 q 553 958 551 958 q 556 958 554 958 q 558 958 557 958 q 560 958 558 958 q 563 958 561 958 q 565 958 564 958 q 753 931 668 958 q 907 846 839 903 q 1009 712 975 790 q 1043 535 1043 633 q 1022 373 1043 450 q 957 229 1000 296 q 860 115 914 161 q 744 42 807 68 q 683 21 714 29 q 619 6 651 13 q 549 -2 586 0 q 471 -4 513 -4 q 465 -4 468 -4 q 460 -4 463 -4 q 453 -4 457 -4 q 447 -4 450 -4 q 440 -4 443 -4 q 433 -4 436 -4 q 426 -3 429 -3 q 418 -3 422 -3 q 404 -3 411 -3 q 390 -3 397 -3 q 376 -2 383 -3 q 361 -1 368 -1 q 345 0 353 0 q 331 0 338 0 q 299 0 315 0 q 268 0 283 0 q 263 0 265 0 q 257 0 260 0 q 250 0 253 0 q 244 0 247 0 q 239 0 242 0 q 233 0 236 0 q 226 0 229 0 q 221 0 224 0 q 210 0 215 0 q 201 -1 206 0 q 191 -1 196 -1 q 182 -1 186 -1 q 163 -1 172 -1 q 143 -3 153 -1 q 135 -3 139 -3 q 128 -3 131 -3 q 119 -3 124 -3 q 111 -3 115 -3 q 103 -3 107 -3 q 96 -4 99 -3 q 88 -4 92 -4 q 79 -4 83 -4 l 79 28 l 122 50 q 138 60 131 53 q 149 79 144 68 q 155 103 153 90 q 157 129 157 115 l 157 132 l 157 132 m 289 894 l 289 68 q 307 62 297 64 q 329 58 317 60 q 353 56 340 57 q 378 56 365 56 q 395 54 386 54 q 414 54 404 54 q 431 54 422 54 q 447 54 439 54 q 486 55 467 54 q 526 57 506 56 q 568 62 547 58 q 611 71 589 65 q 626 76 618 74 q 642 82 633 79 q 650 85 646 83 q 658 88 654 86 q 665 91 661 89 q 674 94 669 93 q 773 160 731 121 q 842 251 815 200 q 881 365 868 304 q 894 496 894 425 q 862 708 894 625 q 764 828 829 790 q 621 884 700 865 q 447 903 542 903 q 431 903 439 903 q 414 903 422 903 q 405 903 410 903 q 396 903 400 903 q 386 901 390 901 q 378 901 382 901 q 353 899 365 900 q 329 897 340 899 q 307 895 317 896 q 289 892 297 894 l 289 894 l 289 894 z "},"E":{"ha":849,"x_min":31,"x_max":794,"o":"m 168 167 l 168 790 q 167 824 168 808 q 165 854 167 840 q 161 876 164 867 q 156 892 158 886 q 148 901 153 897 q 136 907 143 906 q 119 910 129 910 q 97 913 110 911 l 31 919 l 31 961 q 50 958 40 958 q 69 957 60 957 q 89 957 79 957 q 108 957 99 957 q 147 955 128 956 q 186 954 167 954 q 226 954 206 954 q 265 954 246 954 q 276 954 271 954 q 288 954 282 954 q 293 954 290 954 q 300 954 296 954 q 306 954 303 954 q 311 954 308 954 q 344 954 328 954 q 378 954 361 954 q 411 955 394 954 q 444 957 428 956 q 486 957 465 957 q 525 957 507 957 q 544 957 535 957 q 561 958 553 957 q 578 958 569 958 q 593 958 586 958 q 616 958 604 958 q 640 958 628 958 q 663 957 651 957 q 686 957 675 957 q 731 956 710 957 q 772 954 751 956 q 765 921 768 938 q 758 886 761 904 q 756 867 757 876 q 754 850 756 858 q 753 831 754 840 q 753 813 753 822 q 751 794 751 803 q 750 776 750 785 q 750 760 750 768 q 750 743 750 751 l 701 746 l 701 836 q 701 847 701 842 q 699 857 700 851 q 695 866 697 863 q 689 871 693 869 q 651 883 671 878 q 610 890 632 888 q 588 892 599 892 q 565 894 576 893 q 542 897 553 896 q 519 899 531 897 q 506 899 513 899 q 493 900 499 899 q 480 900 486 900 q 467 900 474 900 q 442 900 454 900 q 417 900 429 900 q 408 900 413 900 q 397 900 403 900 q 388 899 393 899 q 378 899 383 899 q 358 898 368 899 q 339 896 349 897 q 328 894 333 894 q 319 893 324 893 q 309 891 314 892 q 300 889 304 890 l 300 521 q 335 517 317 518 q 372 515 353 515 q 414 514 392 514 q 461 514 436 514 q 518 515 493 514 q 561 518 543 517 q 591 523 579 521 q 608 529 603 525 q 613 535 611 532 q 615 542 614 538 q 617 552 617 546 q 619 565 618 558 l 626 640 l 668 640 q 668 631 668 635 q 668 624 668 626 q 667 616 667 619 q 667 610 667 613 q 667 596 667 603 q 667 582 667 589 q 665 554 665 568 q 664 528 664 540 q 664 515 664 522 q 664 503 664 508 q 664 490 664 496 q 664 476 664 483 q 664 470 664 474 q 664 464 664 467 q 664 456 664 460 q 664 450 664 453 q 664 438 664 444 q 665 425 664 432 q 665 412 665 418 q 665 399 665 406 q 665 387 665 393 q 667 374 665 381 q 667 360 667 367 q 667 347 667 354 q 667 341 667 344 q 668 335 667 338 q 668 328 668 332 q 668 322 668 325 l 626 325 l 619 407 q 617 417 618 413 q 615 426 617 422 q 613 434 614 431 q 608 439 611 438 q 591 447 603 443 q 561 451 579 450 q 518 455 543 454 q 461 456 493 456 q 437 456 449 456 q 414 456 425 456 q 391 454 401 454 q 371 454 381 454 q 333 453 351 454 q 300 451 315 453 l 300 65 q 309 60 304 63 q 319 58 314 58 q 328 56 324 57 q 339 56 333 56 q 358 53 349 54 q 378 51 368 51 q 398 51 389 51 q 417 51 407 51 q 433 51 425 51 q 450 51 442 51 q 467 51 458 51 q 485 51 475 51 q 555 53 521 51 q 619 57 589 56 q 670 63 651 60 q 697 69 689 65 q 712 86 704 74 q 725 119 719 99 q 737 167 732 140 q 746 225 742 194 l 794 228 q 788 192 790 210 q 782 156 785 175 q 780 137 781 146 q 778 119 779 128 q 776 101 776 110 q 775 82 775 92 q 774 71 775 76 q 774 61 774 65 q 772 50 772 56 q 772 39 772 44 q 772 19 772 29 q 772 0 772 8 q 756 0 764 0 q 738 0 747 0 q 728 0 733 0 q 718 -1 724 0 q 708 -1 713 -1 q 697 -1 703 -1 q 678 -1 688 -1 q 660 -3 669 -1 q 640 -3 650 -3 q 619 -3 631 -3 q 599 -3 610 -3 q 579 -4 589 -3 q 558 -4 568 -4 q 538 -4 549 -4 q 527 -4 532 -4 q 518 -4 522 -4 q 508 -4 513 -4 q 499 -4 503 -4 q 492 -4 496 -4 q 486 -4 489 -4 q 478 -4 482 -4 q 472 -4 475 -4 q 460 -4 467 -4 q 447 -4 454 -4 q 433 -3 440 -3 q 419 -3 426 -3 q 408 -3 414 -3 q 394 -3 401 -3 q 388 -3 392 -3 q 382 -3 385 -3 q 376 -3 379 -3 q 369 -3 372 -3 q 324 -1 347 -1 q 279 0 301 0 q 236 0 257 0 q 196 0 215 0 q 171 0 183 0 q 147 0 158 0 q 125 -1 136 0 q 103 -3 114 -1 q 101 -3 101 -3 q 99 -3 100 -3 q 97 -3 97 -3 q 96 -3 96 -3 q 90 -3 93 -3 q 85 -3 88 -3 q 78 -3 81 -3 q 72 -3 75 -3 q 66 -3 69 -3 q 60 -4 63 -3 q 53 -4 57 -4 q 47 -4 50 -4 l 47 38 l 97 42 q 119 42 110 40 q 136 46 129 44 q 148 51 143 49 q 156 60 153 54 q 161 74 158 65 q 165 97 164 83 q 167 128 167 111 q 168 164 168 144 l 168 167 l 168 167 z "},"F":{"ha":772,"x_min":31,"x_max":744,"o":"m 300 454 l 300 167 q 301 128 300 144 q 303 97 301 111 q 306 74 304 83 q 313 60 308 65 q 321 51 315 54 q 332 44 326 47 q 349 41 339 43 q 371 39 358 39 l 438 38 l 438 -4 q 385 -2 411 -3 q 333 -1 358 -1 q 284 0 308 0 q 236 0 260 0 q 222 0 229 0 q 207 0 214 0 q 192 0 200 0 q 178 0 185 0 q 159 0 168 0 q 142 -1 150 0 q 123 -1 132 -1 q 106 -1 114 -1 q 69 -2 88 -1 q 31 -4 50 -3 l 31 38 l 97 42 q 119 42 110 40 q 136 44 129 43 q 148 51 143 47 q 156 60 153 54 q 161 74 158 65 q 165 97 164 83 q 167 128 167 111 q 168 164 168 144 l 168 790 q 167 824 168 808 q 165 854 167 840 q 161 876 164 867 q 156 892 158 886 q 148 901 153 897 q 136 907 143 906 q 119 910 129 910 q 97 913 110 911 l 31 919 l 31 961 q 50 958 40 958 q 69 957 60 957 q 89 957 79 957 q 108 957 99 957 q 147 955 128 956 q 186 954 167 954 q 226 954 206 954 q 265 954 246 954 q 295 954 281 954 q 326 954 310 954 q 343 954 335 954 q 360 956 351 954 q 376 956 368 956 q 393 956 385 956 q 399 956 396 956 q 407 956 403 956 q 413 956 410 956 q 421 957 417 956 q 460 957 440 957 q 499 957 481 957 q 517 957 508 957 q 535 958 526 957 q 551 958 543 958 q 565 958 558 958 q 588 958 576 958 q 613 958 600 958 q 635 957 624 957 q 658 957 647 957 q 703 956 682 957 q 744 954 724 956 q 737 921 740 938 q 731 886 733 904 q 728 867 729 876 q 726 850 728 858 q 726 831 726 840 q 725 813 725 822 q 723 794 724 803 q 722 776 722 785 q 722 760 722 768 q 722 743 722 751 l 674 746 l 674 836 q 673 847 674 842 q 671 857 672 851 q 667 866 669 863 q 661 871 665 869 q 636 878 649 875 q 610 885 624 882 q 596 888 603 886 q 582 890 589 889 q 568 892 575 890 q 554 894 561 893 q 516 898 535 897 q 479 899 497 899 q 461 899 469 899 q 444 900 453 899 q 431 900 438 900 q 417 900 424 900 q 408 900 413 900 q 397 900 403 900 q 388 899 393 899 q 378 899 383 899 q 358 898 368 899 q 339 896 349 897 q 328 894 333 894 q 319 893 324 893 q 309 891 314 892 q 300 889 304 890 l 300 521 q 335 517 317 518 q 372 515 353 515 q 414 514 392 514 q 461 514 436 514 q 518 515 493 514 q 561 518 543 517 q 591 523 579 521 q 608 529 603 525 q 613 535 611 532 q 615 542 614 538 q 617 552 617 546 q 619 565 618 558 l 626 640 l 668 640 q 668 631 668 635 q 668 624 668 626 q 667 616 667 619 q 667 610 667 613 q 667 596 667 603 q 667 582 667 589 q 665 554 665 568 q 664 528 664 540 q 664 515 664 522 q 664 503 664 508 q 664 490 664 496 q 664 476 664 483 q 664 470 664 474 q 664 464 664 467 q 664 456 664 460 q 664 450 664 453 q 664 438 664 444 q 665 425 664 432 q 665 412 665 418 q 665 399 665 406 q 665 387 665 393 q 667 374 665 381 q 667 360 667 367 q 667 347 667 354 q 667 341 667 344 q 668 335 667 338 q 668 328 668 332 q 668 322 668 325 l 626 325 l 619 407 q 617 417 618 413 q 615 426 617 422 q 613 434 614 431 q 608 439 611 438 q 591 447 603 443 q 561 451 579 450 q 518 455 543 454 q 461 456 493 456 q 437 456 449 456 q 414 456 425 456 q 391 454 401 454 q 371 454 381 454 q 333 453 351 454 q 300 451 315 453 l 300 454 l 300 454 z "},"G":{"ha":1060,"x_min":31,"x_max":1011,"o":"m 828 136 l 828 276 q 825 294 828 286 q 818 308 822 303 q 803 318 813 315 q 781 322 794 321 l 665 335 l 665 376 q 687 373 676 374 q 708 372 697 372 q 729 371 718 371 q 750 371 740 371 q 772 371 761 371 q 793 371 782 371 q 814 371 803 371 q 835 371 825 371 q 856 371 846 371 q 878 371 867 371 q 899 371 888 371 q 919 371 910 371 q 962 372 940 371 q 1006 374 983 372 l 1011 342 l 971 328 q 962 320 965 324 q 957 313 958 317 q 956 299 956 308 q 956 274 956 289 l 956 43 q 953 40 954 40 q 953 39 953 39 q 951 38 951 38 q 949 38 950 38 q 947 38 947 38 q 946 38 946 38 q 944 36 944 36 q 942 36 943 36 q 912 28 928 32 q 881 19 896 24 q 849 11 865 15 q 818 4 833 7 q 756 -7 788 -1 q 696 -18 725 -12 q 640 -25 665 -22 q 590 -28 614 -28 q 375 2 474 -28 q 194 94 276 32 q 72 252 113 156 q 31 479 31 349 q 72 685 31 594 q 197 844 114 776 q 385 948 281 914 q 617 982 490 982 q 696 979 658 982 q 765 971 733 976 q 825 960 797 965 q 878 949 853 956 q 902 941 890 944 q 924 935 914 938 q 944 930 935 932 q 961 925 953 928 q 951 883 956 904 q 943 838 946 861 q 940 815 942 826 q 936 792 938 803 q 935 767 936 779 q 933 744 933 756 q 933 741 933 743 q 933 738 933 739 q 933 733 933 735 q 933 729 933 732 q 933 726 933 728 q 933 722 933 724 q 933 718 933 719 q 933 714 933 717 l 890 717 l 890 790 q 882 829 890 813 q 858 857 874 846 q 824 878 843 868 q 781 896 804 888 q 780 896 781 896 q 779 897 779 896 q 778 897 778 897 q 778 897 778 897 q 777 897 778 897 q 776 899 776 897 q 775 899 775 899 q 775 899 775 899 q 738 908 758 904 q 694 917 718 913 q 643 922 672 919 q 581 924 614 924 q 407 894 482 924 q 281 806 332 864 q 204 672 229 747 q 179 503 179 596 q 208 313 179 399 q 296 161 238 228 q 437 61 354 94 q 626 28 519 28 q 701 31 667 28 q 761 43 735 35 q 803 58 789 50 q 821 76 818 67 q 821 77 821 76 q 822 79 821 78 q 822 80 822 79 q 822 81 822 81 q 822 81 822 81 q 824 83 822 82 q 824 84 824 83 q 824 86 824 85 q 826 94 825 90 q 826 104 826 99 q 826 110 826 107 q 828 115 826 113 q 828 124 828 119 q 828 133 828 128 l 828 136 l 828 136 z "},"H":{"ha":1156,"x_min":31,"x_max":1125,"o":"m 988 790 l 988 167 q 988 128 988 144 q 990 97 989 111 q 994 74 992 83 q 1000 60 996 65 q 1008 51 1003 54 q 1019 44 1014 47 q 1036 41 1026 43 q 1058 39 1046 39 l 1125 38 l 1125 -4 q 1072 -2 1099 -3 q 1021 -1 1046 -1 q 972 0 996 0 q 924 0 947 0 q 909 0 917 0 q 894 0 901 0 q 880 0 888 0 q 865 0 872 0 q 847 0 856 0 q 829 -1 838 0 q 810 -1 819 -1 q 793 -1 801 -1 q 756 -2 775 -1 q 718 -4 738 -3 l 718 38 l 785 42 q 807 42 797 40 q 824 44 817 43 q 835 51 831 47 q 843 60 840 54 q 849 74 846 65 q 853 97 851 83 q 855 128 854 111 q 856 164 856 144 l 856 476 q 840 475 850 475 q 814 475 829 475 q 799 475 807 475 q 782 476 790 475 q 762 476 772 476 q 740 476 751 476 l 415 479 q 374 476 393 476 q 340 475 356 475 q 327 475 333 475 q 317 475 321 475 q 307 474 311 474 q 300 474 303 474 l 300 167 q 301 128 300 144 q 303 97 301 111 q 306 74 304 83 q 313 60 308 65 q 321 51 315 54 q 332 44 326 47 q 349 41 339 43 q 371 39 358 39 l 438 38 l 438 -4 q 385 -2 411 -3 q 333 -1 358 -1 q 284 0 308 0 q 236 0 260 0 q 222 0 229 0 q 207 0 214 0 q 192 0 200 0 q 178 0 185 0 q 159 0 168 0 q 142 -1 150 0 q 123 -1 132 -1 q 106 -1 114 -1 q 69 -2 88 -1 q 31 -4 50 -3 l 31 38 l 97 42 q 119 42 110 40 q 136 44 129 43 q 148 51 143 47 q 156 60 153 54 q 161 74 158 65 q 165 97 164 83 q 167 128 167 111 q 168 164 168 144 l 168 790 q 167 824 168 808 q 165 854 167 840 q 161 876 164 867 q 156 892 158 886 q 148 901 153 897 q 136 907 143 906 q 119 910 129 910 q 97 913 110 911 l 31 919 l 31 961 q 69 957 50 958 q 106 956 88 956 q 123 956 114 956 q 142 956 132 956 q 159 954 150 954 q 178 954 168 954 q 192 954 185 954 q 207 954 200 954 q 222 954 214 954 q 236 954 229 954 q 284 954 260 954 q 333 956 308 954 q 385 956 358 956 q 438 958 411 957 l 438 919 l 371 915 q 359 912 365 913 q 349 911 353 911 q 339 909 343 910 q 332 907 335 908 q 321 901 326 906 q 313 892 315 897 q 306 876 308 886 q 303 854 304 867 q 301 824 301 840 q 300 788 300 807 l 300 543 q 317 539 307 540 q 340 538 326 538 q 374 538 356 538 q 415 538 393 538 l 740 540 q 782 538 764 538 q 814 538 800 538 q 840 538 829 538 q 856 540 850 539 l 856 790 q 855 824 856 808 q 853 854 854 840 q 849 876 851 867 q 843 892 846 886 q 835 901 840 897 q 824 907 831 906 q 807 910 817 910 q 785 913 797 911 l 718 919 l 718 961 q 756 957 738 958 q 793 956 775 956 q 810 956 801 956 q 829 956 819 956 q 847 954 838 954 q 865 954 856 954 q 880 954 872 954 q 894 954 888 954 q 909 954 901 954 q 924 954 917 954 q 972 954 947 954 q 1021 956 996 954 q 1072 956 1046 956 q 1125 958 1099 957 l 1125 919 l 1058 915 q 1047 912 1053 913 q 1036 911 1040 911 q 1026 909 1031 910 q 1019 907 1022 908 q 1008 901 1014 906 q 1000 892 1003 897 q 994 876 996 886 q 990 854 992 867 q 988 824 989 840 q 988 788 988 807 l 988 790 l 988 790 z "},"I":{"ha":468,"x_min":31,"x_max":438,"o":"m 300 790 l 300 167 q 301 128 300 144 q 303 97 301 111 q 306 74 304 83 q 313 60 308 65 q 321 51 315 54 q 332 44 326 47 q 349 41 339 43 q 371 39 358 39 l 438 38 l 438 -4 q 385 -2 411 -3 q 333 -1 358 -1 q 284 0 308 0 q 236 0 260 0 q 222 0 229 0 q 207 0 214 0 q 192 0 200 0 q 178 0 185 0 q 159 0 168 0 q 142 -1 150 0 q 123 -1 132 -1 q 106 -1 114 -1 q 69 -2 88 -1 q 31 -4 50 -3 l 31 38 l 97 42 q 119 42 110 40 q 136 44 129 43 q 148 51 143 47 q 156 60 153 54 q 161 74 158 65 q 165 97 164 83 q 167 128 167 111 q 168 164 168 144 l 168 790 q 167 824 168 808 q 165 854 167 840 q 161 876 164 867 q 156 892 158 886 q 148 901 153 897 q 136 907 143 906 q 119 910 129 910 q 97 913 110 911 l 31 919 l 31 961 q 69 957 50 958 q 106 956 88 956 q 123 956 114 956 q 142 956 132 956 q 159 954 150 954 q 178 954 168 954 q 192 954 185 954 q 207 954 200 954 q 222 954 214 954 q 236 954 229 954 q 284 954 260 954 q 333 956 308 954 q 385 956 358 956 q 438 958 411 957 l 438 919 l 371 915 q 359 912 365 913 q 349 911 353 911 q 339 909 343 910 q 332 907 335 908 q 321 901 326 906 q 313 892 315 897 q 306 876 308 886 q 303 854 304 867 q 301 824 301 840 q 300 788 300 807 l 300 790 l 300 790 z "},"J":{"ha":463,"x_min":-21,"x_max":432,"o":"m 294 790 l 294 163 q 294 156 294 158 q 294 150 294 153 q 294 147 294 149 q 294 142 294 144 q 292 81 294 113 q 286 14 290 49 q 269 -55 282 -19 q 232 -126 256 -90 q 226 -133 229 -129 q 221 -142 224 -137 q 215 -150 218 -146 q 208 -158 211 -154 q 168 -200 190 -181 q 121 -236 146 -219 q 68 -261 96 -253 q 10 -269 40 -269 q 6 -269 8 -269 q 3 -269 4 -269 q 1 -268 1 -268 q -1 -268 0 -268 q -4 -268 -3 -268 q -7 -268 -6 -268 q -8 -267 -7 -267 q -11 -267 -10 -267 l -21 -161 l -6 -153 q 5 -159 0 -156 q 15 -164 10 -162 q 25 -169 19 -167 q 36 -172 31 -171 q 49 -176 43 -175 q 63 -178 56 -176 q 69 -178 65 -178 q 76 -179 72 -178 q 83 -179 79 -179 q 92 -179 88 -179 q 111 -176 103 -179 q 128 -168 119 -174 q 141 -153 135 -162 q 151 -133 147 -144 q 154 -120 153 -128 q 157 -103 156 -112 q 159 -84 158 -93 q 161 -64 160 -75 q 161 -53 161 -58 q 161 -43 161 -49 q 161 -37 161 -40 q 163 -33 161 -35 q 163 -28 163 -31 q 163 -24 163 -26 l 163 790 q 162 824 163 808 q 160 854 161 840 q 156 876 158 867 q 150 892 153 886 q 142 901 147 897 q 131 907 138 906 q 114 910 124 910 q 92 913 104 911 l 25 919 l 25 961 q 63 957 44 958 q 100 956 82 956 q 117 956 108 956 q 136 956 126 956 q 153 954 144 954 q 172 954 163 954 q 187 954 179 954 q 201 954 194 954 q 216 954 208 954 q 231 954 224 954 q 278 954 254 954 q 328 956 303 954 q 379 956 353 956 q 432 958 406 957 l 432 919 l 365 915 q 353 912 360 913 q 343 911 347 911 q 333 909 338 910 q 326 907 329 908 q 315 901 321 906 q 307 892 310 897 q 301 876 303 886 q 297 854 299 867 q 295 824 296 840 q 294 788 294 807 l 294 790 l 294 790 z "},"K":{"ha":1008,"x_min":31,"x_max":999,"o":"m 300 451 l 300 167 q 301 128 300 144 q 303 97 301 111 q 306 74 304 83 q 313 60 308 65 q 321 51 315 54 q 332 44 326 47 q 349 41 339 43 q 371 39 358 39 l 438 38 l 438 -4 q 385 -2 411 -3 q 333 -1 358 -1 q 284 0 308 0 q 236 0 260 0 q 222 0 229 0 q 207 0 214 0 q 192 0 200 0 q 178 0 185 0 q 159 0 168 0 q 142 -1 150 0 q 123 -1 132 -1 q 106 -1 114 -1 q 69 -2 88 -1 q 31 -4 50 -3 l 31 38 l 97 42 q 119 42 110 40 q 136 44 129 43 q 148 51 143 47 q 156 60 153 54 q 161 74 158 65 q 165 97 164 83 q 167 128 167 111 q 168 164 168 144 l 168 790 q 167 824 168 808 q 165 854 167 840 q 161 876 164 867 q 156 892 158 886 q 148 901 153 897 q 136 907 143 906 q 119 910 129 910 q 97 913 110 911 l 31 919 l 31 961 q 69 957 50 958 q 106 956 88 956 q 123 956 114 956 q 142 956 132 956 q 159 954 150 954 q 178 954 168 954 q 192 954 185 954 q 207 954 200 954 q 222 954 214 954 q 236 954 229 954 q 284 954 260 954 q 333 956 308 954 q 385 956 358 956 q 438 958 411 957 l 438 919 l 371 915 q 359 912 365 913 q 349 911 353 911 q 339 909 343 910 q 332 907 335 908 q 321 901 326 906 q 313 892 315 897 q 306 876 308 886 q 303 854 304 867 q 301 824 301 840 q 300 788 300 807 l 300 493 l 686 869 q 689 869 688 868 q 692 872 690 871 q 694 875 693 874 q 696 878 694 876 q 708 891 703 885 q 717 903 713 897 q 724 914 721 910 q 726 921 726 918 l 726 961 q 737 958 732 958 q 747 957 742 957 q 758 957 753 957 q 769 957 764 957 q 783 955 776 956 q 797 954 790 954 q 812 954 804 954 q 826 954 819 954 q 832 954 829 954 q 838 954 835 954 q 844 954 840 954 q 850 954 847 954 q 869 954 860 954 q 889 954 879 954 q 908 955 899 954 q 926 957 917 956 q 935 957 931 957 q 943 957 939 957 q 948 957 946 957 q 953 958 950 957 q 957 958 954 958 q 961 958 960 958 l 961 919 l 903 917 q 899 915 901 915 q 894 914 896 914 q 890 912 892 913 q 885 911 888 911 q 875 909 879 910 q 867 907 871 908 q 848 899 857 903 q 831 889 839 894 q 812 876 821 883 q 794 861 803 869 l 425 531 l 883 97 q 908 73 896 83 q 931 56 921 63 q 951 43 942 47 q 969 38 960 39 l 999 38 l 999 -4 q 995 -4 997 -4 q 992 -4 993 -4 q 988 -3 989 -3 q 985 -3 986 -3 q 977 -3 981 -3 q 971 -3 974 -3 q 959 -1 965 -1 q 946 0 953 0 q 935 0 940 0 q 924 0 929 0 q 920 0 922 0 q 915 0 918 0 q 912 0 914 0 q 907 0 910 0 q 899 0 903 0 q 890 0 894 0 q 881 0 885 0 q 872 0 876 0 q 864 0 868 0 q 856 -1 860 0 q 846 -2 850 -1 q 838 -3 842 -3 q 827 -3 832 -3 q 818 -3 822 -3 q 813 -3 815 -3 q 808 -4 810 -3 q 803 -4 806 -4 q 797 -4 800 -4 l 314 461 l 300 451 l 300 451 l 300 451 z "},"L":{"ha":849,"x_min":31,"x_max":814,"o":"m 300 790 l 300 65 q 309 60 304 63 q 319 58 314 58 q 328 56 324 57 q 339 56 333 56 q 358 53 349 54 q 378 51 368 51 q 398 51 389 51 q 417 51 407 51 q 440 51 428 51 q 467 51 453 51 q 492 51 479 51 q 519 53 506 51 q 587 55 554 53 q 650 60 619 57 q 699 67 681 63 q 724 78 718 72 q 730 85 726 81 q 735 99 733 90 q 738 107 736 103 q 740 115 739 111 q 742 124 740 119 q 744 132 743 128 q 745 137 744 135 q 747 142 746 139 q 748 146 747 143 q 749 150 749 149 q 751 158 750 154 q 753 167 751 163 l 769 239 l 814 239 q 812 225 813 232 q 811 213 811 218 q 809 199 810 206 q 808 186 808 193 q 806 161 807 174 q 803 136 804 149 q 799 99 801 118 q 794 63 797 81 q 792 46 793 54 q 790 29 790 38 q 788 13 789 21 q 785 0 786 6 q 768 0 776 0 q 750 0 760 0 q 741 0 746 0 q 731 -1 736 0 q 720 -1 725 -1 q 710 -1 715 -1 q 691 -1 700 -1 q 672 -3 682 -1 q 653 -3 663 -3 q 632 -3 643 -3 q 612 -3 622 -3 q 592 -4 601 -3 q 571 -4 581 -4 q 550 -4 561 -4 q 540 -4 544 -4 q 531 -4 535 -4 q 520 -4 525 -4 q 511 -4 515 -4 q 495 -4 503 -4 q 481 -4 488 -4 q 466 -3 474 -3 q 451 -3 458 -3 q 423 -3 438 -3 q 396 -3 408 -3 q 345 -1 369 -1 q 297 0 321 0 q 252 0 275 0 q 208 0 229 0 q 185 0 196 0 q 164 0 175 0 q 144 -1 154 0 q 126 -3 135 -1 q 119 -3 122 -3 q 113 -3 115 -3 q 107 -3 110 -3 q 101 -4 104 -3 q 99 -4 100 -4 q 96 -4 97 -4 q 93 -4 94 -4 q 90 -4 92 -4 l 90 28 l 133 50 q 149 60 142 53 q 160 79 156 68 q 166 103 164 90 q 168 129 168 115 l 168 790 q 167 824 168 808 q 165 854 167 840 q 161 876 164 867 q 156 892 158 886 q 148 901 153 897 q 136 907 143 906 q 119 910 129 910 q 97 913 110 911 l 31 919 l 31 961 q 69 957 50 958 q 106 956 88 956 q 123 956 114 956 q 142 956 132 956 q 159 954 150 954 q 178 954 168 954 q 192 954 185 954 q 207 954 200 954 q 222 954 214 954 q 236 954 229 954 q 284 954 260 954 q 333 956 308 954 q 385 956 358 956 q 438 958 411 957 l 438 919 l 371 915 q 359 912 365 913 q 349 911 353 911 q 339 909 343 910 q 332 907 335 908 q 321 901 326 906 q 313 892 315 897 q 306 876 308 886 q 303 854 304 867 q 301 824 301 840 q 300 788 300 807 l 300 790 l 300 790 z "},"M":{"ha":1314,"x_min":22,"x_max":1286,"o":"m 1149 790 l 1149 167 q 1149 128 1149 144 q 1151 97 1150 111 q 1155 74 1153 83 q 1161 60 1157 65 q 1169 51 1164 54 q 1181 44 1175 47 q 1197 41 1188 43 q 1219 39 1207 39 l 1286 38 l 1286 -4 q 1233 -2 1260 -3 q 1182 -1 1207 -1 q 1133 0 1157 0 q 1085 0 1108 0 q 1034 0 1058 0 q 986 -1 1010 0 q 940 -2 963 -1 q 899 -4 918 -3 l 899 38 l 946 42 q 968 42 958 40 q 985 46 978 44 q 997 51 992 49 q 1004 60 1001 54 q 1010 74 1007 65 q 1014 97 1013 83 q 1016 128 1015 111 q 1017 164 1017 144 l 1017 797 l 1014 797 q 1006 780 1010 788 q 999 765 1001 772 q 995 758 997 761 q 992 751 993 754 q 988 744 989 747 q 983 738 986 740 q 976 723 979 731 q 969 708 972 715 q 962 694 965 701 q 956 681 958 688 l 708 158 q 697 130 703 143 q 685 103 690 117 q 674 76 679 89 q 663 50 668 63 q 660 47 661 49 q 660 44 660 46 q 660 42 660 43 q 660 42 660 42 q 658 40 658 40 q 658 38 658 39 q 651 24 654 31 q 646 10 649 17 q 644 5 644 7 q 642 0 643 3 q 638 -8 640 -3 q 633 -18 636 -12 l 606 -18 l 221 797 l 218 797 l 218 167 q 219 128 218 144 q 221 97 219 111 q 224 74 222 83 q 231 60 226 65 q 239 51 233 54 q 250 46 244 49 q 267 42 257 44 q 289 39 276 40 l 350 38 l 350 -4 q 342 -4 346 -4 q 335 -4 338 -4 q 327 -3 331 -3 q 319 -3 324 -3 q 306 -3 313 -3 q 292 -3 299 -3 q 278 -1 285 -1 q 264 -1 271 -1 q 258 -1 261 -1 q 251 -1 254 -1 q 244 -1 247 -1 q 238 -1 240 -1 q 224 0 231 0 q 210 0 217 0 q 203 0 207 0 q 197 0 200 0 q 190 0 193 0 q 183 0 186 0 q 171 0 178 0 q 158 0 164 0 q 145 0 151 0 q 132 0 139 0 q 105 -1 118 0 q 78 -3 92 -1 q 64 -3 71 -3 q 50 -3 57 -3 q 42 -3 46 -3 q 36 -4 39 -3 q 28 -4 32 -4 q 22 -4 25 -4 l 22 38 l 83 42 q 106 42 96 40 q 122 46 115 44 q 134 51 129 49 q 142 60 139 54 q 147 74 144 65 q 151 97 150 83 q 153 128 153 111 q 154 164 154 144 l 154 790 q 153 824 154 808 q 151 854 153 840 q 147 876 150 867 q 142 892 144 886 q 134 901 139 897 q 122 907 129 906 q 106 910 115 910 q 83 913 96 911 l 22 919 l 22 961 q 33 958 28 958 q 43 957 38 957 q 54 957 49 957 q 65 957 60 957 q 88 955 76 956 q 110 954 99 954 q 132 954 121 954 q 154 954 143 954 q 176 954 165 954 q 199 954 188 954 q 221 955 210 954 q 243 957 232 956 q 253 957 249 957 q 264 957 258 957 q 269 957 267 957 q 275 958 272 957 q 281 958 278 958 q 286 958 283 958 l 653 189 l 1017 961 q 1028 958 1022 958 q 1039 957 1033 957 q 1050 957 1044 957 q 1061 957 1056 957 q 1064 957 1063 957 q 1067 957 1065 957 q 1069 956 1068 956 q 1072 956 1071 956 q 1078 956 1075 956 q 1083 956 1081 956 q 1091 956 1088 956 q 1099 956 1094 956 q 1107 954 1103 954 q 1115 954 1111 954 q 1132 954 1124 954 q 1149 954 1140 954 q 1171 954 1160 954 q 1193 954 1182 954 q 1204 954 1199 954 q 1215 956 1210 954 q 1225 956 1219 956 q 1236 957 1231 957 q 1247 957 1242 957 q 1257 957 1251 957 q 1263 957 1260 957 q 1268 958 1265 957 q 1272 958 1269 958 q 1278 958 1275 958 l 1278 919 l 1219 915 q 1208 912 1214 913 q 1197 911 1201 911 q 1188 909 1192 910 q 1181 907 1183 908 q 1169 901 1175 906 q 1161 892 1164 897 q 1155 876 1157 886 q 1151 854 1153 867 q 1149 824 1150 840 q 1149 788 1149 807 l 1149 790 l 1149 790 z "},"N":{"ha":1154,"x_min":24,"x_max":1129,"o":"m 156 167 l 156 790 q 155 824 156 808 q 153 854 154 840 q 149 876 151 867 q 143 892 146 886 q 135 901 140 897 q 124 907 131 906 q 107 910 117 910 q 85 913 97 911 l 24 919 l 24 961 q 38 958 31 958 q 53 957 46 957 q 67 957 60 957 q 83 957 75 957 q 110 955 97 956 q 138 954 124 954 q 165 954 151 954 q 190 954 178 954 q 203 954 197 954 q 215 954 210 954 q 228 955 222 954 q 240 957 235 956 q 247 957 243 957 q 253 957 250 957 q 256 957 254 957 q 260 958 257 957 q 263 958 261 958 q 265 958 264 958 l 929 142 l 933 142 l 933 790 q 933 824 933 808 q 931 854 932 840 q 926 876 929 867 q 921 892 924 886 q 913 901 918 897 q 901 907 908 906 q 885 910 894 910 q 863 913 875 911 l 801 919 l 801 961 q 815 958 808 958 q 829 957 822 957 q 843 957 836 957 q 857 957 850 957 q 884 955 871 956 q 911 954 897 954 q 924 954 918 954 q 938 954 931 954 q 950 954 943 954 q 963 954 957 954 q 969 954 965 954 q 976 954 972 954 q 983 954 979 954 q 989 954 986 954 q 1003 954 996 954 q 1017 956 1010 954 q 1023 956 1019 956 q 1031 956 1026 956 q 1037 956 1033 956 q 1043 956 1040 956 q 1057 956 1050 956 q 1071 957 1064 956 q 1085 957 1078 957 q 1099 957 1092 957 q 1106 957 1103 957 q 1114 958 1110 957 q 1121 958 1117 958 q 1129 958 1125 958 l 1129 919 l 1068 915 q 1056 912 1063 913 q 1046 911 1050 911 q 1036 909 1040 910 q 1029 907 1032 908 q 1018 901 1024 906 q 1010 892 1013 897 q 1003 876 1006 886 q 1000 854 1001 867 q 998 824 999 840 q 997 788 997 807 l 997 24 q 997 15 997 18 q 997 8 997 11 q 997 5 997 7 q 999 1 997 3 q 999 -1 999 0 q 999 -3 999 -1 q 999 -3 999 -3 q 999 -6 999 -4 q 999 -6 999 -6 q 1000 -8 999 -7 q 1000 -9 1000 -8 q 1000 -11 1000 -10 q 1000 -16 1000 -14 q 1000 -19 1000 -18 q 1000 -22 1000 -21 q 1001 -24 1000 -22 q 1001 -26 1001 -25 q 1001 -28 1001 -26 l 876 -6 l 222 807 l 219 807 l 219 167 q 220 128 219 144 q 222 97 221 111 q 226 74 224 83 q 232 60 228 65 q 240 51 235 54 q 251 46 246 49 q 268 42 258 44 q 290 39 278 40 l 351 38 l 351 -4 q 343 -4 347 -4 q 336 -4 339 -4 q 328 -3 332 -3 q 321 -3 325 -3 q 307 -3 314 -3 q 293 -3 300 -3 q 279 -1 286 -1 q 265 -1 272 -1 q 259 -1 263 -1 q 253 -1 256 -1 q 245 -1 249 -1 q 239 -1 242 -1 q 225 0 232 0 q 211 0 218 0 q 205 0 208 0 q 199 0 201 0 q 191 0 194 0 q 185 0 188 0 q 172 0 179 0 q 160 0 165 0 q 147 0 153 0 q 133 0 140 0 q 106 -1 119 0 q 79 -3 93 -1 q 65 -3 72 -3 q 51 -3 58 -3 q 44 -3 47 -3 q 38 -4 40 -3 q 30 -4 33 -4 q 24 -4 26 -4 l 24 38 l 85 42 q 107 42 97 40 q 124 46 117 44 q 135 51 131 49 q 143 60 140 54 q 149 74 146 65 q 153 97 151 83 q 155 128 154 111 q 156 164 156 144 l 156 167 l 156 167 z "},"O":{"ha":1092,"x_min":31,"x_max":1061,"o":"m 524 -28 q 330 5 418 -28 q 171 106 242 38 q 65 266 100 174 q 31 475 31 358 q 65 673 31 582 q 171 836 100 764 q 336 946 240 910 q 553 982 432 982 q 756 951 664 982 q 918 860 847 921 q 1025 711 989 800 q 1061 507 1061 622 q 1022 299 1061 394 q 906 126 983 204 q 733 10 829 49 q 524 -28 638 -28 l 524 -28 l 524 -28 m 531 926 q 374 895 440 924 q 264 810 307 867 q 200 683 221 754 q 179 526 179 613 q 179 518 179 522 q 179 510 179 514 q 179 506 179 508 q 179 501 179 503 q 180 497 179 499 q 181 492 181 494 q 208 325 183 404 q 279 172 233 246 q 397 64 325 100 q 568 28 469 28 q 719 58 654 28 q 826 150 783 89 q 891 290 869 211 q 913 464 913 368 q 889 650 913 567 q 818 797 865 733 q 699 892 771 860 q 531 924 628 924 l 531 926 l 531 926 z "},"P":{"ha":839,"x_min":31,"x_max":806,"o":"m 300 892 l 300 167 q 301 128 300 144 q 303 97 301 111 q 306 74 304 83 q 313 60 308 65 q 321 51 315 54 q 332 44 326 47 q 349 41 339 43 q 371 39 358 39 l 438 38 l 438 -4 q 385 -2 411 -3 q 333 -1 358 -1 q 284 0 308 0 q 236 0 260 0 q 222 0 229 0 q 207 0 214 0 q 192 0 200 0 q 178 0 185 0 q 159 0 168 0 q 142 -1 150 0 q 123 -1 132 -1 q 106 -1 114 -1 q 69 -2 88 -1 q 31 -4 50 -3 l 31 38 l 97 42 q 119 42 110 40 q 136 44 129 43 q 148 51 143 47 q 156 60 153 54 q 161 74 158 65 q 165 97 164 83 q 167 128 167 111 q 168 164 168 144 l 168 790 q 167 822 168 806 q 164 851 167 838 q 160 874 163 865 q 154 889 157 883 q 145 899 150 894 q 133 906 140 903 q 117 910 128 908 q 94 913 107 911 l 32 919 l 32 961 q 55 958 43 958 q 76 957 67 957 q 88 957 82 957 q 99 957 93 957 q 108 957 103 957 q 119 957 114 957 q 161 955 140 956 q 203 954 182 954 q 242 954 222 954 q 282 954 263 954 q 322 954 301 954 q 363 954 342 954 q 402 955 382 954 q 442 957 422 956 q 461 957 451 957 q 481 957 471 957 q 490 957 485 957 q 500 958 494 957 q 509 958 504 958 q 518 958 514 958 q 519 958 518 958 q 521 958 519 958 q 522 958 521 958 q 524 958 522 958 q 524 958 524 958 q 525 958 524 958 q 526 958 525 958 q 528 958 526 958 q 534 958 531 958 q 542 958 538 958 q 545 958 543 958 q 549 958 547 958 q 553 957 551 957 q 557 957 556 957 q 646 940 603 954 q 728 901 689 926 q 786 838 767 876 q 806 746 806 799 q 781 626 806 681 q 707 531 756 572 q 600 468 658 489 q 472 447 542 447 q 452 447 463 447 q 431 449 442 447 q 410 452 421 450 q 389 456 400 454 l 375 508 q 398 500 386 503 q 421 494 410 497 q 444 492 432 493 q 467 492 456 492 q 544 506 508 492 q 608 550 579 521 q 652 617 638 579 q 667 699 667 654 q 651 792 667 753 q 606 856 636 831 q 534 893 575 881 q 442 906 493 906 q 398 904 418 906 q 361 900 378 903 q 330 895 344 899 q 300 889 315 892 l 300 892 l 300 892 z "},"Q":{"ha":1092,"x_min":31,"x_max":1061,"o":"m 553 985 q 756 951 664 982 q 918 860 847 921 q 1025 711 989 800 q 1061 507 1061 622 q 1025 306 1061 399 q 915 136 989 214 q 756 19 843 58 q 567 -25 668 -21 l 567 -28 q 608 -35 588 -31 q 649 -46 629 -39 q 668 -53 658 -50 q 688 -61 678 -57 q 706 -69 696 -65 q 725 -78 715 -74 q 726 -78 725 -78 q 728 -78 726 -78 q 730 -78 729 -78 q 732 -81 731 -79 q 742 -85 738 -83 q 753 -89 747 -87 q 762 -94 757 -92 q 772 -97 767 -96 q 822 -117 797 -108 q 869 -131 847 -125 q 892 -136 881 -133 q 917 -140 904 -139 q 940 -143 928 -142 q 963 -146 951 -144 q 968 -146 965 -146 q 974 -146 971 -146 q 979 -146 976 -146 q 985 -146 982 -146 q 1003 -145 994 -146 q 1022 -143 1013 -144 q 1042 -141 1032 -142 q 1061 -137 1051 -140 l 1061 -167 l 944 -244 q 928 -242 936 -243 q 911 -237 919 -240 q 893 -235 901 -236 q 876 -231 885 -233 q 839 -221 858 -226 q 797 -208 819 -215 l 592 -144 q 558 -135 574 -139 q 531 -129 543 -132 q 504 -125 517 -126 q 481 -124 492 -124 q 469 -124 475 -124 q 460 -126 464 -125 q 451 -131 456 -129 q 444 -135 447 -133 l 363 -179 l 365 -135 q 413 -99 390 -115 q 456 -68 435 -82 q 492 -46 476 -54 q 517 -35 507 -37 l 532 -29 l 532 -26 l 524 -26 q 325 6 414 -26 q 167 107 236 39 q 65 267 99 174 q 31 481 31 361 q 65 676 31 588 q 171 838 100 765 q 336 946 240 910 q 553 982 432 982 l 553 985 l 553 985 m 531 926 q 374 895 440 924 q 264 810 307 867 q 200 683 221 754 q 179 526 179 613 q 179 523 179 525 q 179 519 179 521 q 179 515 179 517 q 179 511 179 514 q 179 503 179 507 q 179 496 179 499 q 207 328 182 408 q 278 175 232 249 q 397 66 324 103 q 568 29 469 29 q 724 60 658 29 q 831 150 790 90 q 892 290 871 211 q 913 464 913 368 q 889 650 913 567 q 818 797 865 733 q 699 892 771 860 q 531 924 628 924 l 531 926 l 531 926 z "},"R":{"ha":928,"x_min":31,"x_max":929,"o":"m 300 892 l 300 167 q 301 128 300 144 q 303 97 301 111 q 306 74 304 83 q 313 60 308 65 q 321 51 315 54 q 332 44 326 47 q 349 41 339 43 q 371 39 358 39 l 438 38 l 438 -4 q 385 -2 411 -3 q 333 -1 358 -1 q 284 0 308 0 q 236 0 260 0 q 222 0 229 0 q 207 0 214 0 q 192 0 200 0 q 178 0 185 0 q 159 0 168 0 q 142 -1 150 0 q 123 -1 132 -1 q 106 -1 114 -1 q 69 -2 88 -1 q 31 -4 50 -3 l 31 38 l 97 42 q 119 42 110 40 q 136 44 129 43 q 148 51 143 47 q 156 60 153 54 q 161 74 158 65 q 165 97 164 83 q 167 128 167 111 q 168 164 168 144 l 168 790 q 167 824 168 808 q 165 854 167 840 q 161 876 164 867 q 156 892 158 886 q 148 901 153 897 q 136 907 143 906 q 119 910 129 910 q 97 913 110 911 l 40 919 l 40 961 q 58 958 49 958 q 78 957 68 957 q 97 957 88 957 q 117 957 107 957 q 155 955 136 956 q 194 954 174 954 q 215 954 206 954 q 236 954 225 954 q 256 954 246 954 q 276 954 267 954 q 297 954 288 954 q 318 954 307 954 q 338 954 328 954 q 358 954 349 954 q 398 955 378 954 q 439 957 418 956 q 459 957 449 957 q 479 957 469 957 q 490 957 485 957 q 500 958 494 957 q 509 958 504 958 q 519 958 514 958 q 522 958 521 958 q 525 958 524 958 q 527 958 526 958 q 529 958 528 958 q 530 958 529 958 q 532 958 531 958 q 654 944 604 958 q 733 901 704 929 q 778 842 761 874 q 799 778 794 811 q 799 770 799 774 q 799 764 799 767 q 799 760 799 763 q 800 757 799 758 q 800 753 800 754 q 800 750 800 751 q 779 649 800 694 q 717 569 758 603 q 629 515 675 536 q 533 483 583 493 q 531 482 532 482 q 531 482 531 482 q 531 482 531 482 q 531 482 531 482 q 529 482 529 482 q 529 482 529 482 l 844 74 q 861 53 851 61 q 882 43 871 46 q 905 38 893 40 q 929 35 917 36 l 929 -4 q 925 -4 928 -4 q 921 -4 922 -4 q 916 -3 918 -3 q 911 -3 914 -3 q 903 -3 907 -3 q 894 -3 899 -3 q 878 -1 886 -1 q 861 0 869 0 q 853 0 857 0 q 846 0 849 0 q 838 0 842 0 q 829 0 833 0 q 817 0 824 0 q 804 0 811 0 q 799 0 801 0 q 793 -1 796 0 q 788 -1 790 -1 q 782 -1 785 -1 q 778 -1 781 -1 q 774 -1 776 -1 q 772 -1 772 -1 q 771 -3 771 -1 q 769 -3 769 -3 q 767 -3 768 -3 q 758 -3 763 -3 q 750 -3 754 -3 q 747 -3 749 -3 q 743 -4 744 -3 q 739 -4 740 -4 q 735 -4 738 -4 q 727 3 731 0 q 721 13 724 7 q 717 17 719 15 q 714 22 715 19 q 710 26 711 24 q 707 31 708 29 q 705 33 706 32 q 704 35 704 33 q 702 35 703 35 q 701 38 701 36 q 699 40 700 39 q 697 43 697 42 q 692 49 694 46 q 686 56 689 53 q 683 62 685 58 q 678 68 681 65 l 422 414 q 412 426 417 419 q 401 438 407 432 q 390 451 396 444 q 379 463 385 457 q 376 467 378 465 q 372 472 374 469 q 368 476 369 474 q 364 481 367 479 q 356 489 360 485 q 350 497 353 493 l 358 517 q 367 513 363 514 q 378 513 372 513 q 387 513 382 513 q 397 513 392 513 q 411 513 404 513 q 425 513 418 513 q 439 513 432 513 q 453 515 446 514 q 456 515 454 515 q 460 517 457 515 q 463 517 461 517 q 467 517 465 517 q 473 517 469 517 q 481 519 476 518 q 549 542 517 526 q 607 585 581 558 q 648 643 635 611 q 661 714 661 675 q 644 806 661 768 q 594 864 628 843 q 526 894 561 883 q 450 906 490 904 q 447 906 449 906 q 444 906 446 906 q 442 906 443 906 q 442 906 442 906 q 398 904 418 906 q 361 900 378 903 q 330 895 344 899 q 300 889 315 892 l 300 892 l 300 892 z "},"S":{"ha":729,"x_min":33,"x_max":699,"o":"m 621 731 l 576 731 l 568 810 q 566 822 567 815 q 563 833 565 828 q 558 845 561 840 q 551 856 556 850 q 543 864 547 860 q 533 872 539 868 q 522 881 528 876 q 507 890 515 885 q 481 903 494 897 q 450 913 467 908 q 433 917 442 915 q 418 919 425 918 q 401 921 410 919 q 385 922 393 922 q 381 922 383 922 q 378 924 379 922 q 374 924 375 924 q 369 924 372 924 q 362 924 365 924 q 356 924 358 924 q 352 924 354 924 q 349 924 350 924 q 344 922 346 922 q 342 922 343 922 q 334 922 338 922 q 328 922 331 922 q 264 903 294 918 q 206 864 233 889 q 164 803 178 839 q 150 721 150 767 q 162 657 150 686 q 199 607 174 628 q 269 570 224 585 q 379 549 314 556 q 511 525 453 540 q 613 486 569 510 q 677 422 656 464 q 699 321 699 381 q 667 169 699 233 q 572 61 635 104 q 439 -4 508 18 q 294 -28 369 -26 q 292 -28 293 -28 q 292 -28 292 -28 q 290 -28 290 -28 q 288 -28 289 -28 q 284 -28 286 -28 q 279 -28 282 -28 q 223 -25 250 -28 q 168 -15 196 -22 q 142 -10 154 -12 q 119 -4 131 -7 q 97 2 107 0 q 78 7 88 4 q 72 9 75 8 q 67 11 69 10 q 62 12 64 11 q 57 14 60 13 q 49 19 53 17 q 42 22 44 21 q 44 36 43 29 q 46 50 44 43 q 46 56 46 53 q 47 64 46 60 q 48 70 47 67 q 49 76 49 74 q 49 104 49 90 q 51 132 50 118 q 51 159 51 146 q 51 185 51 172 q 51 198 51 192 q 51 210 51 204 q 51 223 51 217 q 51 235 51 229 l 96 238 l 107 144 q 128 101 110 121 q 182 64 147 81 q 254 39 217 47 q 333 31 292 31 q 423 44 381 31 q 504 86 465 58 q 563 153 543 114 q 582 244 582 193 q 565 328 582 293 q 513 381 547 363 q 434 413 478 400 q 338 431 390 425 q 197 459 256 440 q 103 504 139 478 q 51 573 68 532 q 33 668 33 614 q 57 795 33 740 q 128 888 81 850 q 227 948 175 925 q 336 979 279 971 q 342 979 339 979 q 349 981 346 979 q 355 981 351 981 q 363 981 358 981 q 369 981 365 981 q 376 982 372 981 q 383 982 379 982 q 389 982 386 982 q 445 979 418 982 q 497 969 472 976 q 544 958 522 964 q 586 944 567 951 q 601 939 593 942 q 614 933 608 936 q 620 931 617 932 q 628 928 624 929 q 634 926 631 926 q 640 924 638 925 q 634 889 636 906 q 629 856 632 872 q 626 823 628 839 q 622 792 624 807 q 622 783 622 788 q 622 776 622 779 q 621 768 621 772 q 621 760 621 764 q 621 751 621 756 q 621 744 621 747 q 621 736 621 740 q 621 728 621 732 l 621 731 l 621 731 z "},"T":{"ha":851,"x_min":25,"x_max":826,"o":"m 360 167 l 360 754 q 360 772 360 763 q 360 790 360 781 q 358 808 358 799 q 358 825 358 817 q 356 858 357 842 q 354 890 356 875 l 139 893 q 113 888 124 890 q 97 879 103 885 q 88 865 92 874 q 83 844 85 857 l 78 738 l 35 738 q 35 749 35 743 q 35 763 35 756 q 35 776 35 769 q 35 792 35 783 q 33 833 33 813 q 31 875 32 854 q 28 917 29 896 q 25 958 28 938 q 44 958 35 958 q 63 958 53 958 q 81 957 72 957 q 100 957 90 957 q 138 957 119 957 q 175 957 157 957 q 213 955 194 956 q 250 954 232 954 q 288 954 269 954 q 325 954 307 954 l 526 957 q 565 954 546 954 q 601 954 583 954 q 640 955 621 954 q 676 957 658 956 q 715 957 696 957 q 751 957 733 957 q 770 957 761 957 q 789 958 779 957 q 808 958 799 958 q 826 958 817 958 q 823 917 825 938 q 819 875 821 896 q 817 833 818 854 q 817 792 817 813 q 817 776 817 783 q 817 763 817 769 q 817 749 817 756 q 817 735 817 742 l 774 738 l 768 847 q 764 865 767 857 q 756 879 761 874 q 739 888 750 885 q 713 890 728 890 l 497 893 q 494 858 496 875 q 493 825 493 842 q 492 790 492 808 q 492 751 492 771 l 492 167 q 492 128 492 144 q 494 97 493 111 q 498 74 496 83 q 504 60 500 65 q 513 51 507 54 q 524 44 518 47 q 540 41 531 43 q 563 39 550 39 l 629 38 l 629 -4 q 576 -2 603 -3 q 525 -1 550 -1 q 476 0 500 0 q 428 0 451 0 q 413 0 421 0 q 399 0 406 0 q 384 0 392 0 q 369 0 376 0 q 351 0 360 0 q 333 -1 342 0 q 315 -1 324 -1 q 297 -1 306 -1 q 260 -2 279 -1 q 222 -4 242 -3 l 222 38 l 289 42 q 311 42 301 40 q 328 44 321 43 q 340 51 335 47 q 347 60 344 54 q 353 74 350 65 q 357 97 356 83 q 359 128 358 111 q 360 164 360 144 l 360 167 l 360 167 z "},"U":{"ha":1081,"x_min":17,"x_max":1054,"o":"m 154 297 l 154 790 q 153 824 154 808 q 151 854 153 840 q 147 876 150 867 q 142 892 144 886 q 134 901 139 897 q 122 907 129 906 q 106 910 115 910 q 83 913 96 911 l 17 919 l 17 961 q 55 957 36 958 q 92 956 74 956 q 109 956 100 956 q 128 956 118 956 q 145 954 136 954 q 164 954 154 954 q 178 954 171 954 q 193 954 186 954 q 208 954 200 954 q 222 954 215 954 q 270 954 246 954 q 319 956 294 954 q 371 956 344 956 q 424 958 397 957 l 424 919 l 357 915 q 345 912 351 913 q 335 911 339 911 q 325 909 329 910 q 318 907 321 908 q 307 901 313 906 q 299 892 301 897 q 292 876 294 886 q 289 854 290 867 q 287 824 288 840 q 286 788 286 807 l 286 313 q 304 186 286 236 q 360 108 322 136 q 451 69 397 82 q 572 56 504 56 q 678 69 629 56 q 771 113 728 83 q 837 199 815 142 q 858 343 858 257 l 858 790 q 858 824 858 808 q 856 854 857 840 q 851 876 854 867 q 846 892 849 886 q 838 901 843 897 q 826 907 833 906 q 810 910 819 910 q 788 913 800 911 l 726 919 l 726 961 q 740 958 733 958 q 754 957 747 957 q 768 957 761 957 q 782 957 775 957 q 809 955 796 956 q 836 954 822 954 q 849 954 843 954 q 863 954 856 954 q 875 954 868 954 q 888 954 882 954 q 894 954 890 954 q 901 954 897 954 q 908 954 904 954 q 914 954 911 954 q 928 954 921 954 q 942 956 935 954 q 948 956 944 956 q 956 956 951 956 q 962 956 958 956 q 968 956 965 956 q 982 956 975 956 q 996 957 989 956 q 1010 957 1003 957 q 1024 957 1017 957 q 1031 957 1028 957 q 1039 958 1035 957 q 1046 958 1042 958 q 1054 958 1050 958 l 1054 919 l 993 915 q 981 912 988 913 q 971 911 975 911 q 961 909 965 910 q 954 907 957 908 q 943 901 949 906 q 935 892 938 897 q 928 876 931 886 q 925 854 926 867 q 923 824 924 840 q 922 788 922 807 l 922 389 q 899 195 922 275 q 831 67 876 115 q 710 -4 785 19 q 529 -28 635 -28 q 372 -12 440 -28 q 253 38 303 4 q 178 135 203 71 q 154 294 154 199 l 154 297 l 154 297 z "},"V":{"ha":1003,"x_min":11,"x_max":981,"o":"m 261 872 l 535 168 l 789 825 q 794 838 792 831 q 799 850 797 844 q 801 862 800 857 q 801 872 801 867 q 797 891 800 883 q 786 903 793 899 q 771 909 779 907 q 753 913 763 911 l 681 919 l 681 961 q 694 958 688 958 q 706 957 700 957 q 719 957 713 957 q 731 957 725 957 q 756 955 743 956 q 781 954 768 954 q 806 954 793 954 q 831 954 818 954 q 856 954 843 954 q 881 954 868 954 q 906 955 893 954 q 931 957 918 956 q 944 957 938 957 q 956 957 950 957 q 962 957 958 957 q 968 958 965 957 q 974 958 971 958 q 981 958 978 958 l 981 919 l 939 915 q 928 910 933 913 q 918 904 922 907 q 908 895 913 900 q 899 883 903 890 q 890 869 894 878 q 882 853 886 861 q 878 844 881 849 q 874 835 875 839 q 869 824 871 829 q 864 813 867 818 l 622 231 q 598 168 610 199 q 575 108 586 138 q 553 48 564 78 q 533 -12 543 18 l 464 -12 q 451 31 458 8 q 436 75 443 53 q 428 97 432 86 q 421 118 424 108 q 413 140 417 129 q 404 161 408 151 q 401 167 403 164 q 399 175 400 171 q 396 181 397 178 q 393 188 394 185 q 390 194 392 190 q 389 201 389 197 q 386 208 388 204 q 383 214 385 211 l 122 858 q 108 883 115 872 q 93 900 100 894 q 78 908 86 906 q 61 913 69 911 l 11 919 l 11 961 q 26 958 18 958 q 42 957 33 957 q 56 957 49 957 q 72 957 64 957 q 103 955 88 956 q 133 954 118 954 q 165 954 149 954 q 196 954 181 954 q 227 954 211 954 q 258 954 243 954 q 289 955 274 954 q 319 957 304 956 q 334 957 326 957 q 350 957 342 957 q 358 957 354 957 q 365 958 361 957 q 372 958 368 958 q 381 958 376 958 l 381 919 l 303 915 q 301 913 301 913 q 300 913 300 913 q 300 913 300 913 q 300 913 300 913 q 299 913 299 913 q 299 913 299 913 q 283 909 290 911 q 269 904 276 907 q 260 896 264 901 q 258 883 257 890 q 258 881 258 882 q 258 881 258 881 q 258 878 258 879 q 258 876 258 878 q 258 874 258 875 q 260 874 258 874 q 260 872 260 872 q 261 869 261 871 l 261 872 l 261 872 z "},"W":{"ha":1389,"x_min":11,"x_max":1367,"o":"m 851 274 l 678 744 l 436 131 q 423 93 429 111 q 410 57 417 75 q 398 21 404 39 q 386 -12 392 3 l 317 -12 q 314 -2 315 -7 q 313 8 313 3 q 310 18 311 13 q 307 29 308 24 q 303 51 306 40 q 299 71 301 61 q 295 85 297 78 q 290 99 293 92 q 288 113 289 106 q 285 128 286 121 l 119 846 q 107 879 114 865 q 90 899 100 893 q 71 908 81 906 q 50 913 61 911 l 11 919 l 11 961 q 26 958 18 958 q 40 957 33 957 q 54 957 47 957 q 69 957 61 957 q 99 955 85 956 q 128 954 114 954 q 158 954 143 954 q 186 954 172 954 q 216 954 201 954 q 244 954 231 954 q 274 955 260 954 q 303 957 289 956 q 317 957 310 957 q 332 957 325 957 q 340 957 336 957 q 347 958 343 957 q 353 958 350 958 q 361 958 357 958 l 361 919 l 303 915 q 282 910 292 913 q 265 903 272 907 q 255 889 258 899 q 251 864 251 879 q 251 853 251 858 q 253 843 251 849 q 254 833 253 838 q 257 821 256 828 l 394 204 l 397 204 l 568 638 q 574 649 571 643 q 579 663 576 656 q 585 676 582 669 q 590 690 588 683 q 616 758 603 724 q 643 828 629 793 q 668 899 656 864 q 693 969 681 935 l 738 972 q 742 949 740 960 q 749 926 744 938 q 756 904 751 915 q 764 882 760 893 q 765 878 764 881 q 767 874 765 875 q 767 869 767 871 q 769 864 768 867 q 772 856 771 860 q 775 847 774 851 q 778 840 776 843 q 781 833 779 836 q 782 826 781 829 q 785 819 783 822 q 788 813 786 817 q 790 807 789 810 q 792 801 790 804 q 794 794 793 797 l 1010 194 l 1013 194 l 1194 869 q 1194 869 1194 868 q 1196 871 1194 869 q 1196 872 1196 871 q 1196 874 1196 872 q 1196 876 1196 875 q 1196 878 1196 876 q 1196 878 1196 878 q 1196 881 1196 879 q 1192 894 1196 889 q 1179 903 1188 900 q 1159 908 1171 906 q 1131 913 1147 911 l 1075 919 l 1075 961 q 1081 959 1078 960 q 1088 958 1083 958 q 1093 957 1090 957 q 1099 957 1096 957 q 1112 957 1106 957 q 1124 957 1118 957 q 1147 955 1135 956 q 1171 954 1158 954 q 1196 954 1183 954 q 1221 954 1208 954 q 1233 954 1228 954 q 1246 954 1239 954 q 1258 954 1251 954 q 1269 954 1264 954 q 1282 954 1276 954 q 1294 956 1288 954 q 1306 956 1300 956 q 1318 957 1313 957 q 1324 957 1321 957 q 1331 957 1326 957 q 1336 957 1333 957 q 1342 957 1339 957 q 1348 957 1344 957 q 1354 958 1351 957 q 1360 958 1357 958 q 1367 958 1364 958 l 1367 919 l 1322 915 q 1303 909 1311 913 q 1288 900 1294 906 q 1277 888 1282 894 q 1269 872 1272 881 l 1057 128 q 1054 118 1056 122 q 1053 110 1053 114 q 1050 101 1051 106 q 1047 93 1049 97 q 1045 85 1046 89 q 1043 78 1044 81 q 1041 69 1042 74 q 1039 61 1040 65 q 1033 44 1036 53 q 1028 25 1031 35 q 1024 6 1026 15 q 1019 -12 1022 -3 l 950 -12 q 942 13 946 0 q 935 38 938 25 q 926 62 931 50 q 918 85 922 74 q 910 107 914 96 q 903 131 906 118 q 894 153 899 142 q 886 175 890 164 q 882 186 885 181 q 878 199 879 192 q 873 210 875 204 q 868 222 871 217 q 860 246 864 233 q 851 271 856 258 l 851 274 l 851 274 z "},"X":{"ha":926,"x_min":19,"x_max":900,"o":"m 676 29 l 443 421 q 438 411 440 415 q 432 403 435 407 q 429 399 431 401 q 428 396 428 397 q 425 392 426 393 q 422 389 424 390 q 411 373 417 381 q 400 358 406 365 q 390 344 394 351 q 381 329 385 336 l 163 -4 q 160 -4 161 -4 q 157 -4 158 -4 q 153 -3 154 -3 q 150 -3 151 -3 q 144 -3 147 -3 q 139 -3 142 -3 q 127 -1 133 -1 q 115 0 121 0 q 110 0 113 0 q 104 0 107 0 q 97 0 100 0 q 92 0 94 0 q 80 0 86 0 q 67 0 74 0 q 61 0 64 0 q 56 -1 58 0 q 49 -2 51 -1 q 43 -3 46 -3 q 37 -3 40 -3 q 31 -3 33 -3 q 28 -3 29 -3 q 25 -4 26 -3 q 22 -4 24 -4 q 19 -4 21 -4 l 19 38 l 56 42 q 79 45 68 40 q 99 60 90 50 q 115 78 107 68 q 132 97 124 88 q 134 100 133 99 q 136 103 135 101 q 137 104 136 103 q 139 107 138 106 q 141 110 140 108 q 143 113 142 111 q 144 114 143 113 q 146 117 144 115 l 408 474 l 231 769 q 225 775 228 771 q 219 783 222 779 q 217 788 218 786 q 215 792 215 790 q 213 797 214 794 q 210 800 211 799 q 181 837 196 821 q 151 865 167 853 q 126 884 138 878 q 103 892 114 890 l 40 899 l 38 935 l 233 972 q 250 958 242 965 q 267 943 258 951 q 281 926 274 935 q 294 907 289 917 q 297 903 296 906 q 300 900 299 901 q 301 896 300 897 q 304 893 303 894 q 309 885 307 889 q 313 879 311 882 l 490 582 l 747 957 l 888 957 l 888 915 l 831 911 q 820 906 825 908 q 808 899 815 903 q 797 888 803 893 q 783 875 790 882 q 781 872 782 874 q 778 868 779 869 q 774 864 775 865 q 771 860 772 863 q 768 856 769 858 q 765 853 767 854 q 761 849 763 850 q 758 844 760 847 q 753 836 756 840 q 747 828 750 832 q 742 820 744 824 q 736 814 739 817 l 522 528 l 767 139 q 769 134 768 136 q 771 131 769 132 q 772 126 771 128 q 774 124 772 125 q 778 118 776 121 q 782 113 781 115 q 799 86 790 99 q 818 63 808 74 q 838 45 828 51 q 858 39 849 39 l 900 38 l 900 -4 q 897 -4 899 -4 q 892 -4 894 -4 q 888 -3 890 -3 q 883 -3 886 -3 q 875 -3 879 -3 q 867 -3 871 -3 q 850 -1 858 -1 q 833 0 842 0 q 817 0 825 0 q 800 0 808 0 q 792 0 796 0 q 783 0 788 0 q 774 0 778 0 q 765 0 769 0 q 749 -1 757 0 q 732 -3 740 -1 q 724 -3 728 -3 q 715 -3 719 -3 q 712 -3 714 -3 q 707 -4 710 -3 q 703 -4 706 -4 q 699 -4 701 -4 l 676 29 l 676 29 l 676 29 z "},"Y":{"ha":926,"x_min":13,"x_max":908,"o":"m 306 836 l 504 474 l 647 700 q 688 763 668 731 q 725 828 707 794 q 762 894 744 861 q 797 961 779 928 l 908 964 l 908 943 q 880 907 894 925 q 850 869 865 889 q 819 830 835 850 q 788 789 803 810 q 779 778 783 783 q 772 768 775 772 q 764 757 768 763 q 756 746 760 751 q 740 726 747 736 q 725 704 732 715 q 676 633 700 668 q 632 564 653 597 q 594 500 610 529 q 567 447 578 471 q 557 420 561 433 q 550 394 553 407 q 548 368 549 381 q 547 343 547 356 l 547 167 q 548 128 547 144 q 550 97 549 111 q 553 74 551 83 q 560 60 556 65 q 568 51 563 54 q 579 44 574 47 q 596 41 586 43 q 618 39 606 39 l 685 38 l 685 -4 q 632 -2 658 -3 q 581 -1 606 -1 q 531 0 556 0 q 483 0 507 0 q 469 0 476 0 q 454 0 461 0 q 440 0 447 0 q 425 0 432 0 q 406 0 415 0 q 389 -1 397 0 q 370 -1 379 -1 q 353 -1 361 -1 q 316 -2 335 -1 q 278 -4 297 -3 l 278 38 l 344 42 q 367 42 357 40 q 383 44 376 43 q 395 51 390 47 q 403 60 400 54 q 408 74 406 65 q 413 97 411 83 q 415 128 414 111 q 415 164 415 144 l 415 364 q 415 377 415 369 q 413 392 414 385 q 408 405 411 399 q 403 417 406 411 l 231 719 q 178 798 204 764 q 128 853 151 832 q 84 885 103 874 q 53 897 65 896 l 13 904 l 13 944 l 172 978 q 172 976 172 976 q 174 975 172 975 q 174 975 174 975 q 174 975 174 975 q 174 975 174 975 q 176 976 175 975 q 176 976 176 976 q 178 976 176 976 q 178 976 178 976 q 178 976 178 976 q 178 976 178 976 q 179 976 178 976 q 179 976 179 976 q 179 976 179 976 q 194 972 186 975 q 207 964 201 969 q 220 952 214 958 q 232 939 226 946 q 235 935 233 938 q 238 931 236 933 q 240 928 239 929 q 242 928 240 928 q 242 926 242 926 q 244 924 243 925 q 247 922 246 922 q 249 919 247 921 q 249 917 249 918 q 251 915 250 917 q 252 913 251 914 q 254 911 253 911 q 256 908 256 910 q 258 906 257 907 q 264 897 261 901 q 271 889 267 893 q 276 879 274 883 q 282 871 279 875 q 288 862 285 867 q 294 853 290 857 q 300 842 297 847 q 306 833 303 838 l 306 836 l 306 836 z "},"Z":{"ha":926,"x_min":21,"x_max":886,"o":"m 885 921 l 210 61 l 589 61 q 715 62 667 58 q 783 72 764 65 q 815 101 803 79 q 831 158 826 124 l 839 240 l 886 240 q 884 222 885 231 q 883 206 883 214 q 881 188 882 196 q 881 171 881 179 q 879 135 879 153 q 879 100 879 118 q 878 73 878 86 q 878 46 878 60 q 878 19 878 32 q 878 -4 878 7 q 861 -4 869 -4 q 844 -4 853 -4 q 826 -3 835 -3 q 810 -3 818 -3 q 774 -3 792 -3 q 739 -3 757 -3 q 683 -1 711 -1 q 628 0 656 0 q 572 0 600 0 q 515 0 543 0 q 499 0 507 0 q 485 0 492 0 q 469 0 476 0 q 454 0 461 0 q 382 0 418 0 q 310 0 346 0 q 238 -1 274 0 q 165 -3 201 -1 q 129 -3 147 -3 q 93 -3 111 -3 q 74 -3 83 -3 q 57 -4 65 -3 q 38 -4 47 -4 q 21 -4 29 -4 l 21 35 q 32 47 26 40 q 43 58 38 53 q 54 72 49 65 q 65 86 60 79 q 67 89 67 88 q 69 92 68 90 q 72 94 71 93 q 75 97 74 96 q 85 108 81 103 q 96 121 90 114 q 105 133 100 126 q 115 144 110 139 q 126 158 121 151 q 136 169 131 164 q 145 183 140 176 q 156 194 150 189 l 575 736 q 579 740 578 738 q 583 743 581 742 q 587 748 585 746 q 590 753 589 750 q 599 763 594 758 q 607 774 603 768 q 611 779 610 776 q 615 785 613 782 q 619 789 617 786 q 622 794 621 792 q 631 805 626 800 q 639 815 635 810 q 653 837 646 826 q 668 857 661 847 q 676 867 672 863 q 682 878 679 872 q 688 887 685 882 q 694 897 692 892 l 378 900 q 262 893 306 897 q 201 882 218 889 q 176 861 185 874 q 167 832 168 849 l 158 736 l 111 736 q 111 741 111 738 q 113 749 111 744 q 113 755 113 751 q 113 763 113 758 q 113 769 113 765 q 114 776 113 772 q 114 783 114 779 q 114 792 114 788 q 114 798 114 794 q 115 806 114 801 q 115 812 115 808 q 115 819 115 815 q 115 834 115 826 q 115 849 115 842 q 115 863 115 856 q 115 876 115 869 q 115 883 115 879 q 115 890 115 886 q 114 897 114 893 q 114 904 114 900 q 114 910 114 907 q 114 917 114 914 q 113 923 113 919 q 113 931 113 926 q 113 937 113 933 q 113 944 113 940 q 111 951 111 947 q 111 958 111 954 q 134 958 122 958 q 157 958 146 958 q 180 957 168 957 q 203 957 192 957 q 249 957 226 957 q 294 957 272 957 q 306 957 300 957 q 318 957 311 957 q 329 956 324 956 q 340 956 335 956 q 363 956 351 956 q 388 956 375 956 q 421 956 404 956 q 456 956 438 956 q 490 954 472 954 q 525 954 507 954 q 594 954 560 954 q 663 954 628 954 q 699 954 681 954 q 735 954 717 954 q 771 955 753 954 q 807 957 789 956 q 824 957 815 957 q 843 957 833 957 q 851 957 847 957 q 861 958 856 957 q 870 958 865 958 q 879 958 875 958 l 885 921 l 885 921 l 885 921 z "},"[":{"ha":463,"x_min":110,"x_max":400,"o":"m 122 19 l 122 733 q 121 752 121 742 q 121 775 121 763 q 121 798 121 786 q 121 822 121 810 q 119 872 119 847 q 118 918 118 896 q 115 958 117 942 q 110 988 113 975 l 122 1008 q 139 1005 131 1006 q 157 1004 147 1004 q 174 1003 165 1003 q 190 1003 182 1003 q 224 1003 207 1003 q 257 1003 240 1003 q 274 1003 265 1003 q 292 1003 282 1003 q 308 1003 300 1003 q 325 1003 317 1003 q 358 1003 342 1003 q 392 1006 375 1004 l 400 1000 l 400 964 l 394 957 l 342 957 q 306 951 322 954 q 275 942 289 949 q 253 927 261 936 q 244 906 246 918 q 242 886 243 896 q 242 865 242 876 q 241 854 242 860 q 240 844 240 849 q 240 833 240 839 q 240 822 240 828 q 239 797 239 810 q 239 774 239 785 q 239 751 239 761 q 239 731 239 740 l 239 19 q 239 13 239 15 q 239 8 239 10 q 239 -7 239 0 q 239 -24 239 -14 q 239 -47 239 -35 q 240 -72 239 -60 q 240 -83 240 -78 q 240 -94 240 -89 q 241 -104 240 -99 q 242 -115 242 -110 q 242 -136 242 -126 q 244 -156 243 -146 q 253 -177 246 -168 q 275 -192 261 -186 q 306 -201 289 -199 q 342 -204 322 -204 l 394 -204 l 400 -211 l 400 -247 l 392 -256 q 358 -253 375 -254 q 325 -253 342 -253 q 308 -253 317 -253 q 292 -253 300 -253 q 274 -253 282 -253 q 257 -253 265 -253 q 224 -253 240 -253 q 190 -253 207 -253 q 174 -253 182 -253 q 157 -254 165 -253 q 139 -255 147 -254 q 122 -256 131 -256 l 110 -237 q 114 -208 113 -225 q 117 -169 115 -192 q 119 -125 118 -147 q 121 -79 119 -103 q 121 -76 121 -78 q 121 -74 121 -75 q 121 -71 121 -72 q 121 -68 121 -69 q 121 -60 121 -64 q 121 -54 121 -57 q 121 -47 121 -50 q 121 -40 121 -43 q 121 -32 121 -36 q 121 -24 121 -28 q 121 -16 121 -19 q 122 -10 121 -12 q 122 -3 122 -6 q 122 3 122 0 q 122 9 122 6 q 122 17 122 13 l 122 19 l 122 19 z "},"\\":{"ha":842,"x_min":113,"x_max":711,"o":"m 113 1008 l 194 1008 l 711 0 l 629 0 l 113 1008 l 113 1008 l 113 1008 z "},"]":{"ha":463,"x_min":63,"x_max":353,"o":"m 340 733 l 340 19 q 340 8 340 13 q 342 -1 340 3 q 342 -13 342 -7 q 342 -25 342 -19 q 342 -48 342 -36 q 342 -72 342 -60 q 342 -122 342 -97 q 344 -168 343 -146 q 348 -208 346 -192 q 353 -237 350 -225 l 340 -256 q 306 -253 322 -254 q 272 -253 289 -253 q 239 -253 256 -253 q 206 -253 222 -253 q 171 -253 188 -253 q 138 -253 154 -253 q 104 -253 121 -253 q 71 -256 88 -254 l 63 -247 l 63 -211 l 68 -204 l 121 -204 q 158 -201 140 -204 q 189 -192 175 -199 q 210 -177 203 -186 q 218 -156 217 -168 q 219 -136 218 -146 q 221 -115 219 -126 q 221 -104 221 -110 q 222 -94 221 -99 q 222 -83 222 -89 q 222 -72 222 -78 q 222 -60 222 -67 q 224 -47 222 -54 q 224 -35 224 -42 q 224 -24 224 -29 q 224 -2 224 -11 q 224 17 224 7 l 224 733 q 224 751 224 740 q 224 774 224 761 q 224 785 224 779 q 224 797 224 792 q 222 810 222 804 q 222 822 222 817 q 222 833 222 828 q 222 844 222 839 q 221 854 221 849 q 221 865 221 860 q 219 886 219 876 q 218 906 218 896 q 210 927 217 918 q 189 942 203 936 q 158 951 175 949 q 121 954 140 954 l 68 957 l 63 964 l 63 1000 l 71 1008 q 104 1004 88 1006 q 138 1003 121 1003 q 171 1003 154 1003 q 206 1003 188 1003 q 239 1003 222 1003 q 272 1003 256 1003 q 306 1003 289 1003 q 340 1006 322 1004 l 353 990 q 348 959 350 976 q 344 919 346 942 q 342 875 343 897 q 342 829 342 853 q 342 826 342 828 q 342 824 342 825 q 342 821 342 822 q 342 818 342 819 q 342 810 342 814 q 342 804 342 807 q 342 797 342 800 q 342 790 342 793 q 342 782 342 786 q 342 774 342 778 q 342 766 342 769 q 342 760 342 763 q 340 751 340 756 q 340 744 340 747 q 340 737 340 740 q 340 731 340 733 l 340 733 l 340 733 z "},"^":{"ha":842,"x_min":71,"x_max":769,"o":"m 165 393 l 71 393 l 375 957 l 467 957 l 769 393 l 675 393 l 421 863 l 165 393 l 165 393 l 165 393 z "},"_":{"ha":694,"x_min":0,"x_max":694,"o":"m 694 -174 l 0 -174 l 0 -104 l 694 -104 l 694 -174 l 694 -174 l 694 -174 z "},"`":{"ha":463,"x_min":43,"x_max":354,"o":"m 299 703 l 99 828 q 95 827 97 826 q 90 829 93 828 q 88 830 89 829 q 88 832 88 831 q 85 833 86 832 q 83 835 85 833 q 69 845 75 839 q 56 857 63 851 q 47 872 50 864 q 43 889 43 879 q 46 908 43 900 q 54 924 49 917 q 69 934 61 931 q 89 938 78 938 q 97 937 93 938 q 106 933 101 936 q 114 930 110 932 q 124 925 118 928 q 130 919 126 922 q 138 913 133 915 q 142 910 140 911 q 146 907 143 908 q 149 904 147 906 q 153 901 151 903 q 155 899 154 900 q 157 896 156 897 q 160 894 158 894 q 163 892 161 893 l 354 703 l 299 703 l 299 703 l 299 703 z "},"a":{"ha":694,"x_min":44,"x_max":654,"o":"m 313 375 l 450 400 q 440 471 450 439 q 408 526 429 503 q 354 563 388 550 q 275 575 321 575 q 237 574 253 575 q 211 569 221 572 q 193 560 201 567 q 178 546 185 554 q 176 543 176 544 q 175 542 175 542 q 173 539 174 540 q 172 536 172 538 q 169 531 171 535 q 167 525 168 528 q 163 519 165 522 q 160 513 161 515 q 157 506 158 510 q 154 500 156 503 l 136 460 l 100 469 l 100 560 l 174 604 q 217 624 196 615 q 260 639 239 633 q 299 646 281 643 q 335 649 318 649 q 444 633 400 649 q 513 585 489 617 q 549 501 536 554 q 561 372 561 447 l 561 121 q 561 101 561 110 q 563 85 561 93 q 563 70 563 76 q 565 58 564 64 q 569 49 567 53 q 576 43 572 46 q 587 40 581 42 q 600 38 593 38 l 654 38 l 654 -4 q 650 -4 653 -4 q 646 -4 647 -4 q 641 -3 643 -3 q 636 -3 639 -3 q 628 -3 632 -3 q 619 -3 624 -3 q 611 -2 615 -3 q 603 -1 607 -1 q 593 0 597 0 q 585 0 589 0 q 576 0 581 0 q 568 0 572 0 q 558 0 563 0 q 550 0 554 0 q 536 0 543 0 q 522 0 529 0 q 516 0 519 0 q 510 -1 513 0 q 503 -1 507 -1 q 497 -1 500 -1 q 492 -1 494 -1 q 488 -1 490 -1 q 485 -1 486 -1 q 483 -3 485 -1 q 481 -3 482 -3 q 479 -3 481 -3 q 469 -3 474 -3 q 461 -3 465 -3 q 457 -3 460 -3 q 453 -4 454 -3 q 448 -4 450 -4 q 443 -4 446 -4 l 450 114 l 278 -6 q 268 -10 274 -8 q 256 -12 263 -11 q 241 -15 249 -14 q 225 -17 233 -15 q 222 -17 224 -17 q 219 -17 221 -17 q 217 -17 218 -17 q 214 -17 215 -17 q 149 -7 179 -17 q 93 22 118 3 q 56 74 68 43 q 44 149 44 106 q 63 242 44 203 q 118 303 81 281 q 195 341 154 325 q 281 367 236 357 q 285 367 283 367 q 289 368 286 367 q 292 369 290 368 q 296 369 294 369 q 304 370 300 369 q 313 372 308 371 l 313 375 l 313 375 m 450 172 l 450 356 q 426 351 438 353 q 403 346 414 349 q 381 342 392 344 q 358 338 369 340 q 331 331 344 335 q 303 324 317 328 q 276 315 289 319 q 247 304 263 310 q 219 288 232 299 q 194 263 206 278 q 177 233 185 249 q 167 200 169 217 q 165 192 165 196 q 164 186 164 189 q 164 180 164 183 q 164 174 164 176 q 172 126 164 147 q 197 90 181 106 q 233 67 214 75 q 272 60 251 60 q 304 64 288 60 q 338 78 321 68 q 371 99 354 88 q 406 124 388 110 q 410 126 408 125 q 414 129 413 128 q 416 131 415 131 q 418 133 417 132 q 419 134 418 133 q 421 136 419 135 q 431 147 426 142 q 439 156 435 151 q 446 164 443 160 q 450 169 449 168 l 450 172 l 450 172 z "},"b":{"ha":768,"x_min":-21,"x_max":706,"o":"m 208 997 l 208 515 l 211 515 l 285 590 q 307 607 294 599 q 336 622 319 615 q 370 635 353 629 q 406 644 388 640 q 417 645 411 644 q 429 647 424 646 q 435 647 432 647 q 442 649 438 647 q 447 649 444 649 q 453 649 450 649 q 561 628 514 649 q 640 565 608 607 q 689 474 672 524 q 706 365 706 424 q 705 347 706 356 q 703 328 704 338 q 701 317 701 322 q 700 308 700 313 q 698 298 699 303 q 696 289 697 293 q 680 236 690 263 q 656 185 669 210 q 627 142 642 160 q 596 111 613 124 l 457 14 q 451 8 454 10 q 446 4 449 6 q 439 1 442 1 q 433 0 436 0 q 422 -5 428 -3 q 411 -8 417 -7 q 390 -13 400 -11 q 368 -15 379 -15 q 358 -15 363 -15 q 349 -17 353 -15 q 339 -17 343 -17 q 331 -17 335 -17 q 327 -17 329 -17 q 322 -17 325 -17 q 319 -17 321 -17 q 314 -17 317 -17 q 272 -12 293 -15 q 232 -3 251 -8 q 193 10 211 1 q 158 31 175 18 l 103 -17 l 81 -8 q 81 -5 81 -7 q 81 -1 81 -3 q 81 1 81 0 q 81 4 81 3 q 81 10 81 7 q 83 18 82 14 q 83 21 83 19 q 85 25 83 22 q 85 28 85 26 q 85 32 85 31 q 85 37 85 35 q 86 40 85 39 q 86 45 86 43 q 86 49 86 47 l 92 213 l 92 861 q 90 881 92 871 q 86 899 89 890 q 76 911 83 907 q 57 915 68 915 l -21 918 l -21 957 q 8 959 -6 957 q 35 963 21 961 q 61 968 47 965 q 89 974 75 971 q 143 988 117 979 q 196 1006 169 996 l 208 997 l 208 997 l 208 997 m 208 428 l 208 129 q 210 120 208 124 q 213 114 211 117 q 219 106 215 110 q 228 100 222 103 q 236 94 232 97 q 246 89 240 92 q 257 82 251 85 q 269 76 263 79 q 296 66 282 71 q 324 58 310 61 q 338 56 331 57 q 351 53 344 54 q 358 52 354 53 q 365 51 361 51 q 372 51 368 51 q 378 51 375 51 q 456 68 419 51 q 524 118 493 85 q 569 202 554 151 q 585 321 585 253 q 574 406 585 365 q 539 485 563 447 q 480 540 517 521 q 392 558 443 558 q 342 552 365 558 q 297 533 318 546 q 260 508 276 521 q 232 479 243 494 q 222 464 226 471 q 214 450 217 457 q 210 437 211 443 q 208 425 208 431 l 208 428 l 208 428 z "},"c":{"ha":617,"x_min":36,"x_max":574,"o":"m 554 432 l 515 432 l 506 517 q 506 515 506 515 q 506 515 506 515 q 504 515 504 515 q 504 515 504 515 q 504 516 504 515 q 504 518 504 517 q 498 524 501 521 q 490 532 494 528 q 481 538 486 535 q 469 544 476 542 q 444 557 457 551 q 417 567 431 563 q 408 569 413 568 q 401 571 404 569 q 394 572 397 571 q 388 574 390 572 q 374 576 381 575 q 361 576 368 576 q 353 576 357 576 q 347 576 350 576 q 344 576 346 576 q 340 576 342 576 q 336 575 338 575 q 333 575 335 575 q 270 558 300 572 q 213 521 240 544 q 172 454 186 497 q 158 350 158 411 q 178 209 158 268 q 238 114 199 150 q 322 60 278 78 q 418 42 367 42 q 432 42 425 42 q 446 43 439 42 q 460 46 453 44 q 475 49 467 47 q 497 55 486 51 q 519 63 508 58 q 540 72 531 67 q 560 82 550 76 l 574 64 l 544 19 q 540 13 543 15 q 532 7 536 10 q 520 2 526 4 q 507 -1 514 0 q 492 -6 500 -4 q 476 -11 485 -8 q 459 -15 468 -12 q 440 -19 450 -18 q 397 -26 419 -24 q 351 -28 375 -28 q 235 -8 289 -28 q 132 53 181 13 q 60 153 85 93 q 36 290 36 213 q 44 373 36 335 q 68 442 51 411 q 103 498 85 474 q 142 539 121 522 q 144 542 143 540 q 147 544 146 543 q 152 547 150 546 q 156 550 154 549 q 161 555 158 553 q 167 558 164 557 q 172 563 169 561 q 179 567 175 565 q 191 573 185 569 q 203 581 197 576 q 209 585 206 583 q 217 589 213 586 q 223 592 219 590 q 231 596 226 594 q 242 601 236 599 q 253 607 247 604 q 258 610 256 608 q 264 613 261 611 q 268 614 265 613 q 274 617 271 615 q 306 629 289 624 q 339 639 322 635 q 372 646 356 643 q 407 649 389 649 q 456 646 433 649 q 496 636 478 643 q 514 630 506 633 q 531 624 522 626 q 545 616 538 619 q 558 610 553 613 q 560 608 560 608 q 563 607 561 607 q 563 605 563 606 q 565 604 564 604 q 570 602 568 603 q 574 600 572 601 q 567 572 569 588 q 561 540 564 557 q 558 505 560 522 q 556 468 556 488 q 554 458 554 463 q 554 449 554 453 q 554 438 554 443 q 554 429 554 433 l 554 432 l 554 432 z "},"d":{"ha":849,"x_min":49,"x_max":804,"o":"m 572 607 l 572 861 q 571 881 572 871 q 567 899 569 890 q 556 911 564 907 q 538 915 549 915 l 460 918 l 460 957 q 488 959 474 957 q 515 963 501 961 q 542 968 528 965 q 569 974 556 971 q 624 988 597 979 q 676 1006 650 996 l 689 997 l 689 142 q 689 114 689 126 q 690 90 689 101 q 692 72 690 81 q 696 58 694 64 q 702 50 699 53 q 711 44 706 47 q 724 41 717 43 q 740 39 731 39 l 804 38 l 804 -4 q 797 -4 800 -4 q 790 -4 793 -4 q 784 -3 788 -3 q 778 -3 781 -3 q 766 -3 772 -3 q 754 -3 760 -3 q 733 -1 743 -1 q 714 0 722 0 q 695 0 704 0 q 678 0 686 0 q 664 0 671 0 q 650 0 657 0 q 644 0 647 0 q 638 -1 640 0 q 631 -1 635 -1 q 625 -1 628 -1 q 620 -1 622 -1 q 615 -1 618 -1 q 613 -1 614 -1 q 611 -3 613 -1 q 609 -3 610 -3 q 607 -3 608 -3 q 597 -3 601 -3 q 589 -3 593 -3 q 585 -3 588 -3 q 581 -4 582 -3 q 576 -4 578 -4 q 571 -4 574 -4 l 578 124 l 424 -6 q 412 -10 419 -8 q 393 -14 404 -12 q 372 -16 383 -15 q 349 -17 360 -17 q 347 -17 347 -17 q 346 -17 346 -17 q 344 -17 344 -17 q 342 -17 343 -17 q 340 -17 340 -17 q 339 -17 339 -17 q 337 -17 338 -17 q 335 -17 336 -17 q 208 6 263 -17 q 118 74 154 28 q 66 176 83 119 q 49 301 49 233 q 58 389 49 349 q 88 464 68 429 q 130 521 107 497 q 179 558 153 544 l 301 625 q 331 636 317 631 q 360 643 346 642 q 383 647 372 646 q 404 649 394 649 q 428 648 417 649 q 451 644 440 647 q 463 642 457 643 q 474 640 468 640 q 485 638 479 639 q 496 635 490 636 q 505 631 500 633 q 515 628 510 629 q 524 624 519 625 q 533 619 529 622 q 542 616 538 618 q 551 613 547 614 q 562 608 557 610 q 572 604 567 607 l 572 607 l 572 607 m 572 307 l 572 486 q 569 492 572 488 q 561 503 567 497 q 548 516 556 510 q 532 528 540 522 q 510 542 522 535 q 485 556 499 550 q 458 567 471 563 q 429 576 444 572 q 417 578 424 578 q 404 581 411 579 q 392 583 399 582 q 381 583 386 583 q 378 583 379 583 q 378 583 378 583 q 378 583 378 583 q 378 583 378 583 q 376 583 376 583 q 376 583 376 583 q 284 566 324 582 q 219 518 244 550 q 182 440 194 488 q 169 329 169 393 q 169 322 169 325 q 169 315 169 318 q 169 312 169 314 q 169 308 169 310 q 170 304 169 306 q 171 300 171 303 q 190 213 174 254 q 232 135 206 172 q 298 78 260 97 q 386 60 336 60 q 429 66 408 60 q 469 86 450 72 q 506 114 489 99 q 538 147 524 129 q 540 150 539 149 q 542 153 540 151 q 544 158 543 156 q 547 161 546 160 q 563 191 557 176 q 569 221 568 206 q 572 253 571 236 q 572 289 572 271 q 572 292 572 290 q 572 296 572 294 q 572 301 572 299 q 572 304 572 303 l 572 307 l 572 307 z "},"e":{"ha":665,"x_min":36,"x_max":622,"o":"m 358 651 q 463 631 415 649 q 547 581 510 614 q 603 499 585 546 q 622 394 622 453 q 622 380 622 388 q 622 365 622 372 q 622 351 622 358 q 619 336 621 343 q 588 331 604 333 q 557 326 572 329 q 525 324 540 325 q 494 321 510 322 q 462 319 478 319 q 431 318 446 318 q 399 317 415 317 q 368 317 383 317 l 165 319 q 181 206 165 256 q 226 118 196 156 q 306 62 258 81 q 417 43 353 43 q 463 48 440 43 q 504 63 485 53 q 544 83 524 72 q 582 104 564 93 q 583 104 582 104 q 585 106 583 104 q 585 106 585 106 q 586 106 586 106 q 587 106 586 106 q 589 108 588 107 l 607 97 l 579 50 q 573 40 578 44 q 560 32 568 36 q 541 22 551 26 q 519 10 531 17 q 494 1 507 4 q 467 -7 482 -3 q 453 -11 460 -10 q 439 -15 446 -12 q 424 -19 431 -17 q 410 -22 417 -21 q 396 -24 403 -24 q 382 -26 389 -25 q 376 -26 379 -26 q 369 -28 372 -26 q 363 -28 367 -28 q 357 -28 360 -28 q 218 -6 278 -28 q 118 60 158 15 q 56 162 76 104 q 36 290 36 219 q 42 382 36 340 q 63 454 49 424 q 94 512 75 486 q 136 556 113 538 q 156 570 146 563 q 178 586 167 578 q 200 599 189 593 q 222 611 211 606 q 241 619 232 615 q 260 628 250 624 q 278 634 269 631 q 297 640 288 638 q 312 644 304 643 q 326 646 319 644 q 342 648 333 647 q 358 649 350 649 l 358 651 l 358 651 m 351 606 q 281 590 313 603 q 221 549 249 576 q 181 482 194 522 q 168 389 167 442 q 168 385 168 388 q 168 381 168 383 q 168 377 168 379 q 168 372 168 375 q 215 367 192 369 q 260 365 238 365 q 305 364 283 364 q 349 364 326 364 q 388 364 368 364 q 426 365 408 364 q 463 366 446 365 q 499 368 481 367 q 490 458 499 417 q 463 533 481 499 q 417 585 444 568 q 351 603 389 603 l 351 606 l 351 606 z "},"f":{"ha":463,"x_min":32,"x_max":474,"o":"m 474 996 l 474 889 l 457 881 q 437 894 447 888 q 415 906 426 900 q 390 914 403 911 q 365 917 378 917 q 313 906 333 917 q 282 876 292 896 q 268 817 272 857 q 264 718 264 778 l 264 603 l 446 608 l 436 535 l 264 535 l 264 142 q 264 114 264 126 q 265 90 264 101 q 267 72 265 81 q 271 58 269 64 q 277 50 274 53 q 286 44 281 47 q 299 41 292 43 q 315 39 306 39 l 379 38 l 379 -4 q 373 -4 376 -4 q 367 -4 369 -4 q 359 -3 363 -3 q 353 -3 356 -3 q 347 -3 350 -3 q 340 -3 343 -3 q 333 -3 336 -3 q 326 -3 329 -3 q 299 -1 313 -1 q 269 0 285 0 q 239 0 256 0 q 206 0 222 0 q 173 0 189 0 q 142 0 157 0 q 112 -1 126 0 q 85 -3 97 -1 q 71 -3 78 -3 q 57 -3 64 -3 q 51 -3 54 -3 q 44 -4 47 -3 q 38 -4 42 -4 q 32 -4 35 -4 l 32 38 l 96 42 q 112 42 104 40 q 125 44 119 43 q 135 50 131 47 q 140 58 139 53 q 144 72 143 64 q 146 90 144 81 q 146 101 146 96 q 147 113 146 107 q 147 125 147 118 q 147 139 147 132 l 147 535 l 51 529 l 51 560 l 147 603 l 147 661 q 151 722 147 693 q 161 775 154 751 q 179 819 168 799 q 206 858 190 840 l 286 953 q 301 967 293 960 q 318 979 310 974 q 336 989 326 985 q 356 997 346 993 q 369 1002 363 1000 q 383 1006 376 1004 q 398 1008 390 1007 q 411 1008 406 1008 q 414 1008 413 1008 q 417 1008 415 1008 q 418 1007 417 1007 q 421 1007 419 1007 q 424 1007 422 1007 q 426 1007 425 1007 q 429 1006 428 1006 q 432 1006 431 1006 q 442 1003 438 1004 q 453 1000 447 1003 q 458 998 456 999 q 464 997 461 997 q 468 995 465 996 q 474 993 471 994 l 474 996 l 474 996 z "},"g":{"ha":772,"x_min":44,"x_max":756,"o":"m 721 525 l 593 525 q 597 513 596 518 q 600 504 599 508 q 602 494 601 499 q 604 483 603 489 q 608 464 607 474 q 608 444 608 454 q 601 392 608 417 q 582 344 594 367 q 553 304 569 322 q 515 272 536 286 q 501 263 508 267 q 488 254 494 258 q 472 246 479 250 q 458 239 465 242 q 444 232 451 235 q 429 226 436 229 q 413 222 421 224 q 399 217 406 219 q 379 212 389 214 q 360 208 369 210 q 340 206 350 207 q 321 206 331 206 q 317 206 319 206 q 314 206 315 206 q 310 206 311 206 q 306 206 308 206 q 298 206 301 206 q 292 208 294 207 q 285 203 289 206 q 279 197 282 200 q 276 194 278 196 q 272 192 274 193 q 268 188 269 189 q 264 185 267 186 q 257 178 260 182 q 250 172 254 175 q 244 165 247 168 q 239 158 242 161 q 231 145 233 153 q 228 131 228 138 q 233 106 228 117 q 250 90 239 96 q 273 81 261 85 q 299 76 285 78 q 307 75 303 75 q 315 75 311 75 q 320 75 318 75 q 325 75 322 75 q 329 75 326 75 q 333 75 332 75 l 556 78 q 618 66 592 75 q 663 38 644 57 q 694 1 682 19 q 711 -39 706 -18 q 715 -53 714 -46 q 717 -68 715 -61 q 717 -74 717 -71 q 718 -82 718 -78 q 719 -88 719 -85 q 719 -94 719 -92 q 719 -97 719 -96 q 719 -100 719 -99 q 719 -103 719 -101 q 719 -107 719 -106 q 690 -209 717 -160 q 614 -303 664 -258 q 497 -370 564 -347 q 343 -393 429 -393 q 226 -378 279 -393 q 131 -335 174 -364 q 66 -268 88 -306 q 44 -185 44 -231 q 44 -179 44 -182 q 44 -174 44 -176 q 44 -167 44 -171 q 46 -161 44 -164 q 50 -136 47 -149 q 57 -112 53 -124 q 67 -92 61 -101 q 83 -74 74 -82 l 204 -8 q 164 4 182 -3 q 135 21 146 11 q 118 43 124 31 q 113 71 113 56 q 114 85 113 78 q 118 101 115 93 q 124 116 121 108 q 133 129 128 124 l 240 214 l 240 217 q 226 215 235 214 q 207 219 218 217 q 197 222 201 221 q 188 226 192 224 q 177 231 182 228 q 167 236 172 233 q 135 260 150 246 q 104 294 119 275 q 83 340 90 314 q 76 400 76 367 q 84 462 76 433 q 106 513 92 490 q 140 555 121 536 q 182 589 158 574 q 202 601 192 596 q 222 611 213 606 q 244 619 233 615 q 264 628 254 624 q 297 638 281 633 q 328 643 313 642 q 357 647 343 646 q 383 649 371 649 q 389 649 386 649 q 394 649 392 649 q 397 649 396 649 q 400 649 399 649 q 403 647 401 647 q 407 647 406 647 q 447 642 426 646 q 485 631 467 638 q 522 613 504 624 q 553 590 539 603 l 750 599 l 756 582 l 721 525 l 721 525 l 721 525 m 353 -350 q 457 -335 410 -350 q 539 -289 504 -319 q 592 -222 575 -258 q 610 -144 610 -186 q 600 -90 610 -114 q 571 -51 590 -67 q 512 -27 551 -35 q 414 -19 472 -19 q 385 -19 400 -19 q 350 -19 369 -19 q 311 -22 332 -19 q 267 -25 290 -24 q 256 -27 261 -25 q 244 -31 251 -29 q 233 -37 239 -33 q 219 -46 226 -40 q 194 -66 206 -54 q 171 -94 182 -78 q 156 -130 161 -111 q 150 -171 150 -149 q 165 -249 150 -215 q 210 -306 179 -283 q 275 -339 239 -328 q 353 -350 311 -350 l 353 -350 l 353 -350 m 492 403 q 483 474 492 439 q 454 539 474 508 q 406 586 436 571 q 332 601 375 601 q 271 590 297 601 q 228 554 244 578 q 201 501 210 531 q 193 438 193 472 q 204 357 193 392 q 238 299 215 322 q 289 265 261 276 q 350 253 317 253 q 406 263 381 253 q 451 294 431 274 q 481 342 471 315 q 492 400 492 368 l 492 403 l 492 403 z "},"h":{"ha":808,"x_min":8,"x_max":794,"o":"m 122 142 l 122 861 q 121 881 122 871 q 117 899 119 890 q 106 911 114 907 q 88 915 99 915 l 10 918 l 10 957 q 38 959 24 957 q 65 963 51 961 q 92 968 78 965 q 119 974 106 971 q 174 988 147 979 q 226 1006 200 996 l 239 997 l 239 528 l 242 528 l 344 617 q 347 616 346 615 q 350 618 349 617 q 353 621 351 619 q 356 624 354 622 q 376 635 365 631 q 397 643 386 640 q 424 647 408 646 q 457 649 439 649 q 562 633 518 649 q 632 585 606 617 q 673 508 660 553 q 686 407 686 464 l 686 142 q 686 114 686 126 q 688 90 686 101 q 690 72 688 81 q 693 58 692 64 q 699 50 696 53 q 708 44 703 47 q 721 41 714 43 q 738 39 728 39 l 794 38 l 794 -4 q 790 -4 793 -4 q 786 -4 788 -4 q 781 -3 783 -3 q 776 -3 779 -3 q 772 -3 775 -3 q 768 -3 769 -3 q 763 -3 765 -3 q 758 -3 761 -3 q 744 -1 751 -1 q 731 0 738 0 q 724 0 728 0 q 718 0 721 0 q 710 0 714 0 q 704 0 707 0 q 698 0 701 0 q 692 0 694 0 q 686 0 689 0 q 681 0 683 0 q 677 0 679 0 q 672 0 675 0 q 669 0 671 0 q 664 0 667 0 q 648 0 656 0 q 633 0 640 0 q 618 -1 625 0 q 604 -3 611 -1 q 594 -3 599 -3 q 586 -3 590 -3 q 583 -3 585 -3 q 578 -4 581 -3 q 574 -4 576 -4 q 569 -4 572 -4 l 569 390 q 558 463 569 431 q 525 518 547 496 q 474 553 503 542 q 410 564 446 564 q 408 564 408 564 q 407 564 407 564 q 407 564 407 564 q 407 564 407 564 q 406 564 406 564 q 406 564 406 564 q 357 555 381 563 q 310 532 333 547 q 272 500 288 517 q 247 467 256 483 q 244 458 246 463 q 240 450 242 454 q 239 442 239 446 q 239 433 239 438 l 239 142 q 239 114 239 126 q 240 90 239 101 q 242 72 240 81 q 246 58 244 64 q 252 50 249 53 q 261 44 256 47 q 274 41 267 43 q 290 39 281 39 l 353 38 l 353 -4 q 347 -4 350 -4 q 340 -4 343 -4 q 334 -3 338 -3 q 328 -3 331 -3 q 322 -3 325 -3 q 315 -3 318 -3 q 308 -3 311 -3 q 301 -3 304 -3 q 274 -1 288 -1 q 244 0 260 0 q 214 0 231 0 q 181 0 197 0 q 148 0 164 0 q 117 0 132 0 q 87 -1 101 0 q 60 -3 72 -1 q 47 -3 53 -3 q 33 -3 40 -3 q 27 -3 31 -3 q 21 -4 24 -3 q 15 -4 18 -4 q 8 -4 11 -4 l 8 38 l 71 42 q 87 42 79 40 q 100 44 94 43 q 110 50 106 47 q 115 58 114 53 q 119 72 118 64 q 121 90 119 81 q 121 101 121 96 q 122 113 121 107 q 122 125 122 118 q 122 139 122 132 l 122 142 l 122 142 z "},"i":{"ha":404,"x_min":29,"x_max":376,"o":"m 261 646 l 261 142 q 261 114 261 126 q 263 90 261 101 q 265 72 263 81 q 268 58 267 64 q 274 50 271 53 q 283 44 278 47 q 296 41 289 43 q 313 39 303 39 l 376 38 l 376 -4 q 370 -4 374 -4 q 364 -4 367 -4 q 356 -3 360 -3 q 350 -3 353 -3 q 344 -3 347 -3 q 338 -3 340 -3 q 330 -3 333 -3 q 324 -3 326 -3 q 296 -1 310 -1 q 267 0 282 0 q 236 0 253 0 q 203 0 219 0 q 170 0 186 0 q 139 0 154 0 q 109 -1 124 0 q 82 -3 94 -1 q 68 -3 75 -3 q 54 -3 61 -3 q 48 -3 51 -3 q 42 -4 44 -3 q 35 -4 39 -4 q 29 -4 32 -4 l 29 38 l 93 42 q 109 42 101 40 q 122 44 117 43 q 132 50 128 47 q 138 58 136 53 q 141 72 140 64 q 143 90 142 81 q 143 101 143 96 q 144 113 143 107 q 144 125 144 118 q 144 139 144 132 l 144 454 q 144 482 144 468 q 142 507 143 496 q 139 526 140 518 q 135 538 138 533 q 128 544 132 542 q 117 549 124 547 q 103 552 111 551 q 83 553 94 553 l 32 556 l 32 594 q 35 592 33 592 q 38 592 36 592 q 38 592 38 592 q 40 593 39 592 q 41 593 40 593 q 42 593 42 593 q 89 600 65 596 q 135 610 113 604 q 178 623 158 617 q 217 636 199 629 q 225 639 221 638 q 233 642 229 640 q 238 644 236 643 q 242 646 239 644 q 245 647 243 646 q 249 649 247 647 l 261 646 l 261 646 l 261 646 m 196 954 q 224 945 211 951 q 250 928 238 939 q 267 902 261 915 q 274 874 274 889 q 267 844 274 858 q 250 819 261 831 q 224 803 238 808 q 196 797 211 797 q 167 803 181 797 q 142 819 153 808 q 125 844 131 831 q 119 874 119 858 q 125 902 119 889 q 142 928 131 915 q 167 945 153 939 q 196 951 181 951 l 196 954 l 196 954 z "},"j":{"ha":325,"x_min":-56,"x_max":232,"o":"m 221 646 l 221 -26 q 216 -106 221 -68 q 201 -178 211 -144 q 178 -239 192 -211 q 147 -289 164 -267 q 111 -328 131 -310 q 69 -361 92 -346 q 21 -385 47 -376 q -36 -393 -6 -393 l -56 -340 q -43 -342 -49 -342 q -32 -343 -37 -343 q -26 -343 -29 -343 q -19 -344 -22 -343 q -13 -344 -17 -344 q -6 -344 -10 -344 q -2 -344 -4 -344 q 1 -343 0 -344 q 5 -342 3 -343 q 8 -340 7 -342 q 17 -337 13 -339 q 28 -332 22 -335 q 38 -323 33 -328 q 49 -312 43 -318 q 59 -300 54 -307 q 68 -285 64 -293 q 81 -246 75 -271 q 93 -185 88 -221 q 101 -106 99 -150 q 104 -10 104 -62 l 104 454 q 103 482 104 468 q 101 507 103 496 q 99 526 100 518 q 94 538 97 533 q 88 544 92 542 q 76 549 83 547 q 63 552 71 551 q 43 553 54 553 l -8 556 l -8 594 q -3 592 -6 592 q 0 592 -1 592 q 0 592 0 592 q 0 593 0 592 q 1 593 0 593 q 1 593 1 593 q 49 600 25 596 q 94 610 72 604 q 138 623 118 617 q 176 636 158 629 q 185 639 181 638 q 193 642 189 640 q 197 644 196 643 q 201 646 199 644 q 205 647 203 646 q 208 649 207 647 l 221 646 l 221 646 l 221 646 m 156 801 q 126 804 140 799 q 101 822 113 810 q 83 847 89 833 q 78 876 78 861 q 83 905 78 892 q 101 929 89 918 q 126 947 113 940 q 156 953 140 953 q 184 947 171 953 q 208 929 197 940 q 226 905 219 918 q 232 876 232 892 q 226 847 232 861 q 208 822 219 833 q 184 804 197 810 q 156 799 171 799 l 156 801 l 156 801 z "},"k":{"ha":772,"x_min":29,"x_max":763,"o":"m 144 142 l 144 861 q 143 881 144 871 q 139 899 142 890 q 128 911 136 907 q 110 915 121 915 l 32 918 l 32 957 q 60 959 46 957 q 88 963 74 961 q 114 968 100 965 q 142 974 128 971 q 196 988 169 979 q 249 1006 222 996 l 261 997 l 261 363 l 363 444 q 367 446 365 444 q 372 449 369 447 q 376 453 374 451 q 381 457 379 456 q 385 461 383 460 q 390 465 388 463 q 394 469 392 467 q 400 472 397 471 q 415 487 407 479 q 432 501 424 494 q 449 516 440 508 q 465 532 457 524 q 494 558 481 544 q 521 585 507 571 q 546 610 533 597 q 571 635 558 622 l 710 638 l 710 596 q 708 593 708 593 q 707 593 707 593 q 707 593 707 593 q 707 593 707 593 q 705 593 706 593 q 704 593 704 593 q 704 593 704 593 q 704 593 704 593 q 703 593 703 593 q 703 593 703 593 q 665 588 683 593 q 629 574 646 583 q 596 553 611 564 q 565 532 581 543 q 563 530 564 531 q 563 529 563 529 q 562 529 563 529 q 561 529 561 529 q 560 528 560 528 q 560 528 560 528 l 381 390 q 402 363 392 375 q 424 339 413 350 q 447 316 435 328 q 469 293 458 304 l 644 122 q 649 116 647 118 q 653 111 651 114 q 658 108 656 110 q 663 103 660 106 q 678 90 669 96 q 696 76 686 83 q 713 66 704 71 q 732 58 722 61 q 736 56 735 57 q 740 56 738 56 q 744 54 742 54 q 747 54 746 54 q 751 53 750 54 q 756 53 753 53 q 759 53 757 53 q 763 53 761 53 l 763 24 l 629 -17 l 261 333 l 261 142 q 261 114 261 126 q 263 90 261 101 q 265 72 263 81 q 268 58 267 64 q 274 50 271 53 q 283 44 278 47 q 296 41 289 43 q 313 39 303 39 l 374 38 l 374 -4 q 367 -4 371 -4 q 361 -4 364 -4 q 355 -3 358 -3 q 349 -3 351 -3 q 337 -3 343 -3 q 324 -3 331 -3 q 296 -1 310 -1 q 267 0 282 0 q 236 0 253 0 q 203 0 219 0 q 170 0 186 0 q 139 0 154 0 q 109 -1 124 0 q 82 -3 94 -1 q 68 -3 75 -3 q 54 -3 61 -3 q 48 -3 51 -3 q 42 -4 44 -3 q 35 -4 39 -4 q 29 -4 32 -4 l 29 38 l 93 42 q 109 42 101 40 q 122 44 117 43 q 132 50 128 47 q 138 58 136 53 q 141 72 140 64 q 143 90 142 81 q 143 101 143 96 q 144 113 143 107 q 144 125 144 118 q 144 139 144 132 l 144 142 l 144 142 z "},"l":{"ha":404,"x_min":29,"x_max":376,"o":"m 144 142 l 144 861 q 143 881 144 871 q 139 899 142 890 q 128 911 136 907 q 110 915 121 915 l 32 918 l 32 957 q 60 959 46 957 q 88 963 74 961 q 114 968 100 965 q 142 974 128 971 q 196 988 169 979 q 249 1006 222 996 l 261 997 l 261 142 q 261 114 261 126 q 263 90 261 101 q 265 72 263 81 q 268 58 267 64 q 274 50 271 53 q 283 44 278 47 q 296 41 289 43 q 313 39 303 39 l 376 38 l 376 -4 q 370 -4 374 -4 q 364 -4 367 -4 q 356 -3 360 -3 q 350 -3 353 -3 q 344 -3 347 -3 q 338 -3 340 -3 q 330 -3 333 -3 q 324 -3 326 -3 q 296 -1 310 -1 q 267 0 282 0 q 236 0 253 0 q 203 0 219 0 q 170 0 186 0 q 139 0 154 0 q 109 -1 124 0 q 82 -3 94 -1 q 68 -3 75 -3 q 54 -3 61 -3 q 48 -3 51 -3 q 42 -4 44 -3 q 35 -4 39 -4 q 29 -4 32 -4 l 29 38 l 93 42 q 109 42 101 40 q 122 44 117 43 q 132 50 128 47 q 138 58 136 53 q 141 72 140 64 q 143 90 142 81 q 143 101 143 96 q 144 113 143 107 q 144 125 144 118 q 144 139 144 132 l 144 142 l 144 142 z "},"m":{"ha":1226,"x_min":22,"x_max":1207,"o":"m 138 142 l 138 454 q 137 482 138 468 q 135 507 136 496 q 132 526 133 518 q 128 538 131 533 q 121 544 125 542 q 110 549 117 547 q 96 552 104 551 q 76 553 88 553 l 25 556 l 25 594 q 28 592 26 592 q 31 592 29 592 q 31 592 31 592 q 33 593 32 592 q 34 593 33 593 q 35 593 35 593 q 82 600 58 596 q 128 610 106 604 q 172 623 151 617 q 210 636 192 629 q 218 639 214 638 q 226 642 222 640 q 231 644 229 643 q 235 646 232 644 q 238 647 236 646 q 242 649 240 647 l 254 646 l 254 528 l 350 617 q 374 630 361 624 q 401 640 388 636 q 434 647 417 644 q 472 649 451 649 q 531 641 503 649 q 583 618 558 633 q 628 579 608 604 q 663 519 649 554 l 768 617 q 792 630 779 624 q 819 640 806 636 q 852 647 835 644 q 890 649 869 649 q 966 634 931 649 q 1031 590 1001 619 q 1075 520 1060 561 q 1090 425 1090 479 l 1090 142 q 1090 114 1090 126 q 1092 90 1090 101 q 1094 72 1092 81 q 1097 58 1096 64 q 1103 50 1100 53 q 1113 44 1107 47 q 1125 41 1118 43 q 1142 39 1132 39 l 1207 38 l 1207 -4 q 1201 -4 1204 -4 q 1196 -4 1199 -4 q 1190 -3 1193 -3 q 1185 -3 1188 -3 q 1174 -3 1179 -3 q 1165 -3 1169 -3 q 1145 -1 1156 -1 q 1124 0 1135 0 q 1104 0 1114 0 q 1085 0 1094 0 q 1081 0 1083 0 q 1076 0 1079 0 q 1073 0 1075 0 q 1068 0 1071 0 q 1052 0 1060 0 q 1038 0 1044 0 q 1022 -1 1029 0 q 1008 -3 1015 -1 q 999 -3 1003 -3 q 990 -3 994 -3 q 987 -3 989 -3 q 982 -4 985 -3 q 978 -4 981 -4 q 974 -4 976 -4 l 974 390 q 965 453 974 422 q 942 510 957 483 q 901 551 926 538 q 843 564 876 564 q 841 564 842 564 q 840 564 840 564 q 840 564 840 564 q 840 564 840 564 q 839 564 839 564 q 839 564 839 564 q 790 555 814 563 q 743 532 767 547 q 705 500 721 517 q 681 467 689 483 q 677 458 679 463 q 674 450 675 454 q 672 442 672 446 q 672 433 672 438 l 672 142 q 672 114 672 126 q 674 90 672 101 q 676 72 674 81 q 679 58 678 64 q 685 50 682 53 q 694 44 689 47 q 707 41 700 43 q 724 39 714 39 l 788 38 l 788 -4 q 781 -4 785 -4 q 775 -4 778 -4 q 767 -3 771 -3 q 761 -3 764 -3 q 755 -3 758 -3 q 749 -3 751 -3 q 741 -3 744 -3 q 735 -3 738 -3 q 707 -1 721 -1 q 678 0 693 0 q 647 0 664 0 q 614 0 631 0 q 581 0 597 0 q 550 0 565 0 q 520 -1 535 0 q 493 -3 506 -1 q 479 -3 486 -3 q 465 -3 472 -3 q 459 -3 463 -3 q 453 -4 456 -3 q 447 -4 450 -4 q 440 -4 443 -4 l 440 38 l 504 42 q 520 42 513 40 q 533 44 528 43 q 543 50 539 47 q 549 58 547 53 q 552 72 551 64 q 554 90 553 81 q 554 101 554 96 q 556 113 554 107 q 556 125 556 118 q 556 139 556 132 l 556 390 q 547 453 556 422 q 524 510 539 483 q 483 551 508 538 q 425 564 458 564 q 423 564 424 564 q 422 564 422 564 q 422 564 422 564 q 422 564 422 564 q 421 564 421 564 q 421 564 421 564 q 372 555 396 563 q 325 532 349 547 q 287 500 303 517 q 263 467 271 483 q 259 458 261 463 q 256 450 257 454 q 254 442 254 446 q 254 433 254 438 l 254 142 q 254 114 254 126 q 256 90 254 101 q 258 72 256 81 q 261 58 260 64 q 267 50 264 53 q 276 44 271 47 q 289 41 282 43 q 306 39 296 39 l 364 38 l 364 -4 q 358 -4 361 -4 q 353 -4 356 -4 q 346 -3 349 -3 q 340 -3 343 -3 q 328 -3 335 -3 q 315 -3 322 -3 q 289 -1 303 -1 q 260 0 275 0 q 229 0 246 0 q 196 0 213 0 q 163 0 179 0 q 132 0 147 0 q 102 -1 117 0 q 75 -3 88 -1 q 61 -3 68 -3 q 47 -3 54 -3 q 41 -3 44 -3 q 35 -4 38 -3 q 28 -4 32 -4 q 22 -4 25 -4 l 22 38 l 86 42 q 102 42 94 40 q 115 44 110 43 q 125 50 121 47 q 131 58 129 53 q 134 72 133 64 q 136 90 135 81 q 136 101 136 96 q 138 113 136 107 q 138 125 138 118 q 138 139 138 132 l 138 142 l 138 142 z "},"n":{"ha":808,"x_min":8,"x_max":794,"o":"m 239 436 l 239 142 q 239 114 239 126 q 240 90 239 101 q 242 72 240 81 q 246 58 244 64 q 252 50 249 53 q 261 44 256 47 q 274 41 267 43 q 290 39 281 39 l 353 38 l 353 -4 q 347 -4 350 -4 q 340 -4 343 -4 q 334 -3 338 -3 q 328 -3 331 -3 q 322 -3 325 -3 q 315 -3 318 -3 q 308 -3 311 -3 q 301 -3 304 -3 q 274 -1 288 -1 q 244 0 260 0 q 214 0 231 0 q 181 0 197 0 q 148 0 164 0 q 117 0 132 0 q 87 -1 101 0 q 60 -3 72 -1 q 47 -3 53 -3 q 33 -3 40 -3 q 27 -3 31 -3 q 21 -4 24 -3 q 15 -4 18 -4 q 8 -4 11 -4 l 8 38 l 71 42 q 87 42 79 40 q 100 44 94 43 q 110 50 106 47 q 115 58 114 53 q 119 72 118 64 q 121 90 119 81 q 121 101 121 96 q 122 113 121 107 q 122 125 122 118 q 122 139 122 132 l 122 454 q 122 482 122 468 q 119 507 121 496 q 117 526 118 518 q 113 538 115 533 q 106 544 110 542 q 94 549 101 547 q 81 552 89 551 q 61 553 72 553 l 10 556 l 10 594 q 13 592 11 592 q 15 592 14 592 q 16 592 15 592 q 18 593 17 592 q 19 593 18 593 q 19 593 19 593 q 67 600 43 596 q 113 610 90 604 q 156 623 136 617 q 194 636 176 629 q 203 639 199 638 q 211 642 207 640 q 215 644 214 643 q 219 646 217 644 q 223 647 221 646 q 226 649 225 647 l 239 646 l 239 528 l 242 528 l 344 617 q 347 616 346 615 q 350 618 349 617 q 353 621 351 619 q 356 624 354 622 q 376 635 365 631 q 397 643 386 640 q 424 647 408 646 q 457 649 439 649 q 562 633 518 649 q 632 585 606 617 q 673 508 660 553 q 686 407 686 464 l 686 142 q 686 114 686 126 q 688 90 686 101 q 690 72 688 81 q 693 58 692 64 q 699 50 696 53 q 708 44 703 47 q 721 41 714 43 q 738 39 728 39 l 794 38 l 794 -4 q 790 -4 793 -4 q 786 -4 788 -4 q 781 -3 783 -3 q 776 -3 779 -3 q 772 -3 775 -3 q 768 -3 769 -3 q 763 -3 765 -3 q 758 -3 761 -3 q 744 -1 751 -1 q 731 0 738 0 q 724 0 728 0 q 718 0 721 0 q 710 0 714 0 q 704 0 707 0 q 698 0 701 0 q 692 0 694 0 q 686 0 689 0 q 681 0 683 0 q 677 0 679 0 q 672 0 675 0 q 669 0 671 0 q 664 0 667 0 q 648 0 656 0 q 633 0 640 0 q 618 -1 625 0 q 604 -3 611 -1 q 594 -3 599 -3 q 586 -3 590 -3 q 583 -3 585 -3 q 578 -4 581 -3 q 574 -4 576 -4 q 569 -4 572 -4 l 569 390 q 558 463 569 431 q 525 518 547 496 q 474 553 503 542 q 410 564 446 564 q 408 564 408 564 q 407 564 407 564 q 407 564 407 564 q 407 564 407 564 q 406 564 406 564 q 406 564 406 564 q 357 555 381 563 q 310 532 333 547 q 272 500 288 517 q 247 467 256 483 q 244 458 246 463 q 240 450 242 454 q 239 442 239 446 q 239 433 239 438 l 239 436 l 239 436 z "},"o":{"ha":758,"x_min":44,"x_max":714,"o":"m 350 -28 q 348 -28 349 -28 q 347 -28 347 -28 q 346 -28 346 -28 q 346 -28 346 -28 q 344 -28 344 -28 q 343 -28 343 -28 q 341 -28 342 -28 q 340 -28 340 -28 q 223 -6 276 -28 q 128 63 169 17 q 65 166 86 108 q 44 294 44 224 q 67 436 44 372 q 138 550 90 500 q 249 624 183 599 q 399 649 314 649 q 521 626 465 649 q 622 557 576 603 q 691 455 668 511 q 714 332 714 399 q 688 186 714 251 q 611 71 663 121 q 494 -3 560 21 q 350 -28 429 -28 l 350 -28 l 350 -28 m 367 606 q 274 583 311 603 q 215 526 236 564 q 184 446 194 489 q 174 354 174 403 q 174 333 174 344 q 175 310 174 321 q 177 287 175 299 q 181 264 179 275 q 203 174 188 217 q 246 93 219 132 q 310 35 271 54 q 404 15 350 15 q 485 35 451 15 q 542 94 519 56 q 574 178 563 135 q 585 271 585 222 q 569 396 585 338 q 525 504 554 454 q 456 578 496 553 q 367 603 417 603 l 367 606 l 367 606 z "},"p":{"ha":835,"x_min":11,"x_max":769,"o":"m 126 -244 l 126 454 q 126 482 126 468 q 124 507 125 496 q 121 526 122 518 q 117 538 119 533 q 110 544 114 542 q 99 549 106 547 q 85 552 93 551 q 65 553 76 553 l 14 556 l 14 594 q 17 592 15 592 q 19 592 18 592 q 20 592 19 592 q 22 593 21 592 q 23 593 22 593 q 24 593 24 593 q 71 600 47 596 q 117 610 94 604 q 160 623 140 617 q 199 636 181 629 q 207 639 203 638 q 215 642 211 640 q 219 644 218 643 q 224 646 221 644 q 227 647 225 646 q 231 649 229 647 l 243 646 l 243 515 l 246 515 l 357 617 q 378 628 365 622 q 408 639 392 633 q 445 646 425 643 q 488 649 465 649 q 592 629 543 649 q 683 571 640 610 q 748 481 726 532 q 769 365 769 429 q 768 344 769 356 q 764 321 767 332 q 759 297 763 308 q 751 274 756 285 q 739 240 746 257 q 724 208 732 224 q 715 192 719 200 q 708 178 711 185 q 700 165 704 171 q 692 153 696 158 q 681 138 686 144 q 669 124 675 131 q 658 113 664 118 q 649 106 653 108 l 490 6 q 470 -4 481 0 q 447 -11 460 -8 q 422 -15 435 -14 q 394 -17 408 -17 q 386 -17 390 -17 q 376 -17 382 -17 q 367 -15 372 -15 q 357 -15 363 -15 q 347 -15 351 -15 q 338 -12 342 -14 q 327 -12 332 -12 q 317 -10 322 -11 q 306 -7 311 -8 q 297 -6 301 -6 q 287 -3 292 -4 q 278 0 282 -1 q 260 6 268 1 q 243 15 251 10 l 243 -244 q 243 -271 243 -258 q 244 -293 243 -283 q 247 -312 244 -304 q 250 -325 249 -319 q 256 -333 253 -329 q 265 -339 260 -337 q 278 -342 271 -342 q 294 -344 285 -343 l 358 -349 l 358 -390 q 352 -390 356 -390 q 346 -390 349 -390 q 338 -389 342 -389 q 332 -389 335 -389 q 326 -389 329 -389 q 319 -389 322 -389 q 312 -389 315 -389 q 306 -389 308 -389 q 278 -387 292 -387 q 249 -386 264 -386 q 218 -386 235 -386 q 185 -386 201 -386 q 152 -386 168 -386 q 121 -386 136 -386 q 91 -387 106 -386 q 64 -389 76 -387 q 50 -389 57 -389 q 36 -389 43 -389 q 30 -389 33 -389 q 24 -390 26 -389 q 17 -390 21 -390 q 11 -390 14 -390 l 11 -349 l 75 -344 q 91 -342 83 -343 q 104 -339 99 -342 q 114 -333 110 -337 q 119 -325 118 -329 q 123 -312 122 -319 q 125 -293 124 -304 q 125 -282 125 -287 q 126 -271 125 -276 q 126 -258 126 -264 q 126 -244 126 -251 l 126 -244 l 126 -244 m 243 418 l 243 136 q 285 94 263 111 q 332 69 307 78 q 383 56 356 60 q 440 51 410 51 q 519 70 482 51 q 586 128 556 89 q 633 215 618 167 q 649 324 649 264 q 635 414 649 372 q 594 490 622 456 q 527 541 568 524 q 432 558 486 558 q 378 552 403 558 q 333 535 353 546 q 299 511 314 524 q 272 486 283 499 q 265 478 268 482 q 260 469 263 474 q 255 461 257 465 q 250 453 253 457 q 245 442 247 447 q 243 433 243 438 q 243 429 243 432 q 243 425 243 426 q 243 420 243 422 q 243 415 243 418 l 243 418 l 243 418 z "},"q":{"ha":778,"x_min":49,"x_max":778,"o":"m 546 -244 l 546 92 l 401 0 q 389 -7 396 -4 q 374 -11 382 -10 q 358 -15 365 -14 q 343 -17 350 -15 q 340 -17 342 -17 q 338 -17 339 -17 q 335 -17 336 -17 q 332 -17 333 -17 q 330 -17 331 -17 q 328 -17 329 -17 q 326 -17 326 -17 q 324 -17 325 -17 q 200 9 251 -12 q 118 71 149 31 q 70 156 88 111 q 50 247 53 200 q 49 253 49 250 q 49 261 49 257 q 49 269 49 265 q 49 278 49 274 q 58 373 49 331 q 88 449 68 415 q 131 506 107 481 q 183 550 154 532 l 300 628 q 317 633 307 629 q 342 640 328 636 q 368 645 354 643 q 396 649 382 647 q 398 649 397 649 q 400 649 399 649 q 402 649 401 649 q 404 649 403 649 q 454 646 429 649 q 504 636 479 643 q 553 622 529 631 q 600 603 578 614 l 668 649 l 694 633 q 684 608 689 621 q 676 582 679 596 q 672 555 674 568 q 668 528 669 542 q 665 503 667 515 q 664 481 664 492 q 663 459 663 469 q 663 439 663 449 l 663 -244 q 663 -271 663 -258 q 664 -293 663 -283 q 666 -312 664 -304 q 669 -325 668 -319 q 676 -333 672 -329 q 685 -339 679 -337 q 697 -342 690 -342 q 714 -344 704 -343 l 778 -349 l 778 -390 q 772 -390 775 -390 q 765 -390 768 -390 q 758 -389 761 -389 q 751 -389 754 -389 q 745 -389 749 -389 q 739 -389 742 -389 q 731 -389 735 -389 q 725 -389 728 -389 q 697 -387 711 -387 q 668 -386 683 -386 q 638 -386 654 -386 q 604 -386 621 -386 q 578 -386 590 -386 q 553 -386 565 -386 q 541 -386 547 -386 q 528 -387 535 -386 q 516 -387 522 -387 q 503 -387 510 -387 q 497 -387 500 -387 q 490 -387 493 -387 q 488 -387 489 -387 q 485 -389 486 -387 q 481 -389 482 -389 q 478 -389 479 -389 q 469 -389 474 -389 q 463 -389 465 -389 q 454 -389 458 -389 q 446 -389 450 -389 q 438 -389 442 -389 q 431 -390 433 -389 q 422 -390 426 -390 q 414 -390 418 -390 l 414 -349 l 494 -344 q 510 -342 503 -343 q 524 -339 518 -342 q 533 -333 529 -337 q 539 -325 538 -329 q 542 -312 542 -319 q 544 -293 543 -304 q 544 -282 544 -287 q 546 -271 544 -276 q 546 -258 546 -264 q 546 -244 546 -251 l 546 -244 l 546 -244 m 546 167 l 546 529 q 516 550 532 540 q 483 565 500 560 q 448 576 465 572 q 414 581 431 579 q 408 581 411 581 q 403 582 406 581 q 397 582 400 582 q 392 582 394 582 q 386 582 389 582 q 381 583 383 582 q 375 583 378 583 q 369 583 372 583 q 364 583 367 583 q 358 583 361 583 q 351 582 354 582 q 346 582 349 582 q 335 580 340 581 q 324 578 329 579 q 267 554 294 571 q 217 510 240 538 q 181 443 193 483 q 169 349 169 403 q 169 345 169 347 q 169 342 169 343 q 169 338 169 339 q 169 333 169 336 q 169 326 169 329 q 171 319 169 322 q 186 226 174 271 q 222 140 199 181 q 287 80 246 100 q 385 60 328 60 q 392 60 388 60 q 400 60 396 60 q 404 60 403 60 q 408 61 406 60 q 412 62 410 61 q 415 64 414 63 q 429 67 422 65 q 444 72 436 69 q 458 78 451 75 q 472 86 465 82 q 497 103 486 94 q 518 121 508 111 q 529 132 525 126 q 538 143 533 138 q 544 155 542 150 q 546 164 546 160 l 546 167 l 546 167 z "},"r":{"ha":549,"x_min":29,"x_max":519,"o":"m 144 142 l 144 454 q 144 482 144 468 q 142 507 143 496 q 139 526 140 518 q 135 538 138 533 q 128 544 132 542 q 117 549 124 547 q 103 552 111 551 q 83 553 94 553 l 32 556 l 32 594 q 35 592 33 592 q 38 592 36 592 q 38 592 38 592 q 40 593 39 592 q 41 593 40 593 q 42 593 42 593 q 89 600 65 596 q 135 610 113 604 q 178 623 158 617 q 217 636 199 629 q 225 639 221 638 q 233 642 229 640 q 238 644 236 643 q 242 646 239 644 q 245 647 243 646 q 249 649 247 647 l 261 646 l 261 506 l 264 506 l 339 594 q 353 607 346 600 q 369 619 361 614 q 386 631 378 626 q 403 638 394 635 q 409 640 406 639 q 417 642 413 640 q 423 644 419 643 q 429 646 426 644 q 435 647 432 646 q 443 647 439 647 q 449 649 446 649 q 456 649 453 649 q 460 649 458 649 q 464 649 463 649 q 466 649 465 649 q 468 649 467 649 q 470 647 469 647 q 472 647 471 647 q 487 645 479 646 q 500 642 494 644 q 511 638 507 640 q 519 633 515 636 l 507 469 l 478 469 q 463 490 472 479 q 443 511 454 501 q 417 526 432 521 q 383 531 403 531 q 340 519 361 531 q 299 488 318 508 q 271 438 281 465 q 261 378 261 411 l 261 142 q 261 114 261 126 q 263 90 261 101 q 265 72 263 81 q 268 58 267 64 q 275 50 271 53 q 288 44 279 47 q 304 41 294 43 q 326 39 314 39 l 399 38 l 399 -4 q 390 -4 394 -4 q 381 -4 385 -4 q 372 -3 376 -3 q 364 -3 368 -3 q 347 -3 356 -3 q 331 -3 339 -3 q 325 -3 328 -3 q 319 -3 322 -3 q 314 -1 317 -1 q 308 -1 311 -1 q 297 -1 303 -1 q 286 -1 292 -1 q 266 0 276 0 q 244 0 256 0 q 224 0 235 0 q 203 0 214 0 q 170 0 186 0 q 139 0 154 0 q 109 -1 124 0 q 82 -3 94 -1 q 68 -3 75 -3 q 54 -3 61 -3 q 48 -3 51 -3 q 42 -4 44 -3 q 35 -4 39 -4 q 29 -4 32 -4 l 29 38 l 93 42 q 109 42 101 40 q 122 44 117 43 q 132 50 128 47 q 138 58 136 53 q 141 72 140 64 q 143 90 142 81 q 143 101 143 96 q 144 113 143 107 q 144 125 144 118 q 144 139 144 132 l 144 142 l 144 142 z "},"s":{"ha":589,"x_min":42,"x_max":543,"o":"m 57 199 l 99 199 l 99 142 q 109 92 99 113 q 142 57 119 71 q 188 35 164 43 q 239 24 213 26 q 248 22 243 22 q 258 21 253 21 q 267 21 263 21 q 278 21 272 21 q 338 29 310 21 q 392 56 367 38 q 428 97 415 74 q 440 147 440 119 q 435 178 440 164 q 422 206 431 193 q 401 226 414 218 q 374 239 389 235 q 344 245 360 242 q 314 253 329 249 q 281 261 297 257 q 250 269 265 265 q 230 275 240 272 q 208 281 219 278 q 189 287 199 283 q 169 294 179 290 q 123 317 144 304 q 85 347 101 331 q 60 389 68 364 q 51 446 51 414 q 72 542 51 503 q 133 603 92 581 q 219 638 174 626 q 313 649 264 649 q 360 646 336 649 q 406 639 383 643 q 450 627 429 633 q 492 614 471 621 q 490 594 490 604 q 489 576 489 585 q 488 557 488 567 q 488 538 488 547 q 485 498 486 518 q 485 457 485 478 l 446 460 l 446 492 q 433 536 446 515 q 397 571 421 557 q 347 594 374 586 q 293 603 321 601 q 290 603 292 603 q 288 603 289 603 q 285 603 286 603 q 285 603 285 603 q 226 597 250 603 q 186 578 201 590 q 163 551 172 565 q 151 522 154 538 q 149 514 150 518 q 149 506 149 510 q 149 502 149 504 q 149 499 149 500 q 149 494 149 496 q 149 490 149 493 q 158 450 149 468 q 185 419 167 432 q 232 397 203 407 q 300 381 261 388 q 407 356 361 371 q 483 322 453 342 q 528 274 513 304 q 543 203 543 243 q 519 102 543 146 q 447 29 496 58 q 347 -13 400 1 q 236 -28 293 -28 q 225 -28 231 -28 q 214 -28 219 -28 q 203 -26 208 -26 q 192 -26 197 -26 q 170 -24 181 -25 q 149 -21 160 -24 q 122 -17 135 -19 q 96 -11 108 -14 q 82 -8 89 -10 q 69 -4 75 -6 q 56 0 63 -1 q 42 3 49 1 q 49 40 46 21 q 53 78 51 58 q 55 117 54 97 q 57 157 56 136 q 57 166 57 161 q 57 176 57 171 q 57 185 57 181 q 57 196 57 190 l 57 199 l 57 199 z "},"t":{"ha":453,"x_min":31,"x_max":443,"o":"m 136 531 l 31 525 l 31 554 l 139 603 l 139 700 q 139 712 139 706 q 139 725 139 718 q 138 738 138 731 q 138 751 138 744 q 135 779 136 765 q 133 807 135 793 q 152 813 143 810 q 169 819 161 815 q 186 826 178 822 q 203 833 194 829 q 217 840 210 836 q 231 847 225 843 q 242 853 238 850 q 251 860 247 857 l 268 847 q 265 823 267 835 q 263 800 264 811 q 260 776 261 788 q 258 753 258 764 q 256 725 257 739 q 254 697 254 711 q 253 671 253 683 q 253 647 253 658 l 253 597 l 443 606 l 431 531 l 253 531 l 253 167 q 257 122 253 140 q 269 92 261 104 q 292 74 278 79 q 329 68 307 68 q 349 69 340 68 q 367 74 358 71 q 383 80 375 76 q 397 88 392 83 q 399 88 399 88 q 401 89 400 88 q 402 90 401 89 q 404 90 403 90 q 406 91 406 90 q 408 93 407 92 q 409 94 408 93 q 411 94 410 94 l 429 74 l 363 0 q 354 -6 360 -3 q 340 -10 349 -8 q 324 -13 332 -12 q 307 -15 315 -14 q 303 -15 306 -15 q 299 -17 300 -15 q 294 -17 296 -17 q 289 -17 292 -17 q 281 -17 285 -17 q 272 -17 276 -17 q 220 -9 244 -17 q 176 13 196 -1 q 146 56 156 28 q 136 128 136 85 l 136 531 l 136 531 l 136 531 z "},"u":{"ha":838,"x_min":25,"x_max":807,"o":"m 699 646 l 699 142 q 699 114 699 126 q 700 90 699 101 q 702 72 700 81 q 706 58 704 64 q 712 50 708 53 q 721 44 715 47 q 733 41 726 43 q 750 39 740 39 l 807 38 l 807 -4 q 803 -4 806 -4 q 799 -4 800 -4 q 794 -3 796 -3 q 789 -3 792 -3 q 785 -3 788 -3 q 781 -3 782 -3 q 776 -3 778 -3 q 771 -3 774 -3 q 757 -1 764 -1 q 743 0 750 0 q 737 0 740 0 q 731 0 733 0 q 723 0 726 0 q 717 0 719 0 q 710 0 714 0 q 704 0 707 0 q 699 0 701 0 q 693 0 696 0 q 683 0 688 0 q 674 0 678 0 q 663 0 668 0 q 653 0 658 0 q 633 -1 643 0 q 614 -3 624 -1 q 603 -3 608 -3 q 594 -3 599 -3 q 590 -3 593 -3 q 586 -4 588 -3 q 581 -4 583 -4 q 576 -4 579 -4 q 576 -1 576 -3 q 576 0 576 0 q 576 1 576 0 q 578 4 576 3 q 578 31 578 17 q 581 58 579 44 q 581 72 581 65 q 582 88 581 79 q 582 104 582 96 q 582 121 582 113 l 489 38 q 458 12 475 22 q 421 -3 440 1 q 381 -13 403 -10 q 333 -17 358 -17 q 226 -1 267 -17 q 169 46 185 14 q 146 113 154 78 q 138 188 138 149 q 138 194 138 190 q 138 201 138 197 q 138 210 138 206 q 138 218 138 214 l 138 454 q 137 482 138 468 q 135 507 136 496 q 132 526 133 518 q 128 538 131 533 q 121 544 125 542 q 110 549 117 547 q 96 552 104 551 q 76 553 88 553 l 25 556 l 25 594 q 28 592 26 592 q 31 592 29 592 q 31 592 31 592 q 33 593 32 592 q 34 593 33 593 q 35 593 35 593 q 82 600 58 596 q 128 610 106 604 q 172 623 151 617 q 210 636 192 629 q 218 639 214 638 q 226 642 222 640 q 231 644 229 643 q 235 646 232 644 q 238 647 236 646 q 242 649 240 647 l 254 646 l 254 236 q 261 161 254 193 q 282 108 268 129 q 327 76 296 86 q 406 65 358 65 q 457 74 432 65 q 504 100 482 82 q 544 138 528 118 q 571 178 561 157 q 573 183 572 181 q 575 190 574 186 q 577 196 576 193 q 579 201 578 199 q 580 207 579 204 q 581 214 581 210 q 582 219 582 217 q 582 225 582 222 l 582 454 q 581 482 582 468 q 579 507 581 496 q 576 526 578 518 q 572 538 575 533 q 565 544 569 542 q 554 549 561 547 q 540 552 549 551 q 521 553 532 553 l 469 556 l 469 594 q 472 592 471 592 q 475 592 474 592 q 476 592 475 592 q 478 593 476 592 q 478 593 478 593 q 479 593 479 593 q 526 600 503 596 q 572 610 550 604 q 616 623 596 617 q 654 636 636 629 q 663 639 658 638 q 671 642 667 640 q 675 644 674 643 q 679 646 676 644 q 683 647 681 646 q 686 649 685 647 l 699 646 l 699 646 l 699 646 z "},"v":{"ha":785,"x_min":8,"x_max":749,"o":"m 628 503 l 464 142 q 460 131 463 135 q 457 122 458 126 q 454 115 456 118 q 451 108 453 111 q 448 100 450 104 q 444 92 446 96 q 440 82 442 86 q 438 74 439 78 q 432 57 435 65 q 426 40 429 49 q 424 34 425 38 q 422 28 422 31 q 419 20 421 24 q 417 14 418 17 q 414 7 415 10 q 413 1 413 4 q 411 -1 411 0 q 410 -1 411 -1 q 409 -6 410 -4 q 407 -10 408 -8 l 338 -10 l 99 550 q 97 550 97 549 q 96 553 96 551 q 94 556 94 554 q 93 558 93 557 q 88 570 92 565 q 81 581 85 575 q 70 589 76 586 q 56 593 64 592 l 8 599 l 8 638 q 15 635 11 636 q 22 635 18 635 q 28 633 25 633 q 35 633 32 633 q 49 633 42 633 q 63 633 56 633 q 90 631 76 632 q 117 631 103 631 q 144 631 131 631 q 171 631 157 631 q 181 631 176 631 q 192 631 186 631 q 201 631 196 631 q 211 631 206 631 q 222 631 217 631 q 232 632 226 631 q 241 632 236 632 q 251 632 246 632 q 258 632 254 632 q 264 632 261 632 q 267 632 265 632 q 271 633 268 632 q 274 633 272 633 q 278 633 276 633 q 284 633 281 633 q 292 633 288 633 q 298 633 294 633 q 304 633 301 633 q 310 633 307 633 q 318 635 314 633 q 324 635 321 635 q 332 635 328 635 l 332 599 l 264 596 q 249 590 256 593 q 238 585 242 588 q 231 576 233 582 q 229 564 229 571 q 230 553 229 558 q 232 542 231 549 q 237 528 235 536 q 242 514 239 521 l 407 117 q 413 126 410 121 q 418 138 415 132 q 424 151 421 144 q 429 163 426 157 q 438 180 433 171 q 446 199 442 189 q 453 216 449 207 q 461 235 457 225 q 469 253 465 244 q 478 272 474 263 q 485 290 481 281 q 493 308 489 299 l 551 458 q 563 488 558 474 q 571 515 568 503 q 576 538 574 528 q 578 557 578 549 q 576 572 578 565 q 569 583 574 579 q 559 590 565 588 q 544 593 553 592 l 488 599 l 488 638 q 498 634 493 635 q 508 633 503 633 q 519 633 514 633 q 531 633 525 633 q 533 633 532 633 q 536 633 535 633 q 539 632 538 632 q 542 632 540 632 q 547 632 544 632 q 553 632 550 632 q 561 632 557 632 q 569 632 565 632 q 576 631 572 631 q 585 631 581 631 q 601 631 593 631 q 618 631 610 631 q 626 631 622 631 q 635 631 631 631 q 642 631 638 631 q 650 631 646 631 q 658 631 654 631 q 667 632 663 631 q 675 632 671 632 q 683 632 679 632 q 689 632 686 632 q 694 632 692 632 q 697 632 696 632 q 700 633 699 632 q 703 633 701 633 q 706 633 704 633 q 716 633 711 633 q 726 633 721 633 q 732 633 729 633 q 738 635 735 633 q 743 635 740 635 q 749 635 746 635 l 749 599 l 706 596 q 684 586 694 593 q 665 568 674 579 q 650 543 657 556 q 636 517 643 531 q 633 513 635 515 q 631 508 632 511 q 628 505 629 507 q 628 500 628 503 l 628 503 l 628 503 z "},"w":{"ha":1158,"x_min":8,"x_max":1122,"o":"m 403 257 l 574 651 l 606 651 q 615 619 610 633 q 625 590 619 604 q 635 563 631 576 q 646 536 640 550 l 806 136 q 811 148 808 142 q 817 161 814 154 q 822 176 819 168 q 828 190 825 183 q 833 204 831 197 q 839 219 836 211 q 844 233 842 226 q 850 247 847 240 q 862 277 857 263 q 872 306 867 292 l 942 503 q 944 507 943 504 q 946 514 944 510 q 948 519 947 517 q 949 525 949 522 q 951 537 950 532 q 951 547 951 542 q 948 567 951 558 q 938 581 944 575 q 922 589 932 586 q 897 593 911 592 l 850 599 l 850 638 q 861 634 856 635 q 872 633 867 633 q 878 633 875 633 q 885 633 881 633 q 890 633 888 633 q 896 633 893 633 q 899 633 897 633 q 901 633 900 633 q 904 632 903 632 q 907 632 906 632 q 913 632 910 632 q 918 632 915 632 q 926 632 922 632 q 935 632 931 632 q 943 631 939 631 q 951 631 947 631 q 960 631 956 631 q 969 631 964 631 q 978 631 974 631 q 986 631 982 631 q 1003 631 994 631 q 1019 631 1011 631 q 1028 631 1024 631 q 1038 632 1032 631 q 1046 632 1042 632 q 1054 632 1050 632 q 1060 632 1057 632 q 1065 632 1063 632 q 1068 632 1067 632 q 1071 633 1069 632 q 1074 633 1072 633 q 1076 633 1075 633 q 1088 633 1082 633 q 1099 633 1093 633 q 1104 633 1101 633 q 1111 635 1107 633 q 1117 635 1114 635 q 1122 635 1119 635 l 1122 599 l 1086 596 q 1075 591 1081 593 q 1065 586 1069 589 q 1061 583 1064 585 q 1057 579 1058 581 q 1052 574 1054 576 q 1047 569 1050 572 q 1042 561 1044 565 q 1036 551 1039 557 q 1029 541 1032 546 q 1024 529 1026 536 q 1011 503 1018 517 q 997 472 1004 489 l 903 258 q 894 236 899 247 q 885 215 889 225 q 877 194 881 204 q 869 172 874 183 q 856 131 863 151 q 842 89 849 110 q 840 86 840 88 q 839 83 839 85 q 839 81 839 82 q 839 81 839 81 q 838 78 838 79 q 838 78 838 78 q 834 66 836 72 q 831 54 832 60 q 826 43 828 49 q 822 32 825 38 q 819 21 821 26 q 815 10 817 15 q 811 0 813 4 q 807 -10 810 -4 l 743 -10 l 554 465 q 551 456 553 460 q 547 447 549 451 q 543 439 544 443 q 539 431 542 435 q 531 415 535 422 q 525 400 528 407 q 523 397 524 399 q 521 392 522 394 q 520 390 521 390 q 519 389 519 389 q 518 387 518 388 q 518 385 518 386 q 508 365 513 375 q 499 346 503 356 q 490 326 494 336 q 482 307 486 317 l 346 -10 l 281 -10 l 139 457 q 126 495 132 478 q 113 526 119 513 q 101 551 107 540 q 90 569 96 561 q 80 581 85 576 q 69 586 75 585 q 59 590 64 589 q 47 593 54 592 l 8 599 l 8 638 q 22 634 15 635 q 36 633 29 633 q 50 633 43 633 q 64 633 57 633 q 67 633 65 633 q 71 633 68 633 q 74 632 72 632 q 78 632 76 632 q 84 632 81 632 q 92 632 88 632 q 101 632 96 632 q 111 632 106 632 q 122 631 117 631 q 132 631 126 631 q 153 631 143 631 q 174 631 164 631 q 195 631 185 631 q 215 631 206 631 q 226 631 221 631 q 236 632 231 631 q 247 632 242 632 q 257 632 251 632 q 263 632 260 632 q 269 632 265 632 q 272 632 271 632 q 276 633 274 632 q 280 633 278 633 q 283 633 282 633 q 297 633 290 633 q 311 633 304 633 q 317 633 314 633 q 325 635 321 633 q 331 635 328 635 q 339 635 335 635 l 339 599 l 283 596 q 260 590 269 593 q 243 583 250 588 q 234 572 238 579 q 231 556 231 565 q 231 549 231 553 q 232 542 231 546 q 233 533 232 538 q 236 525 235 529 l 353 144 q 361 160 357 151 q 369 179 365 169 q 378 198 374 189 q 386 217 382 207 q 388 222 388 219 q 390 226 389 224 q 392 231 392 228 q 394 235 393 233 q 399 244 397 239 q 403 254 401 249 l 403 257 l 403 257 z "},"x":{"ha":717,"x_min":28,"x_max":689,"o":"m 400 353 l 606 75 q 615 62 610 68 q 626 51 621 56 q 640 43 633 46 q 654 39 646 40 l 689 38 l 689 -4 q 685 -4 688 -4 q 682 -4 683 -4 q 678 -3 679 -3 q 675 -3 676 -3 q 667 -3 671 -3 q 661 -3 664 -3 q 659 -3 660 -3 q 657 -3 658 -3 q 655 -1 656 -1 q 653 -1 654 -1 q 650 -1 651 -1 q 647 -1 649 -1 q 642 -1 644 -1 q 636 -1 639 -1 q 631 0 633 0 q 625 0 628 0 q 615 0 619 0 q 604 0 610 0 q 590 0 597 0 q 575 0 582 0 q 560 -1 568 0 q 546 -3 553 -1 q 538 -3 542 -3 q 532 -3 535 -3 q 528 -3 531 -3 q 525 -4 526 -3 q 521 -4 522 -4 q 518 -4 519 -4 q 510 1 514 -1 q 501 10 506 4 q 494 19 497 14 q 488 31 490 25 q 485 32 486 31 q 485 35 485 33 q 483 37 483 36 q 482 39 482 38 l 333 267 l 231 131 q 217 109 224 119 q 203 88 210 99 q 197 77 200 82 q 190 68 193 72 q 184 58 188 63 q 178 47 181 53 q 176 45 176 46 q 175 44 175 44 q 175 42 175 43 q 175 42 175 42 q 167 31 171 36 q 161 19 164 25 q 153 8 157 14 q 147 0 150 3 l 28 0 l 28 38 l 51 38 q 53 35 53 36 q 56 35 54 35 q 56 35 56 35 q 58 35 57 35 q 60 35 60 35 q 63 36 61 35 q 63 37 63 36 q 65 38 64 38 q 69 38 68 38 q 74 40 71 39 q 77 42 75 42 q 81 44 79 43 q 87 50 83 47 q 93 56 90 53 l 300 303 l 133 544 q 121 556 128 550 q 104 568 114 563 q 94 574 99 571 q 85 578 89 576 q 74 581 79 579 q 64 582 69 582 l 35 588 l 28 624 l 189 651 q 212 626 200 638 q 233 603 224 614 q 254 578 244 590 q 272 553 264 565 l 378 394 l 550 638 l 664 638 l 664 599 l 644 599 q 631 595 638 596 q 618 593 625 594 q 607 588 613 592 q 597 581 601 585 l 400 353 l 400 353 l 400 353 z "},"y":{"ha":772,"x_min":17,"x_max":756,"o":"m 413 119 l 578 525 q 580 528 579 526 q 581 533 581 531 q 583 538 582 535 q 583 542 583 540 q 585 549 585 546 q 586 556 586 553 q 582 572 586 565 q 571 583 578 579 q 552 590 563 588 q 528 593 542 592 l 492 599 l 492 638 q 503 634 497 635 q 514 633 508 633 q 525 633 519 633 q 536 633 531 633 q 539 633 538 633 q 542 633 540 633 q 544 632 543 632 q 547 632 546 632 q 553 632 550 632 q 558 632 556 632 q 566 632 563 632 q 574 632 569 632 q 582 631 578 631 q 590 631 586 631 q 607 631 599 631 q 624 631 615 631 q 640 631 632 631 q 657 631 649 631 q 665 631 661 631 q 674 632 669 631 q 682 632 678 632 q 690 632 686 632 q 695 632 693 632 q 700 632 697 632 q 703 632 701 632 q 706 633 704 632 q 708 633 707 633 q 711 633 710 633 q 722 633 717 633 q 733 633 728 633 q 739 633 736 633 q 744 635 742 633 q 750 635 747 635 q 756 635 753 635 l 756 599 l 717 596 q 714 592 715 593 q 711 592 713 592 q 709 592 710 592 q 708 592 708 592 q 706 590 707 590 q 706 590 706 590 q 683 575 694 586 q 658 544 671 564 q 631 496 646 526 q 600 425 617 465 l 318 -222 q 282 -291 301 -260 q 239 -346 263 -322 q 184 -381 217 -369 q 107 -393 151 -393 q 104 -393 106 -393 q 101 -393 103 -393 q 97 -392 99 -392 q 94 -392 96 -392 q 92 -392 93 -392 q 89 -392 90 -392 q 86 -390 88 -390 q 83 -390 85 -390 q 78 -388 81 -389 q 72 -387 75 -387 q 67 -385 69 -386 q 61 -383 64 -385 q 51 -380 56 -382 q 43 -375 47 -378 q 42 -375 43 -375 q 42 -375 42 -375 q 40 -374 40 -374 q 40 -374 40 -374 q 40 -374 40 -374 q 39 -374 39 -374 q 38 -372 38 -372 q 38 -372 38 -372 l 71 -268 l 89 -268 q 96 -274 92 -271 q 106 -282 100 -278 q 117 -288 111 -285 q 128 -293 122 -292 q 132 -294 131 -293 q 136 -296 133 -294 q 140 -297 138 -296 q 143 -297 142 -297 q 147 -298 146 -297 q 151 -299 149 -299 q 155 -300 153 -300 q 158 -300 157 -300 q 158 -300 158 -300 q 158 -300 158 -300 q 158 -300 158 -300 q 160 -300 158 -300 q 160 -300 160 -300 q 160 -300 160 -300 q 160 -300 160 -300 q 160 -300 160 -300 q 199 -289 181 -299 q 231 -262 217 -279 q 258 -226 246 -244 q 281 -187 271 -207 q 289 -169 285 -178 q 297 -151 293 -160 q 305 -133 301 -142 q 311 -118 308 -125 l 343 -33 q 340 -23 342 -28 q 336 -14 338 -18 q 332 -4 333 -8 q 328 4 331 0 q 324 13 326 8 q 321 24 322 18 q 317 33 318 28 q 313 43 315 38 q 309 51 311 47 q 306 61 307 56 q 301 69 303 65 q 299 78 300 74 q 295 86 297 82 q 292 96 293 90 q 288 104 289 100 q 285 113 286 108 q 282 118 283 115 q 281 125 281 121 q 278 131 279 128 q 275 136 276 133 q 272 142 274 139 q 271 149 271 146 q 268 155 269 151 q 265 161 267 158 l 114 528 q 112 529 113 528 q 111 533 111 531 q 109 536 110 535 q 107 539 108 538 q 104 545 106 542 q 101 551 103 549 q 88 571 94 563 q 74 583 81 579 q 58 590 67 588 q 42 593 50 592 l 17 599 l 17 638 q 23 635 19 636 q 31 635 26 635 q 37 633 33 633 q 43 633 40 633 q 57 633 50 633 q 71 633 64 633 q 74 633 72 633 q 78 633 75 633 q 81 632 79 632 q 83 632 82 632 q 90 632 86 632 q 97 632 93 632 q 106 632 101 632 q 117 632 111 632 q 126 631 121 631 q 136 631 131 631 q 158 631 147 631 q 178 631 168 631 q 188 631 183 631 q 199 631 193 631 q 208 631 203 631 q 218 631 213 631 q 228 631 224 631 q 239 632 233 631 q 248 632 243 632 q 258 632 253 632 q 265 632 261 632 q 271 632 268 632 q 274 632 272 632 q 278 633 275 632 q 281 633 279 633 q 285 633 283 633 q 291 633 288 633 q 299 633 294 633 q 305 633 301 633 q 311 633 308 633 q 317 633 314 633 q 325 635 321 633 q 331 635 328 635 q 339 635 335 635 l 339 599 l 286 596 q 268 590 276 593 q 253 585 260 588 q 242 574 246 581 q 240 556 239 567 q 241 544 240 550 q 243 532 242 539 q 248 519 246 526 q 253 503 250 511 l 342 272 q 357 231 349 250 q 374 192 365 211 q 392 155 382 174 q 413 117 401 136 l 413 119 l 413 119 z "},"z":{"ha":694,"x_min":22,"x_max":647,"o":"m 632 600 l 196 49 l 383 49 q 454 47 421 46 q 517 51 488 49 q 562 62 546 54 q 581 81 578 69 l 606 193 l 647 193 q 645 174 646 182 q 643 157 644 165 q 642 149 643 153 q 642 142 642 144 q 640 133 640 138 q 639 125 639 129 q 637 117 638 121 q 636 108 636 113 q 635 100 635 104 q 635 92 635 96 q 631 67 633 79 q 628 42 629 54 q 626 17 626 29 q 626 -4 626 6 q 608 -4 617 -4 q 590 -4 599 -4 q 572 -3 581 -3 q 554 -3 563 -3 q 519 -3 536 -3 q 483 -3 501 -3 q 474 -3 479 -3 q 465 -3 469 -3 q 456 -1 460 -1 q 447 -1 451 -1 q 428 -1 438 -1 q 411 -1 419 -1 q 384 -1 397 -1 q 357 -1 371 -1 q 330 0 343 0 q 303 0 317 0 q 276 0 289 0 q 250 0 263 0 q 223 0 236 0 q 196 0 210 0 q 176 0 186 0 q 154 0 165 0 q 144 0 149 0 q 133 -1 139 0 q 123 -1 128 -1 q 114 -1 118 -1 q 106 -1 110 -1 q 100 -1 103 -1 q 97 -1 99 -1 q 93 -3 94 -1 q 89 -3 90 -3 q 86 -3 88 -3 q 72 -3 79 -3 q 58 -3 65 -3 q 51 -3 54 -3 q 44 -4 47 -3 q 37 -4 40 -4 q 31 -4 33 -4 l 22 24 q 33 33 28 28 q 43 44 38 39 q 54 58 49 51 q 65 69 60 64 q 87 92 76 81 q 107 117 97 104 q 117 130 113 124 q 128 142 122 136 q 137 155 132 149 q 147 167 142 161 l 383 464 q 392 472 388 467 q 400 482 396 476 q 407 492 403 488 q 415 503 411 497 q 430 524 422 514 q 446 544 438 535 q 452 554 449 549 q 460 565 456 560 q 466 576 463 571 q 474 586 469 581 l 275 589 q 212 584 238 586 q 172 579 186 582 q 151 569 158 576 q 142 550 144 561 l 125 458 l 83 458 q 87 490 86 476 q 89 513 88 504 q 90 528 89 521 q 92 540 90 535 q 92 542 92 542 q 92 544 92 543 q 92 545 92 544 q 92 547 92 546 q 92 551 92 549 q 92 554 92 553 q 92 560 92 557 q 93 567 92 563 q 93 575 93 571 q 93 583 93 579 q 94 607 93 593 q 96 639 94 621 q 112 639 104 639 q 128 639 119 639 q 143 638 135 638 q 160 638 151 638 q 176 638 168 638 q 193 638 185 638 q 208 638 200 638 q 225 638 217 638 q 233 638 229 638 q 242 638 238 638 q 249 636 244 636 q 257 636 253 636 q 274 636 265 636 q 290 636 282 636 q 315 636 303 636 q 339 636 326 636 q 363 635 350 635 q 388 635 375 635 q 435 635 411 635 q 485 635 460 635 q 502 635 493 635 q 521 635 511 635 q 530 635 525 635 q 540 636 535 635 q 549 636 544 636 q 558 636 554 636 q 564 636 561 636 q 569 636 567 636 q 572 636 571 636 q 576 638 574 636 q 580 638 578 638 q 583 638 582 638 q 589 638 586 638 q 596 638 592 638 q 601 638 599 638 q 607 638 604 638 q 613 638 610 638 q 619 639 617 638 q 626 639 622 639 q 632 639 629 639 l 632 600 l 632 600 l 632 600 z "},"{":{"ha":463,"x_min":81,"x_max":401,"o":"m 286 178 l 286 -62 q 292 -131 286 -100 q 311 -183 299 -161 q 346 -222 324 -207 q 401 -243 368 -236 q 300 -233 342 -243 q 235 -201 258 -222 q 198 -137 210 -181 q 186 -24 186 -93 l 186 210 q 181 273 186 244 q 168 319 176 301 q 137 353 158 339 q 81 376 115 367 q 134 401 113 386 q 165 435 156 415 q 181 481 176 454 q 186 542 186 507 l 186 803 q 200 908 186 867 q 242 968 214 950 q 310 997 269 988 q 401 1006 350 1006 q 344 980 367 996 q 310 942 321 964 q 292 890 297 919 q 286 824 286 861 l 286 568 q 281 497 286 528 q 265 443 276 467 q 233 404 256 421 q 174 378 210 388 l 174 378 q 234 349 211 367 q 267 306 257 331 q 281 248 276 281 q 286 175 286 215 l 286 178 l 286 178 z "},"|":{"ha":842,"x_min":382,"x_max":460,"o":"m 382 0 l 382 1008 l 460 1008 l 460 0 l 382 0 l 382 0 l 382 0 z "},"}":{"ha":463,"x_min":61,"x_max":382,"o":"m 176 -62 l 176 178 q 181 249 176 217 q 194 306 185 281 q 228 348 204 331 q 289 375 251 365 l 289 381 q 230 404 253 388 q 196 443 207 421 q 181 497 186 467 q 176 565 176 526 l 176 826 q 170 890 176 861 q 153 942 164 919 q 117 980 140 964 q 61 1006 94 996 q 153 997 114 1006 q 221 968 193 988 q 263 908 249 950 q 276 800 276 865 l 276 544 q 282 481 276 508 q 297 435 288 454 q 329 401 308 415 q 382 376 350 386 q 326 353 347 367 q 294 319 304 339 q 281 273 285 301 q 276 207 276 244 l 276 -24 q 264 -137 276 -93 q 228 -201 251 -181 q 161 -233 203 -222 q 61 -243 119 -243 q 116 -222 93 -236 q 151 -183 139 -207 q 170 -131 164 -161 q 176 -62 176 -100 l 176 -62 l 176 -62 z "},"~":{"ha":842,"x_min":71,"x_max":771,"o":"m 722 482 l 771 426 q 769 422 769 424 q 768 418 768 419 q 766 415 767 417 q 765 413 765 414 q 730 362 750 386 q 686 315 710 338 q 635 283 663 293 q 575 272 607 272 q 555 274 565 272 q 532 278 544 275 q 520 281 526 279 q 508 285 514 283 q 496 290 501 288 q 483 294 490 292 q 479 295 482 294 q 475 297 476 296 q 470 298 472 297 q 465 300 468 299 q 457 305 461 303 q 449 308 453 307 q 432 315 440 311 q 415 321 424 318 q 401 327 407 324 q 388 333 394 331 q 381 335 385 335 q 375 338 378 336 q 369 340 372 339 q 364 343 367 342 q 352 348 358 346 q 340 353 346 350 q 328 357 333 354 q 315 361 322 360 q 303 365 310 364 q 292 368 297 367 q 279 369 285 368 q 267 369 274 369 q 224 361 243 369 q 189 338 204 353 q 160 306 174 322 q 136 271 147 289 q 133 263 135 267 q 128 256 131 258 q 124 248 126 251 q 119 242 122 244 l 71 300 q 74 303 72 301 q 76 307 75 306 q 80 313 78 310 q 83 318 82 315 q 117 368 99 344 q 157 414 135 392 q 207 447 179 436 q 268 458 235 458 q 297 456 282 458 q 328 449 311 453 q 344 443 336 446 q 361 438 353 440 q 376 431 368 435 q 393 425 385 428 q 399 422 396 424 q 407 419 403 421 q 411 417 410 418 q 415 417 413 417 q 419 415 417 415 q 422 414 421 414 q 423 412 422 413 q 425 411 424 411 q 426 411 425 411 q 428 411 426 411 q 428 410 428 410 q 431 410 429 410 q 435 408 433 408 q 439 406 438 407 q 441 405 440 406 q 443 404 442 404 q 444 403 443 403 q 446 403 444 403 q 483 387 465 394 q 517 372 500 379 q 549 363 533 367 q 576 360 564 360 q 615 367 596 360 q 650 388 633 374 q 681 418 667 403 q 706 451 694 433 q 708 454 707 453 q 711 458 710 456 q 713 462 711 460 q 715 465 714 464 q 717 468 717 467 q 719 472 718 469 q 720 476 719 474 q 722 479 721 478 l 722 482 l 722 482 z "},"":{"ha":1081,"x_min":21,"x_max":1050,"o":"m 567 972 l 903 183 q 906 176 904 179 q 908 169 907 172 q 911 162 910 165 q 914 156 913 158 q 919 144 917 150 q 925 131 922 138 q 931 119 928 125 q 936 107 933 113 q 942 96 939 101 q 947 86 944 90 q 959 69 953 76 q 971 54 965 61 q 985 44 978 49 q 1003 39 993 40 l 1050 38 l 1050 -4 q 1042 -4 1046 -4 q 1035 -4 1038 -4 q 1027 -3 1031 -3 q 1019 -3 1024 -3 q 1003 -3 1011 -3 q 989 -3 996 -3 q 958 -1 974 -1 q 928 0 943 0 q 897 0 913 0 q 865 0 881 0 q 840 0 853 0 q 813 0 828 0 q 783 -1 799 0 q 751 -3 767 -1 q 743 -3 747 -3 q 735 -3 739 -3 q 725 -3 729 -3 q 717 -3 721 -3 q 708 -3 713 -3 q 699 -4 704 -3 q 690 -4 694 -4 q 681 -4 685 -4 l 681 38 l 746 42 q 767 42 757 40 q 785 47 776 43 q 798 56 793 50 q 803 67 803 61 q 801 81 803 74 q 796 99 799 89 q 788 120 792 110 q 779 142 783 131 q 779 142 779 142 q 779 143 779 142 q 778 144 778 143 q 778 144 778 144 q 778 145 778 144 q 778 147 778 146 q 776 149 776 147 q 775 151 775 150 q 775 152 775 151 q 775 154 775 153 q 774 155 774 154 q 774 156 774 156 l 710 318 l 310 318 l 271 225 q 268 218 269 221 q 267 213 267 215 q 264 206 265 210 q 261 199 263 203 q 258 190 260 194 q 256 183 257 186 q 251 175 253 179 q 249 167 250 171 q 247 163 247 165 q 246 158 246 161 q 245 156 246 157 q 244 156 244 156 q 243 153 243 154 q 243 151 243 153 q 235 129 239 140 q 228 107 231 118 q 224 90 225 97 q 222 78 222 82 q 226 59 222 67 q 239 49 231 51 q 260 42 247 44 q 289 39 272 40 l 340 38 l 340 -4 q 332 -4 336 -4 q 324 -4 328 -4 q 316 -3 319 -3 q 308 -3 313 -3 q 292 -3 300 -3 q 278 -3 285 -3 q 251 -1 264 -1 q 225 0 238 0 q 202 0 213 0 q 181 0 192 0 q 153 0 167 0 q 126 0 140 0 q 99 -1 113 0 q 74 -3 86 -1 q 67 -3 71 -3 q 61 -3 64 -3 q 53 -3 57 -3 q 47 -3 50 -3 q 41 -3 44 -3 q 35 -4 38 -3 q 27 -4 31 -4 q 21 -4 24 -4 l 21 38 l 72 42 q 96 46 85 40 q 117 61 107 51 q 134 82 126 71 q 147 107 142 93 l 394 672 q 403 692 399 682 q 414 714 408 703 q 423 736 418 725 q 433 758 428 747 q 447 786 440 772 q 458 814 453 800 q 464 828 461 821 q 471 842 467 835 q 476 856 474 849 q 482 869 479 863 q 492 894 488 882 q 503 919 497 907 q 512 944 507 932 q 522 969 517 957 l 567 972 l 567 972 l 567 972 m 333 374 l 685 374 l 510 788 l 333 374 l 333 374 l 333 374 m 403 1206 q 431 1198 418 1203 q 453 1183 443 1193 q 467 1161 463 1174 q 472 1133 472 1149 q 467 1106 472 1118 q 453 1083 463 1093 q 431 1069 443 1074 q 403 1064 418 1064 q 375 1069 388 1064 q 353 1083 363 1074 q 338 1106 343 1093 q 333 1133 333 1118 q 338 1161 333 1149 q 353 1183 343 1174 q 375 1198 363 1193 q 403 1203 388 1203 l 403 1206 l 403 1206 m 679 1206 q 707 1198 694 1203 q 729 1183 719 1193 q 744 1161 739 1174 q 749 1133 749 1149 q 744 1106 749 1118 q 729 1083 739 1093 q 707 1069 719 1074 q 679 1064 694 1064 q 651 1069 664 1064 q 629 1083 639 1074 q 615 1106 619 1093 q 610 1133 610 1118 q 615 1161 610 1149 q 629 1183 619 1174 q 651 1198 639 1193 q 679 1203 664 1203 l 679 1206 l 679 1206 z "},"":{"ha":1081,"x_min":21,"x_max":1050,"o":"m 567 972 l 903 183 q 906 176 904 179 q 908 169 907 172 q 911 162 910 165 q 914 156 913 158 q 919 144 917 150 q 925 131 922 138 q 931 119 928 125 q 936 107 933 113 q 942 96 939 101 q 947 86 944 90 q 959 69 953 76 q 971 54 965 61 q 985 44 978 49 q 1003 39 993 40 l 1050 38 l 1050 -4 q 1042 -4 1046 -4 q 1035 -4 1038 -4 q 1027 -3 1031 -3 q 1019 -3 1024 -3 q 1003 -3 1011 -3 q 989 -3 996 -3 q 958 -1 974 -1 q 928 0 943 0 q 897 0 913 0 q 865 0 881 0 q 840 0 853 0 q 813 0 828 0 q 783 -1 799 0 q 751 -3 767 -1 q 743 -3 747 -3 q 735 -3 739 -3 q 725 -3 729 -3 q 717 -3 721 -3 q 708 -3 713 -3 q 699 -4 704 -3 q 690 -4 694 -4 q 681 -4 685 -4 l 681 38 l 746 42 q 767 42 757 40 q 785 47 776 43 q 798 56 793 50 q 803 67 803 61 q 801 81 803 74 q 796 99 799 89 q 788 120 792 110 q 779 142 783 131 q 779 142 779 142 q 779 143 779 142 q 778 144 778 143 q 778 144 778 144 q 778 145 778 144 q 778 147 778 146 q 776 149 776 147 q 775 151 775 150 q 775 152 775 151 q 775 154 775 153 q 774 155 774 154 q 774 156 774 156 l 710 318 l 310 318 l 271 225 q 268 218 269 221 q 267 213 267 215 q 264 206 265 210 q 261 199 263 203 q 258 190 260 194 q 256 183 257 186 q 251 175 253 179 q 249 167 250 171 q 247 163 247 165 q 246 158 246 161 q 245 156 246 157 q 244 156 244 156 q 243 153 243 154 q 243 151 243 153 q 235 129 239 140 q 228 107 231 118 q 224 90 225 97 q 222 78 222 82 q 226 59 222 67 q 239 49 231 51 q 260 42 247 44 q 289 39 272 40 l 340 38 l 340 -4 q 332 -4 336 -4 q 324 -4 328 -4 q 316 -3 319 -3 q 308 -3 313 -3 q 292 -3 300 -3 q 278 -3 285 -3 q 251 -1 264 -1 q 225 0 238 0 q 202 0 213 0 q 181 0 192 0 q 153 0 167 0 q 126 0 140 0 q 99 -1 113 0 q 74 -3 86 -1 q 67 -3 71 -3 q 61 -3 64 -3 q 53 -3 57 -3 q 47 -3 50 -3 q 41 -3 44 -3 q 35 -4 38 -3 q 27 -4 31 -4 q 21 -4 24 -4 l 21 38 l 72 42 q 96 46 85 40 q 117 61 107 51 q 134 82 126 71 q 147 107 142 93 l 394 672 q 403 692 399 682 q 414 714 408 703 q 423 736 418 725 q 433 758 428 747 q 447 786 440 772 q 458 814 453 800 q 464 828 461 821 q 471 842 467 835 q 476 856 474 849 q 482 869 479 863 q 492 894 488 882 q 503 919 497 907 q 512 944 507 932 q 522 969 517 957 l 567 972 l 567 972 l 567 972 m 333 374 l 685 374 l 510 788 l 333 374 l 333 374 l 333 374 m 542 1288 q 594 1274 569 1285 q 639 1244 618 1264 q 670 1199 660 1224 q 681 1147 681 1175 q 681 1147 681 1147 q 681 1147 681 1147 q 681 1147 681 1147 q 681 1147 681 1147 q 681 1146 681 1146 q 681 1146 681 1146 q 681 1146 681 1146 q 681 1146 681 1146 q 671 1092 681 1117 q 640 1047 661 1068 q 594 1017 619 1026 q 542 1007 569 1007 q 488 1017 513 1007 q 443 1047 464 1026 q 413 1091 422 1067 q 403 1144 403 1115 q 403 1144 403 1144 q 403 1144 403 1144 q 403 1144 403 1144 q 403 1146 403 1144 q 403 1146 403 1146 q 403 1146 403 1146 q 403 1146 403 1146 q 403 1146 403 1146 q 412 1198 401 1174 q 443 1243 422 1222 q 488 1274 464 1264 q 542 1285 513 1285 l 542 1288 l 542 1288 m 542 1238 q 506 1228 522 1235 q 479 1210 490 1222 q 461 1181 467 1197 q 456 1146 456 1165 q 461 1109 456 1125 q 479 1081 467 1093 q 506 1063 490 1068 q 542 1057 522 1057 q 576 1063 561 1057 q 604 1081 592 1068 q 622 1109 615 1093 q 628 1146 628 1125 q 622 1181 628 1165 q 604 1210 615 1197 q 576 1228 592 1222 q 542 1235 561 1235 l 542 1238 l 542 1238 z "},"":{"ha":985,"x_min":31,"x_max":931,"o":"m 457 -150 l 515 -14 l 563 -14 l 528 -104 q 537 -101 532 -103 q 547 -100 542 -100 q 558 -99 553 -99 q 568 -99 563 -99 q 611 -104 592 -99 q 649 -122 631 -110 q 674 -153 665 -135 q 683 -196 683 -171 q 673 -244 683 -224 q 643 -276 663 -264 q 602 -297 624 -289 q 557 -310 581 -306 q 551 -310 554 -310 q 546 -311 549 -310 q 540 -311 543 -311 q 535 -311 538 -311 q 529 -311 532 -311 q 524 -312 526 -311 q 519 -312 521 -312 q 514 -312 517 -312 q 505 -312 510 -312 q 496 -312 500 -312 q 488 -311 492 -311 q 481 -311 485 -311 q 467 -309 474 -310 q 454 -307 461 -308 q 448 -305 451 -306 q 442 -304 444 -304 q 434 -302 438 -303 q 428 -300 431 -301 q 420 -297 424 -299 q 413 -296 417 -296 q 403 -293 408 -294 q 394 -290 399 -292 l 414 -247 q 415 -247 414 -247 q 417 -249 415 -247 q 417 -249 417 -249 q 419 -249 418 -249 q 420 -249 419 -249 q 422 -250 421 -249 q 423 -250 422 -250 q 425 -250 424 -250 q 433 -252 429 -251 q 442 -254 438 -253 q 447 -255 444 -254 q 451 -257 449 -256 q 456 -258 453 -257 q 460 -258 458 -258 q 469 -259 464 -258 q 479 -261 474 -260 q 485 -261 482 -261 q 489 -262 488 -261 q 494 -262 492 -262 q 499 -262 497 -262 q 531 -260 517 -262 q 557 -250 546 -257 q 574 -231 568 -244 q 579 -199 579 -218 q 575 -179 579 -187 q 564 -164 571 -171 q 547 -154 556 -158 q 531 -149 539 -150 q 528 -149 529 -149 q 526 -149 528 -149 q 524 -149 525 -149 q 524 -149 524 -149 q 514 -149 518 -149 q 506 -150 510 -149 q 497 -151 501 -150 q 489 -153 493 -151 q 483 -153 486 -153 q 478 -156 481 -154 q 472 -156 475 -156 q 467 -158 469 -157 l 457 -150 l 457 -150 l 457 -150 m 931 117 l 892 47 q 857 27 875 36 q 818 11 839 18 q 798 6 808 8 q 778 0 788 3 q 757 -4 767 -1 q 736 -10 747 -7 q 696 -17 715 -14 q 657 -22 676 -21 q 622 -26 639 -25 q 589 -28 604 -28 q 363 5 464 -28 q 185 104 263 38 q 69 264 108 171 q 31 475 31 357 q 42 588 31 535 q 75 689 53 642 q 128 776 97 736 q 200 849 160 815 q 284 906 239 881 q 381 947 329 931 q 488 973 433 964 q 601 982 543 982 q 675 979 639 982 q 746 969 711 976 q 813 956 782 964 q 869 942 843 949 q 884 938 876 940 q 897 933 892 936 q 910 930 904 932 q 922 925 917 928 q 914 883 918 904 q 906 838 910 861 q 902 815 904 826 q 900 792 900 803 q 898 767 899 779 q 897 744 897 756 q 897 741 897 743 q 896 738 896 739 q 896 733 896 735 q 896 729 896 732 q 896 726 896 728 q 896 722 896 724 q 896 718 896 719 q 896 714 896 717 l 853 717 l 853 817 q 844 841 853 829 q 817 863 835 853 q 778 881 799 872 q 733 900 757 890 q 710 906 722 903 q 686 913 699 910 q 674 915 681 914 q 661 917 667 915 q 648 919 654 918 q 635 921 642 919 q 626 921 631 921 q 619 922 622 921 q 612 922 615 922 q 606 922 608 922 q 598 922 601 922 q 592 924 594 922 q 584 924 588 924 q 578 924 581 924 q 406 892 481 924 q 281 799 331 861 q 204 661 229 736 q 179 497 179 586 q 210 312 179 394 q 304 168 242 229 q 450 75 367 106 q 636 44 533 44 q 656 44 646 44 q 675 46 665 44 q 694 48 685 46 q 714 51 704 50 q 772 63 743 56 q 826 81 800 71 q 877 103 854 92 q 918 128 900 114 l 931 117 l 931 117 l 931 117 z "},"":{"ha":849,"x_min":31,"x_max":794,"o":"m 168 167 l 168 790 q 167 824 168 808 q 165 854 167 840 q 161 876 164 867 q 156 892 158 886 q 148 901 153 897 q 136 907 143 906 q 119 910 129 910 q 97 913 110 911 l 31 919 l 31 961 q 50 958 40 958 q 69 957 60 957 q 89 957 79 957 q 108 957 99 957 q 147 955 128 956 q 186 954 167 954 q 226 954 206 954 q 265 954 246 954 q 276 954 271 954 q 288 954 282 954 q 293 954 290 954 q 300 954 296 954 q 306 954 303 954 q 311 954 308 954 q 344 954 328 954 q 378 954 361 954 q 411 955 394 954 q 444 957 428 956 q 486 957 465 957 q 525 957 507 957 q 544 957 535 957 q 561 958 553 957 q 578 958 569 958 q 593 958 586 958 q 616 958 604 958 q 640 958 628 958 q 663 957 651 957 q 686 957 675 957 q 731 956 710 957 q 772 954 751 956 q 765 921 768 938 q 758 886 761 904 q 756 867 757 876 q 754 850 756 858 q 753 831 754 840 q 753 813 753 822 q 751 794 751 803 q 750 776 750 785 q 750 760 750 768 q 750 743 750 751 l 701 746 l 701 836 q 701 847 701 842 q 699 857 700 851 q 695 866 697 863 q 689 871 693 869 q 651 883 671 878 q 610 890 632 888 q 588 892 599 892 q 565 894 576 893 q 542 897 553 896 q 519 899 531 897 q 506 899 513 899 q 493 900 499 899 q 480 900 486 900 q 467 900 474 900 q 442 900 454 900 q 417 900 429 900 q 408 900 413 900 q 397 900 403 900 q 388 899 393 899 q 378 899 383 899 q 358 898 368 899 q 339 896 349 897 q 328 894 333 894 q 319 893 324 893 q 309 891 314 892 q 300 889 304 890 l 300 521 q 335 517 317 518 q 372 515 353 515 q 414 514 392 514 q 461 514 436 514 q 518 515 493 514 q 561 518 543 517 q 591 523 579 521 q 608 529 603 525 q 613 535 611 532 q 615 542 614 538 q 617 552 617 546 q 619 565 618 558 l 626 640 l 668 640 q 668 631 668 635 q 668 624 668 626 q 667 616 667 619 q 667 610 667 613 q 667 596 667 603 q 667 582 667 589 q 665 554 665 568 q 664 528 664 540 q 664 515 664 522 q 664 503 664 508 q 664 490 664 496 q 664 476 664 483 q 664 470 664 474 q 664 464 664 467 q 664 456 664 460 q 664 450 664 453 q 664 438 664 444 q 665 425 664 432 q 665 412 665 418 q 665 399 665 406 q 665 387 665 393 q 667 374 665 381 q 667 360 667 367 q 667 347 667 354 q 667 341 667 344 q 668 335 667 338 q 668 328 668 332 q 668 322 668 325 l 626 325 l 619 407 q 617 417 618 413 q 615 426 617 422 q 613 434 614 431 q 608 439 611 438 q 591 447 603 443 q 561 451 579 450 q 518 455 543 454 q 461 456 493 456 q 437 456 449 456 q 414 456 425 456 q 391 454 401 454 q 371 454 381 454 q 333 453 351 454 q 300 451 315 453 l 300 65 q 309 60 304 63 q 319 58 314 58 q 328 56 324 57 q 339 56 333 56 q 358 53 349 54 q 378 51 368 51 q 398 51 389 51 q 417 51 407 51 q 433 51 425 51 q 450 51 442 51 q 467 51 458 51 q 485 51 475 51 q 555 53 521 51 q 619 57 589 56 q 670 63 651 60 q 697 69 689 65 q 712 86 704 74 q 725 119 719 99 q 737 167 732 140 q 746 225 742 194 l 794 228 q 788 192 790 210 q 782 156 785 175 q 780 137 781 146 q 778 119 779 128 q 776 101 776 110 q 775 82 775 92 q 774 71 775 76 q 774 61 774 65 q 772 50 772 56 q 772 39 772 44 q 772 19 772 29 q 772 0 772 8 q 756 0 764 0 q 738 0 747 0 q 728 0 733 0 q 718 -1 724 0 q 708 -1 713 -1 q 697 -1 703 -1 q 678 -1 688 -1 q 660 -3 669 -1 q 640 -3 650 -3 q 619 -3 631 -3 q 599 -3 610 -3 q 579 -4 589 -3 q 558 -4 568 -4 q 538 -4 549 -4 q 527 -4 532 -4 q 518 -4 522 -4 q 508 -4 513 -4 q 499 -4 503 -4 q 492 -4 496 -4 q 486 -4 489 -4 q 478 -4 482 -4 q 472 -4 475 -4 q 460 -4 467 -4 q 447 -4 454 -4 q 433 -3 440 -3 q 419 -3 426 -3 q 408 -3 414 -3 q 394 -3 401 -3 q 388 -3 392 -3 q 382 -3 385 -3 q 376 -3 379 -3 q 369 -3 372 -3 q 324 -1 347 -1 q 279 0 301 0 q 236 0 257 0 q 196 0 215 0 q 171 0 183 0 q 147 0 158 0 q 125 -1 136 0 q 103 -3 114 -1 q 101 -3 101 -3 q 99 -3 100 -3 q 97 -3 97 -3 q 96 -3 96 -3 q 90 -3 93 -3 q 85 -3 88 -3 q 78 -3 81 -3 q 72 -3 75 -3 q 66 -3 69 -3 q 60 -4 63 -3 q 53 -4 57 -4 q 47 -4 50 -4 l 47 38 l 97 42 q 119 42 110 40 q 136 46 129 44 q 148 51 143 49 q 156 60 153 54 q 161 74 158 65 q 165 97 164 83 q 167 128 167 111 q 168 164 168 144 l 168 167 l 168 167 m 301 1024 l 493 1215 q 495 1215 494 1214 q 497 1217 496 1215 q 500 1219 499 1218 q 503 1222 501 1221 q 509 1228 506 1225 q 517 1233 513 1231 q 521 1236 519 1235 q 525 1240 522 1238 q 528 1243 526 1242 q 532 1246 531 1244 q 537 1248 535 1247 q 542 1250 539 1249 q 546 1252 543 1251 q 550 1254 549 1253 q 558 1258 554 1257 q 567 1258 563 1258 q 586 1255 578 1258 q 600 1244 594 1251 q 610 1229 607 1238 q 613 1210 613 1221 q 610 1192 613 1200 q 600 1178 607 1185 q 587 1166 594 1172 q 572 1156 579 1160 q 569 1153 571 1154 q 564 1150 567 1151 q 562 1149 563 1150 q 561 1149 561 1149 q 559 1147 560 1147 q 557 1146 558 1146 l 357 1024 l 301 1024 l 301 1024 l 301 1024 z "},"":{"ha":1154,"x_min":24,"x_max":1129,"o":"m 156 167 l 156 790 q 155 824 156 808 q 153 854 154 840 q 149 876 151 867 q 143 892 146 886 q 135 901 140 897 q 124 907 131 906 q 107 910 117 910 q 85 913 97 911 l 24 919 l 24 961 q 38 958 31 958 q 53 957 46 957 q 67 957 60 957 q 83 957 75 957 q 110 955 97 956 q 138 954 124 954 q 165 954 151 954 q 190 954 178 954 q 203 954 197 954 q 215 954 210 954 q 228 955 222 954 q 240 957 235 956 q 247 957 243 957 q 253 957 250 957 q 256 957 254 957 q 260 958 257 957 q 263 958 261 958 q 265 958 264 958 l 929 142 l 933 142 l 933 790 q 933 824 933 808 q 931 854 932 840 q 926 876 929 867 q 921 892 924 886 q 913 901 918 897 q 901 907 908 906 q 885 910 894 910 q 863 913 875 911 l 801 919 l 801 961 q 815 958 808 958 q 829 957 822 957 q 843 957 836 957 q 857 957 850 957 q 884 955 871 956 q 911 954 897 954 q 924 954 918 954 q 938 954 931 954 q 950 954 943 954 q 963 954 957 954 q 969 954 965 954 q 976 954 972 954 q 983 954 979 954 q 989 954 986 954 q 1003 954 996 954 q 1017 956 1010 954 q 1023 956 1019 956 q 1031 956 1026 956 q 1037 956 1033 956 q 1043 956 1040 956 q 1057 956 1050 956 q 1071 957 1064 956 q 1085 957 1078 957 q 1099 957 1092 957 q 1106 957 1103 957 q 1114 958 1110 957 q 1121 958 1117 958 q 1129 958 1125 958 l 1129 919 l 1068 915 q 1056 912 1063 913 q 1046 911 1050 911 q 1036 909 1040 910 q 1029 907 1032 908 q 1018 901 1024 906 q 1010 892 1013 897 q 1003 876 1006 886 q 1000 854 1001 867 q 998 824 999 840 q 997 788 997 807 l 997 24 q 997 15 997 18 q 997 8 997 11 q 997 5 997 7 q 999 1 997 3 q 999 -1 999 0 q 999 -3 999 -1 q 999 -3 999 -3 q 999 -6 999 -4 q 999 -6 999 -6 q 1000 -8 999 -7 q 1000 -9 1000 -8 q 1000 -11 1000 -10 q 1000 -16 1000 -14 q 1000 -19 1000 -18 q 1000 -22 1000 -21 q 1001 -24 1000 -22 q 1001 -26 1001 -25 q 1001 -28 1001 -26 l 876 -6 l 222 807 l 219 807 l 219 167 q 220 128 219 144 q 222 97 221 111 q 226 74 224 83 q 232 60 228 65 q 240 51 235 54 q 251 46 246 49 q 268 42 258 44 q 290 39 278 40 l 351 38 l 351 -4 q 343 -4 347 -4 q 336 -4 339 -4 q 328 -3 332 -3 q 321 -3 325 -3 q 307 -3 314 -3 q 293 -3 300 -3 q 279 -1 286 -1 q 265 -1 272 -1 q 259 -1 263 -1 q 253 -1 256 -1 q 245 -1 249 -1 q 239 -1 242 -1 q 225 0 232 0 q 211 0 218 0 q 205 0 208 0 q 199 0 201 0 q 191 0 194 0 q 185 0 188 0 q 172 0 179 0 q 160 0 165 0 q 147 0 153 0 q 133 0 140 0 q 106 -1 119 0 q 79 -3 93 -1 q 65 -3 72 -3 q 51 -3 58 -3 q 44 -3 47 -3 q 38 -4 40 -3 q 30 -4 33 -4 q 24 -4 26 -4 l 24 38 l 85 42 q 107 42 97 40 q 124 46 117 44 q 135 51 131 49 q 143 60 140 54 q 149 74 146 65 q 153 97 151 83 q 155 128 154 111 q 156 164 156 144 l 156 167 l 156 167 m 767 1210 l 807 1210 q 806 1193 807 1201 q 801 1176 804 1185 q 794 1158 799 1167 q 785 1139 790 1149 q 783 1136 783 1138 q 782 1133 782 1135 q 780 1131 781 1132 q 778 1128 779 1129 q 776 1125 776 1126 q 775 1124 775 1124 q 773 1121 774 1122 q 771 1118 772 1119 q 750 1097 761 1107 q 725 1078 739 1086 q 695 1065 711 1069 q 660 1061 679 1061 q 637 1063 647 1061 q 618 1065 626 1064 q 601 1070 610 1068 q 586 1076 593 1072 q 580 1079 583 1078 q 574 1082 576 1081 q 566 1085 569 1083 q 560 1089 563 1088 q 547 1095 554 1092 q 531 1103 539 1099 q 528 1103 529 1103 q 528 1104 528 1103 q 526 1105 526 1104 q 524 1106 525 1106 q 520 1108 522 1107 q 515 1110 518 1108 q 509 1113 513 1111 q 503 1115 506 1114 q 495 1117 499 1117 q 489 1119 492 1118 q 481 1120 485 1119 q 475 1122 478 1121 q 472 1122 474 1122 q 468 1124 469 1122 q 465 1124 467 1124 q 463 1124 464 1124 q 437 1119 449 1124 q 417 1104 425 1114 q 400 1084 407 1094 q 389 1061 393 1074 l 349 1064 q 367 1117 354 1092 q 397 1161 379 1142 q 442 1190 417 1181 q 500 1200 468 1200 q 523 1198 511 1200 q 546 1192 535 1196 q 557 1188 551 1190 q 568 1183 563 1185 q 578 1178 572 1181 q 589 1174 583 1176 q 594 1171 592 1172 q 597 1168 596 1169 q 602 1166 600 1167 q 606 1165 604 1165 q 610 1163 608 1164 q 614 1161 613 1163 q 617 1159 615 1160 q 619 1158 618 1158 q 621 1157 619 1157 q 624 1157 622 1157 q 630 1153 626 1156 q 638 1150 633 1151 q 644 1147 640 1149 q 651 1144 647 1146 q 660 1142 656 1143 q 668 1139 664 1140 q 672 1138 671 1139 q 676 1138 674 1138 q 680 1138 678 1138 q 683 1138 682 1138 q 685 1138 685 1138 q 686 1138 686 1138 q 687 1138 686 1138 q 689 1138 688 1138 q 717 1144 706 1140 q 736 1156 729 1149 q 750 1173 743 1163 q 763 1197 757 1183 q 763 1198 763 1197 q 764 1200 763 1199 q 764 1201 764 1200 q 764 1201 764 1201 q 765 1204 764 1203 q 767 1207 765 1206 l 767 1210 l 767 1210 z "},"":{"ha":1092,"x_min":31,"x_max":1061,"o":"m 524 -28 q 330 5 418 -28 q 171 106 242 38 q 65 266 100 174 q 31 475 31 358 q 65 673 31 582 q 171 836 100 764 q 336 946 240 910 q 553 982 432 982 q 756 951 664 982 q 918 860 847 921 q 1025 711 989 800 q 1061 507 1061 622 q 1022 299 1061 394 q 906 126 983 204 q 733 10 829 49 q 524 -28 638 -28 l 524 -28 l 524 -28 m 531 926 q 374 895 440 924 q 264 810 307 867 q 200 683 221 754 q 179 526 179 613 q 179 518 179 522 q 179 510 179 514 q 179 506 179 508 q 179 501 179 503 q 180 497 179 499 q 181 492 181 494 q 208 325 183 404 q 279 172 233 246 q 397 64 325 100 q 568 28 469 28 q 719 58 654 28 q 826 150 783 89 q 891 290 869 211 q 913 464 913 368 q 889 650 913 567 q 818 797 865 733 q 699 892 771 860 q 531 924 628 924 l 531 926 l 531 926 m 408 1206 q 436 1198 424 1203 q 458 1183 449 1193 q 473 1161 468 1174 q 478 1133 478 1149 q 473 1106 478 1118 q 458 1083 468 1093 q 436 1069 449 1074 q 408 1064 424 1064 q 381 1069 393 1064 q 358 1083 368 1074 q 344 1106 349 1093 q 339 1133 339 1118 q 344 1161 339 1149 q 358 1183 349 1174 q 381 1198 368 1193 q 408 1203 393 1203 l 408 1206 l 408 1206 m 685 1206 q 713 1198 700 1203 q 735 1183 725 1193 q 749 1161 744 1174 q 754 1133 754 1149 q 749 1106 754 1118 q 735 1083 744 1093 q 713 1069 725 1074 q 685 1064 700 1064 q 657 1069 669 1064 q 635 1083 644 1074 q 620 1106 625 1093 q 615 1133 615 1118 q 620 1161 615 1149 q 635 1183 625 1174 q 657 1198 644 1193 q 685 1203 669 1203 l 685 1206 l 685 1206 z "},"":{"ha":1081,"x_min":17,"x_max":1054,"o":"m 154 297 l 154 790 q 153 824 154 808 q 151 854 153 840 q 147 876 150 867 q 142 892 144 886 q 134 901 139 897 q 122 907 129 906 q 106 910 115 910 q 83 913 96 911 l 17 919 l 17 961 q 55 957 36 958 q 92 956 74 956 q 109 956 100 956 q 128 956 118 956 q 145 954 136 954 q 164 954 154 954 q 178 954 171 954 q 193 954 186 954 q 208 954 200 954 q 222 954 215 954 q 270 954 246 954 q 319 956 294 954 q 371 956 344 956 q 424 958 397 957 l 424 919 l 357 915 q 345 912 351 913 q 335 911 339 911 q 325 909 329 910 q 318 907 321 908 q 307 901 313 906 q 299 892 301 897 q 292 876 294 886 q 289 854 290 867 q 287 824 288 840 q 286 788 286 807 l 286 313 q 304 186 286 236 q 360 108 322 136 q 451 69 397 82 q 572 56 504 56 q 678 69 629 56 q 771 113 728 83 q 837 199 815 142 q 858 343 858 257 l 858 790 q 858 824 858 808 q 856 854 857 840 q 851 876 854 867 q 846 892 849 886 q 838 901 843 897 q 826 907 833 906 q 810 910 819 910 q 788 913 800 911 l 726 919 l 726 961 q 740 958 733 958 q 754 957 747 957 q 768 957 761 957 q 782 957 775 957 q 809 955 796 956 q 836 954 822 954 q 849 954 843 954 q 863 954 856 954 q 875 954 868 954 q 888 954 882 954 q 894 954 890 954 q 901 954 897 954 q 908 954 904 954 q 914 954 911 954 q 928 954 921 954 q 942 956 935 954 q 948 956 944 956 q 956 956 951 956 q 962 956 958 956 q 968 956 965 956 q 982 956 975 956 q 996 957 989 956 q 1010 957 1003 957 q 1024 957 1017 957 q 1031 957 1028 957 q 1039 958 1035 957 q 1046 958 1042 958 q 1054 958 1050 958 l 1054 919 l 993 915 q 981 912 988 913 q 971 911 975 911 q 961 909 965 910 q 954 907 957 908 q 943 901 949 906 q 935 892 938 897 q 928 876 931 886 q 925 854 926 867 q 923 824 924 840 q 922 788 922 807 l 922 389 q 899 195 922 275 q 831 67 876 115 q 710 -4 785 19 q 529 -28 635 -28 q 372 -12 440 -28 q 253 38 303 4 q 178 135 203 71 q 154 294 154 199 l 154 297 l 154 297 m 403 1206 q 431 1198 418 1203 q 453 1183 443 1193 q 467 1161 463 1174 q 472 1133 472 1149 q 467 1106 472 1118 q 453 1083 463 1093 q 431 1069 443 1074 q 403 1064 418 1064 q 375 1069 388 1064 q 353 1083 363 1074 q 338 1106 343 1093 q 333 1133 333 1118 q 338 1161 333 1149 q 353 1183 343 1174 q 375 1198 363 1193 q 403 1203 388 1203 l 403 1206 l 403 1206 m 679 1206 q 707 1198 694 1203 q 729 1183 719 1193 q 744 1161 739 1174 q 749 1133 749 1149 q 744 1106 749 1118 q 729 1083 739 1093 q 707 1069 719 1074 q 679 1064 694 1064 q 651 1069 664 1064 q 629 1083 639 1074 q 615 1106 619 1093 q 610 1133 610 1118 q 615 1161 610 1149 q 629 1183 619 1174 q 651 1198 639 1193 q 679 1203 664 1203 l 679 1206 l 679 1206 z "},"":{"ha":694,"x_min":44,"x_max":654,"o":"m 313 375 l 450 400 q 440 471 450 439 q 408 526 429 503 q 354 563 388 550 q 275 575 321 575 q 237 574 253 575 q 211 569 221 572 q 193 560 201 567 q 178 546 185 554 q 176 543 176 544 q 175 542 175 542 q 173 539 174 540 q 172 536 172 538 q 169 531 171 535 q 167 525 168 528 q 163 519 165 522 q 160 513 161 515 q 157 506 158 510 q 154 500 156 503 l 136 460 l 100 469 l 100 560 l 174 604 q 217 624 196 615 q 260 639 239 633 q 299 646 281 643 q 335 649 318 649 q 444 633 400 649 q 513 585 489 617 q 549 501 536 554 q 561 372 561 447 l 561 121 q 561 101 561 110 q 563 85 561 93 q 563 70 563 76 q 565 58 564 64 q 569 49 567 53 q 576 43 572 46 q 587 40 581 42 q 600 38 593 38 l 654 38 l 654 -4 q 650 -4 653 -4 q 646 -4 647 -4 q 641 -3 643 -3 q 636 -3 639 -3 q 628 -3 632 -3 q 619 -3 624 -3 q 611 -2 615 -3 q 603 -1 607 -1 q 593 0 597 0 q 585 0 589 0 q 576 0 581 0 q 568 0 572 0 q 558 0 563 0 q 550 0 554 0 q 536 0 543 0 q 522 0 529 0 q 516 0 519 0 q 510 -1 513 0 q 503 -1 507 -1 q 497 -1 500 -1 q 492 -1 494 -1 q 488 -1 490 -1 q 485 -1 486 -1 q 483 -3 485 -1 q 481 -3 482 -3 q 479 -3 481 -3 q 469 -3 474 -3 q 461 -3 465 -3 q 457 -3 460 -3 q 453 -4 454 -3 q 448 -4 450 -4 q 443 -4 446 -4 l 450 114 l 278 -6 q 268 -10 274 -8 q 256 -12 263 -11 q 241 -15 249 -14 q 225 -17 233 -15 q 222 -17 224 -17 q 219 -17 221 -17 q 217 -17 218 -17 q 214 -17 215 -17 q 149 -7 179 -17 q 93 22 118 3 q 56 74 68 43 q 44 149 44 106 q 63 242 44 203 q 118 303 81 281 q 195 341 154 325 q 281 367 236 357 q 285 367 283 367 q 289 368 286 367 q 292 369 290 368 q 296 369 294 369 q 304 370 300 369 q 313 372 308 371 l 313 375 l 313 375 m 450 172 l 450 356 q 426 351 438 353 q 403 346 414 349 q 381 342 392 344 q 358 338 369 340 q 331 331 344 335 q 303 324 317 328 q 276 315 289 319 q 247 304 263 310 q 219 288 232 299 q 194 263 206 278 q 177 233 185 249 q 167 200 169 217 q 165 192 165 196 q 164 186 164 189 q 164 180 164 183 q 164 174 164 176 q 172 126 164 147 q 197 90 181 106 q 233 67 214 75 q 272 60 251 60 q 304 64 288 60 q 338 78 321 68 q 371 99 354 88 q 406 124 388 110 q 410 126 408 125 q 414 129 413 128 q 416 131 415 131 q 418 133 417 132 q 419 134 418 133 q 421 136 419 135 q 431 147 426 142 q 439 156 435 151 q 446 164 443 160 q 450 169 449 168 l 450 172 l 450 172 m 225 731 l 417 922 q 419 922 418 921 q 421 924 419 922 q 424 926 422 925 q 426 929 425 928 q 433 935 429 932 q 440 940 436 938 q 444 943 443 942 q 449 947 446 944 q 452 950 450 949 q 456 953 454 951 q 460 955 458 954 q 465 957 463 956 q 469 959 467 958 q 474 961 472 960 q 482 965 478 964 q 490 965 486 965 q 510 962 501 965 q 524 951 518 958 q 533 936 531 944 q 536 917 536 928 q 533 899 536 907 q 524 885 531 892 q 510 873 518 879 q 496 863 503 867 q 492 860 494 861 q 488 857 490 858 q 485 856 486 857 q 485 856 485 856 q 483 853 483 854 q 481 853 482 853 l 281 731 l 225 731 l 225 731 l 225 731 z "},"":{"ha":694,"x_min":44,"x_max":654,"o":"m 313 375 l 450 400 q 440 471 450 439 q 408 526 429 503 q 354 563 388 550 q 275 575 321 575 q 237 574 253 575 q 211 569 221 572 q 193 560 201 567 q 178 546 185 554 q 176 543 176 544 q 175 542 175 542 q 173 539 174 540 q 172 536 172 538 q 169 531 171 535 q 167 525 168 528 q 163 519 165 522 q 160 513 161 515 q 157 506 158 510 q 154 500 156 503 l 136 460 l 100 469 l 100 560 l 174 604 q 217 624 196 615 q 260 639 239 633 q 299 646 281 643 q 335 649 318 649 q 444 633 400 649 q 513 585 489 617 q 549 501 536 554 q 561 372 561 447 l 561 121 q 561 101 561 110 q 563 85 561 93 q 563 70 563 76 q 565 58 564 64 q 569 49 567 53 q 576 43 572 46 q 587 40 581 42 q 600 38 593 38 l 654 38 l 654 -4 q 650 -4 653 -4 q 646 -4 647 -4 q 641 -3 643 -3 q 636 -3 639 -3 q 628 -3 632 -3 q 619 -3 624 -3 q 611 -2 615 -3 q 603 -1 607 -1 q 593 0 597 0 q 585 0 589 0 q 576 0 581 0 q 568 0 572 0 q 558 0 563 0 q 550 0 554 0 q 536 0 543 0 q 522 0 529 0 q 516 0 519 0 q 510 -1 513 0 q 503 -1 507 -1 q 497 -1 500 -1 q 492 -1 494 -1 q 488 -1 490 -1 q 485 -1 486 -1 q 483 -3 485 -1 q 481 -3 482 -3 q 479 -3 481 -3 q 469 -3 474 -3 q 461 -3 465 -3 q 457 -3 460 -3 q 453 -4 454 -3 q 448 -4 450 -4 q 443 -4 446 -4 l 450 114 l 278 -6 q 268 -10 274 -8 q 256 -12 263 -11 q 241 -15 249 -14 q 225 -17 233 -15 q 222 -17 224 -17 q 219 -17 221 -17 q 217 -17 218 -17 q 214 -17 215 -17 q 149 -7 179 -17 q 93 22 118 3 q 56 74 68 43 q 44 149 44 106 q 63 242 44 203 q 118 303 81 281 q 195 341 154 325 q 281 367 236 357 q 285 367 283 367 q 289 368 286 367 q 292 369 290 368 q 296 369 294 369 q 304 370 300 369 q 313 372 308 371 l 313 375 l 313 375 m 450 172 l 450 356 q 426 351 438 353 q 403 346 414 349 q 381 342 392 344 q 358 338 369 340 q 331 331 344 335 q 303 324 317 328 q 276 315 289 319 q 247 304 263 310 q 219 288 232 299 q 194 263 206 278 q 177 233 185 249 q 167 200 169 217 q 165 192 165 196 q 164 186 164 189 q 164 180 164 183 q 164 174 164 176 q 172 126 164 147 q 197 90 181 106 q 233 67 214 75 q 272 60 251 60 q 304 64 288 60 q 338 78 321 68 q 371 99 354 88 q 406 124 388 110 q 410 126 408 125 q 414 129 413 128 q 416 131 415 131 q 418 133 417 132 q 419 134 418 133 q 421 136 419 135 q 431 147 426 142 q 439 156 435 151 q 446 164 443 160 q 450 169 449 168 l 450 172 l 450 172 m 382 731 l 182 856 q 178 855 181 854 q 174 857 176 856 q 172 858 172 857 q 171 860 171 858 q 169 860 169 860 q 167 863 168 861 q 152 873 158 867 q 139 885 146 879 q 130 899 133 892 q 126 917 126 907 q 129 936 126 928 q 138 951 132 944 q 153 962 144 958 q 172 965 161 965 q 181 965 176 965 q 189 961 185 964 q 197 958 193 960 q 207 953 201 956 q 213 947 210 950 q 221 940 217 943 q 225 938 224 939 q 229 935 226 936 q 233 932 231 933 q 236 929 235 931 q 238 926 238 928 q 240 924 239 925 q 243 922 242 922 q 246 919 244 921 l 438 731 l 382 731 l 382 731 l 382 731 z "},"":{"ha":694,"x_min":44,"x_max":654,"o":"m 313 375 l 450 400 q 440 471 450 439 q 408 526 429 503 q 354 563 388 550 q 275 575 321 575 q 237 574 253 575 q 211 569 221 572 q 193 560 201 567 q 178 546 185 554 q 176 543 176 544 q 175 542 175 542 q 173 539 174 540 q 172 536 172 538 q 169 531 171 535 q 167 525 168 528 q 163 519 165 522 q 160 513 161 515 q 157 506 158 510 q 154 500 156 503 l 136 460 l 100 469 l 100 560 l 174 604 q 217 624 196 615 q 260 639 239 633 q 299 646 281 643 q 335 649 318 649 q 444 633 400 649 q 513 585 489 617 q 549 501 536 554 q 561 372 561 447 l 561 121 q 561 101 561 110 q 563 85 561 93 q 563 70 563 76 q 565 58 564 64 q 569 49 567 53 q 576 43 572 46 q 587 40 581 42 q 600 38 593 38 l 654 38 l 654 -4 q 650 -4 653 -4 q 646 -4 647 -4 q 641 -3 643 -3 q 636 -3 639 -3 q 628 -3 632 -3 q 619 -3 624 -3 q 611 -2 615 -3 q 603 -1 607 -1 q 593 0 597 0 q 585 0 589 0 q 576 0 581 0 q 568 0 572 0 q 558 0 563 0 q 550 0 554 0 q 536 0 543 0 q 522 0 529 0 q 516 0 519 0 q 510 -1 513 0 q 503 -1 507 -1 q 497 -1 500 -1 q 492 -1 494 -1 q 488 -1 490 -1 q 485 -1 486 -1 q 483 -3 485 -1 q 481 -3 482 -3 q 479 -3 481 -3 q 469 -3 474 -3 q 461 -3 465 -3 q 457 -3 460 -3 q 453 -4 454 -3 q 448 -4 450 -4 q 443 -4 446 -4 l 450 114 l 278 -6 q 268 -10 274 -8 q 256 -12 263 -11 q 241 -15 249 -14 q 225 -17 233 -15 q 222 -17 224 -17 q 219 -17 221 -17 q 217 -17 218 -17 q 214 -17 215 -17 q 149 -7 179 -17 q 93 22 118 3 q 56 74 68 43 q 44 149 44 106 q 63 242 44 203 q 118 303 81 281 q 195 341 154 325 q 281 367 236 357 q 285 367 283 367 q 289 368 286 367 q 292 369 290 368 q 296 369 294 369 q 304 370 300 369 q 313 372 308 371 l 313 375 l 313 375 m 450 172 l 450 356 q 426 351 438 353 q 403 346 414 349 q 381 342 392 344 q 358 338 369 340 q 331 331 344 335 q 303 324 317 328 q 276 315 289 319 q 247 304 263 310 q 219 288 232 299 q 194 263 206 278 q 177 233 185 249 q 167 200 169 217 q 165 192 165 196 q 164 186 164 189 q 164 180 164 183 q 164 174 164 176 q 172 126 164 147 q 197 90 181 106 q 233 67 214 75 q 272 60 251 60 q 304 64 288 60 q 338 78 321 68 q 371 99 354 88 q 406 124 388 110 q 410 126 408 125 q 414 129 413 128 q 416 131 415 131 q 418 133 417 132 q 419 134 418 133 q 421 136 419 135 q 431 147 426 142 q 439 156 435 151 q 446 164 443 160 q 450 169 449 168 l 450 172 l 450 172 m 289 968 l 375 968 l 549 736 l 500 736 l 332 879 l 164 736 l 115 736 l 289 968 l 289 968 l 289 968 z "},"":{"ha":694,"x_min":44,"x_max":654,"o":"m 313 375 l 450 400 q 440 471 450 439 q 408 526 429 503 q 354 563 388 550 q 275 575 321 575 q 237 574 253 575 q 211 569 221 572 q 193 560 201 567 q 178 546 185 554 q 176 543 176 544 q 175 542 175 542 q 173 539 174 540 q 172 536 172 538 q 169 531 171 535 q 167 525 168 528 q 163 519 165 522 q 160 513 161 515 q 157 506 158 510 q 154 500 156 503 l 136 460 l 100 469 l 100 560 l 174 604 q 217 624 196 615 q 260 639 239 633 q 299 646 281 643 q 335 649 318 649 q 444 633 400 649 q 513 585 489 617 q 549 501 536 554 q 561 372 561 447 l 561 121 q 561 101 561 110 q 563 85 561 93 q 563 70 563 76 q 565 58 564 64 q 569 49 567 53 q 576 43 572 46 q 587 40 581 42 q 600 38 593 38 l 654 38 l 654 -4 q 650 -4 653 -4 q 646 -4 647 -4 q 641 -3 643 -3 q 636 -3 639 -3 q 628 -3 632 -3 q 619 -3 624 -3 q 611 -2 615 -3 q 603 -1 607 -1 q 593 0 597 0 q 585 0 589 0 q 576 0 581 0 q 568 0 572 0 q 558 0 563 0 q 550 0 554 0 q 536 0 543 0 q 522 0 529 0 q 516 0 519 0 q 510 -1 513 0 q 503 -1 507 -1 q 497 -1 500 -1 q 492 -1 494 -1 q 488 -1 490 -1 q 485 -1 486 -1 q 483 -3 485 -1 q 481 -3 482 -3 q 479 -3 481 -3 q 469 -3 474 -3 q 461 -3 465 -3 q 457 -3 460 -3 q 453 -4 454 -3 q 448 -4 450 -4 q 443 -4 446 -4 l 450 114 l 278 -6 q 268 -10 274 -8 q 256 -12 263 -11 q 241 -15 249 -14 q 225 -17 233 -15 q 222 -17 224 -17 q 219 -17 221 -17 q 217 -17 218 -17 q 214 -17 215 -17 q 149 -7 179 -17 q 93 22 118 3 q 56 74 68 43 q 44 149 44 106 q 63 242 44 203 q 118 303 81 281 q 195 341 154 325 q 281 367 236 357 q 285 367 283 367 q 289 368 286 367 q 292 369 290 368 q 296 369 294 369 q 304 370 300 369 q 313 372 308 371 l 313 375 l 313 375 m 450 172 l 450 356 q 426 351 438 353 q 403 346 414 349 q 381 342 392 344 q 358 338 369 340 q 331 331 344 335 q 303 324 317 328 q 276 315 289 319 q 247 304 263 310 q 219 288 232 299 q 194 263 206 278 q 177 233 185 249 q 167 200 169 217 q 165 192 165 196 q 164 186 164 189 q 164 180 164 183 q 164 174 164 176 q 172 126 164 147 q 197 90 181 106 q 233 67 214 75 q 272 60 251 60 q 304 64 288 60 q 338 78 321 68 q 371 99 354 88 q 406 124 388 110 q 410 126 408 125 q 414 129 413 128 q 416 131 415 131 q 418 133 417 132 q 419 134 418 133 q 421 136 419 135 q 431 147 426 142 q 439 156 435 151 q 446 164 443 160 q 450 169 449 168 l 450 172 l 450 172 m 193 913 q 221 905 208 910 q 243 890 233 900 q 258 868 253 881 q 263 840 263 856 q 258 813 263 825 q 243 790 253 800 q 221 776 233 781 q 193 771 208 771 q 165 776 178 771 q 143 790 153 781 q 128 813 133 800 q 124 840 124 825 q 128 868 124 856 q 143 890 133 881 q 165 905 153 900 q 193 910 178 910 l 193 913 l 193 913 m 469 913 q 497 905 485 910 q 519 890 510 900 q 534 868 529 881 q 539 840 539 856 q 534 813 539 825 q 519 790 529 800 q 497 776 510 781 q 469 771 485 771 q 442 776 454 771 q 419 790 429 781 q 405 813 410 800 q 400 840 400 825 q 405 868 400 856 q 419 890 410 881 q 442 905 429 900 q 469 910 454 910 l 469 913 l 469 913 z "},"":{"ha":694,"x_min":44,"x_max":654,"o":"m 313 375 l 450 400 q 440 471 450 439 q 408 526 429 503 q 354 563 388 550 q 275 575 321 575 q 237 574 253 575 q 211 569 221 572 q 193 560 201 567 q 178 546 185 554 q 176 543 176 544 q 175 542 175 542 q 173 539 174 540 q 172 536 172 538 q 169 531 171 535 q 167 525 168 528 q 163 519 165 522 q 160 513 161 515 q 157 506 158 510 q 154 500 156 503 l 136 460 l 100 469 l 100 560 l 174 604 q 217 624 196 615 q 260 639 239 633 q 299 646 281 643 q 335 649 318 649 q 444 633 400 649 q 513 585 489 617 q 549 501 536 554 q 561 372 561 447 l 561 121 q 561 101 561 110 q 563 85 561 93 q 563 70 563 76 q 565 58 564 64 q 569 49 567 53 q 576 43 572 46 q 587 40 581 42 q 600 38 593 38 l 654 38 l 654 -4 q 650 -4 653 -4 q 646 -4 647 -4 q 641 -3 643 -3 q 636 -3 639 -3 q 628 -3 632 -3 q 619 -3 624 -3 q 611 -2 615 -3 q 603 -1 607 -1 q 593 0 597 0 q 585 0 589 0 q 576 0 581 0 q 568 0 572 0 q 558 0 563 0 q 550 0 554 0 q 536 0 543 0 q 522 0 529 0 q 516 0 519 0 q 510 -1 513 0 q 503 -1 507 -1 q 497 -1 500 -1 q 492 -1 494 -1 q 488 -1 490 -1 q 485 -1 486 -1 q 483 -3 485 -1 q 481 -3 482 -3 q 479 -3 481 -3 q 469 -3 474 -3 q 461 -3 465 -3 q 457 -3 460 -3 q 453 -4 454 -3 q 448 -4 450 -4 q 443 -4 446 -4 l 450 114 l 278 -6 q 268 -10 274 -8 q 256 -12 263 -11 q 241 -15 249 -14 q 225 -17 233 -15 q 222 -17 224 -17 q 219 -17 221 -17 q 217 -17 218 -17 q 214 -17 215 -17 q 149 -7 179 -17 q 93 22 118 3 q 56 74 68 43 q 44 149 44 106 q 63 242 44 203 q 118 303 81 281 q 195 341 154 325 q 281 367 236 357 q 285 367 283 367 q 289 368 286 367 q 292 369 290 368 q 296 369 294 369 q 304 370 300 369 q 313 372 308 371 l 313 375 l 313 375 m 450 172 l 450 356 q 426 351 438 353 q 403 346 414 349 q 381 342 392 344 q 358 338 369 340 q 331 331 344 335 q 303 324 317 328 q 276 315 289 319 q 247 304 263 310 q 219 288 232 299 q 194 263 206 278 q 177 233 185 249 q 167 200 169 217 q 165 192 165 196 q 164 186 164 189 q 164 180 164 183 q 164 174 164 176 q 172 126 164 147 q 197 90 181 106 q 233 67 214 75 q 272 60 251 60 q 304 64 288 60 q 338 78 321 68 q 371 99 354 88 q 406 124 388 110 q 410 126 408 125 q 414 129 413 128 q 416 131 415 131 q 418 133 417 132 q 419 134 418 133 q 421 136 419 135 q 431 147 426 142 q 439 156 435 151 q 446 164 443 160 q 450 169 449 168 l 450 172 l 450 172 m 521 906 l 561 906 q 560 889 561 897 q 556 872 558 881 q 549 853 553 863 q 539 835 544 844 q 537 832 538 833 q 536 829 536 831 q 534 826 535 828 q 532 824 533 825 q 530 821 531 822 q 529 819 529 819 q 527 817 528 818 q 525 814 526 815 q 504 792 515 803 q 479 774 493 782 q 449 761 465 765 q 414 757 433 757 q 391 758 401 757 q 372 761 381 760 q 356 766 364 764 q 340 772 347 768 q 334 775 338 774 q 328 778 331 776 q 320 781 324 779 q 314 785 317 783 q 301 791 308 788 q 285 799 293 794 q 283 799 283 799 q 282 800 282 799 q 280 801 281 800 q 278 801 279 801 q 274 803 276 803 q 269 806 272 804 q 263 808 267 807 q 257 811 260 810 q 249 813 253 813 q 243 815 246 814 q 235 816 239 815 q 229 818 232 817 q 226 818 228 818 q 222 819 224 818 q 219 819 221 819 q 217 819 218 819 q 191 815 203 819 q 171 800 179 810 q 154 780 161 790 q 143 757 147 769 l 103 760 q 121 813 108 788 q 151 857 133 838 q 197 886 171 876 q 254 896 222 896 q 277 894 265 896 q 300 888 289 892 q 311 883 306 886 q 322 879 317 881 q 332 874 326 876 q 343 869 338 872 q 348 867 346 868 q 351 864 350 865 q 356 862 354 863 q 360 861 358 861 q 365 859 363 860 q 368 857 367 858 q 371 855 369 856 q 374 854 372 854 q 375 853 374 853 q 378 853 376 853 q 384 849 381 851 q 392 846 388 847 q 398 843 394 844 q 406 840 401 842 q 414 838 410 839 q 422 835 418 836 q 426 834 425 835 q 431 833 428 833 q 434 833 432 833 q 438 833 436 833 q 440 833 439 833 q 440 833 440 833 q 441 833 440 833 q 443 833 442 833 q 472 840 460 836 q 490 851 483 844 q 504 869 497 858 q 517 893 511 879 q 517 894 517 893 q 518 896 517 894 q 518 897 518 896 q 518 897 518 897 q 519 900 518 899 q 521 903 519 901 l 521 906 l 521 906 z "},"":{"ha":694,"x_min":44,"x_max":654,"o":"m 313 375 l 450 400 q 440 471 450 439 q 408 526 429 503 q 354 563 388 550 q 275 575 321 575 q 237 574 253 575 q 211 569 221 572 q 193 560 201 567 q 178 546 185 554 q 176 543 176 544 q 175 542 175 542 q 173 539 174 540 q 172 536 172 538 q 169 531 171 535 q 167 525 168 528 q 163 519 165 522 q 160 513 161 515 q 157 506 158 510 q 154 500 156 503 l 136 460 l 100 469 l 100 560 l 174 604 q 217 624 196 615 q 260 639 239 633 q 299 646 281 643 q 335 649 318 649 q 444 633 400 649 q 513 585 489 617 q 549 501 536 554 q 561 372 561 447 l 561 121 q 561 101 561 110 q 563 85 561 93 q 563 70 563 76 q 565 58 564 64 q 569 49 567 53 q 576 43 572 46 q 587 40 581 42 q 600 38 593 38 l 654 38 l 654 -4 q 650 -4 653 -4 q 646 -4 647 -4 q 641 -3 643 -3 q 636 -3 639 -3 q 628 -3 632 -3 q 619 -3 624 -3 q 611 -2 615 -3 q 603 -1 607 -1 q 593 0 597 0 q 585 0 589 0 q 576 0 581 0 q 568 0 572 0 q 558 0 563 0 q 550 0 554 0 q 536 0 543 0 q 522 0 529 0 q 516 0 519 0 q 510 -1 513 0 q 503 -1 507 -1 q 497 -1 500 -1 q 492 -1 494 -1 q 488 -1 490 -1 q 485 -1 486 -1 q 483 -3 485 -1 q 481 -3 482 -3 q 479 -3 481 -3 q 469 -3 474 -3 q 461 -3 465 -3 q 457 -3 460 -3 q 453 -4 454 -3 q 448 -4 450 -4 q 443 -4 446 -4 l 450 114 l 278 -6 q 268 -10 274 -8 q 256 -12 263 -11 q 241 -15 249 -14 q 225 -17 233 -15 q 222 -17 224 -17 q 219 -17 221 -17 q 217 -17 218 -17 q 214 -17 215 -17 q 149 -7 179 -17 q 93 22 118 3 q 56 74 68 43 q 44 149 44 106 q 63 242 44 203 q 118 303 81 281 q 195 341 154 325 q 281 367 236 357 q 285 367 283 367 q 289 368 286 367 q 292 369 290 368 q 296 369 294 369 q 304 370 300 369 q 313 372 308 371 l 313 375 l 313 375 m 450 172 l 450 356 q 426 351 438 353 q 403 346 414 349 q 381 342 392 344 q 358 338 369 340 q 331 331 344 335 q 303 324 317 328 q 276 315 289 319 q 247 304 263 310 q 219 288 232 299 q 194 263 206 278 q 177 233 185 249 q 167 200 169 217 q 165 192 165 196 q 164 186 164 189 q 164 180 164 183 q 164 174 164 176 q 172 126 164 147 q 197 90 181 106 q 233 67 214 75 q 272 60 251 60 q 304 64 288 60 q 338 78 321 68 q 371 99 354 88 q 406 124 388 110 q 410 126 408 125 q 414 129 413 128 q 416 131 415 131 q 418 133 417 132 q 419 134 418 133 q 421 136 419 135 q 431 147 426 142 q 439 156 435 151 q 446 164 443 160 q 450 169 449 168 l 450 172 l 450 172 m 332 994 q 384 981 360 992 q 429 951 408 971 q 460 906 450 931 q 471 854 471 882 q 471 854 471 854 q 471 854 471 854 q 471 854 471 854 q 471 854 471 854 q 471 853 471 853 q 471 853 471 853 q 471 853 471 853 q 471 853 471 853 q 461 799 471 824 q 431 754 451 775 q 385 724 410 733 q 332 714 360 714 q 278 724 303 714 q 233 754 254 733 q 203 798 213 774 q 193 851 193 822 q 193 851 193 851 q 193 851 193 851 q 193 851 193 851 q 193 853 193 851 q 193 853 193 853 q 193 853 193 853 q 193 853 193 853 q 193 853 193 853 q 202 905 192 881 q 233 950 213 929 q 278 981 254 971 q 332 992 303 992 l 332 994 l 332 994 m 332 944 q 297 935 313 942 q 269 917 281 929 q 251 888 257 904 q 246 853 246 872 q 251 816 246 832 q 269 788 257 800 q 297 769 281 775 q 332 764 313 764 q 367 769 351 764 q 394 788 382 775 q 412 816 406 800 q 418 853 418 832 q 412 888 418 872 q 394 917 406 904 q 367 935 382 929 q 332 942 351 942 l 332 944 l 332 944 z "}}}
